G04*
G04 #@! TF.GenerationSoftware,Altium Limited,Altium Designer,25.0.2 (28)*
G04*
G04 Layer_Color=128*
%FSLAX44Y44*%
%MOMM*%
G71*
G04*
G04 #@! TF.SameCoordinates,CA714532-D515-40E6-9F5D-C0DFE5D80C05*
G04*
G04*
G04 #@! TF.FilePolarity,Positive*
G04*
G01*
G75*
%ADD18C,0.1270*%
D18*
X916250Y951500D02*
X924250D01*
X920250Y947500D02*
Y955500D01*
X916250Y926100D02*
X924250D01*
X920250Y922100D02*
Y930100D01*
X1127890Y1213870D02*
X1135890D01*
X1131890Y1209870D02*
Y1217870D01*
X1102490Y1213870D02*
X1110490D01*
X1106490Y1209870D02*
Y1217870D01*
X917750Y1041600D02*
X925750D01*
X921750Y1037600D02*
Y1045600D01*
X917750Y1067000D02*
X925750D01*
X921750Y1063000D02*
Y1071000D01*
X1130000Y1069500D02*
X1139000D01*
X1134500Y1065000D02*
Y1074000D01*
X1130000Y1104500D02*
X1139000D01*
X1134500Y1100000D02*
Y1109000D01*
X920560Y636750D02*
X928560D01*
X924560Y632750D02*
Y640750D01*
X920560Y662150D02*
X928560D01*
X924560Y658150D02*
Y666150D01*
X1133750Y413250D02*
X1135750D01*
X1134750Y412250D02*
Y414250D01*
X1147750Y413250D02*
X1149750D01*
X1148750Y412250D02*
Y414250D01*
X1119750Y413250D02*
X1121750D01*
X1120750Y412250D02*
Y414250D01*
X1147750Y427250D02*
X1149750D01*
X1148750Y426250D02*
Y428250D01*
X1133750Y427250D02*
X1135750D01*
X1134750Y426250D02*
Y428250D01*
X1119750Y427250D02*
X1121750D01*
X1120750Y426250D02*
Y428250D01*
X1140750Y406250D02*
X1142750D01*
X1141750Y405250D02*
Y407250D01*
X1126750Y406250D02*
X1128750D01*
X1127750Y405250D02*
Y407250D01*
X1140750Y420250D02*
X1142750D01*
X1141750Y419250D02*
Y421250D01*
X1126750Y420250D02*
X1128750D01*
X1127750Y419250D02*
Y421250D01*
X1140750Y434250D02*
X1142750D01*
X1141750Y433250D02*
Y435250D01*
X1126750Y434250D02*
X1128750D01*
X1127750Y433250D02*
Y435250D01*
X1446200Y1228000D02*
X1454200D01*
X1450200Y1224000D02*
Y1232000D01*
X1497000Y1228000D02*
X1505000D01*
X1501000Y1224000D02*
Y1232000D01*
X1522400Y1228000D02*
X1530400D01*
X1526400Y1224000D02*
Y1232000D01*
X1471600Y1228000D02*
X1479600D01*
X1475600Y1224000D02*
Y1232000D01*
X1615550Y1228000D02*
X1623550D01*
X1619550Y1224000D02*
Y1232000D01*
X1666350Y1228000D02*
X1674350D01*
X1670350Y1224000D02*
Y1232000D01*
X1691750Y1228000D02*
X1699750D01*
X1695750Y1224000D02*
Y1232000D01*
X1640950Y1228000D02*
X1648950D01*
X1644950Y1224000D02*
Y1232000D01*
X1099886Y831600D02*
X1105474D01*
X1102680Y828806D02*
Y834394D01*
X1125286Y831600D02*
X1130874D01*
X1128080Y828806D02*
Y834394D01*
X1150686Y831600D02*
X1156274D01*
X1153480Y828806D02*
Y834394D01*
X1176086Y831600D02*
X1181674D01*
X1178880Y828806D02*
Y834394D01*
X1176086Y907800D02*
X1181674D01*
X1178880Y905006D02*
Y910594D01*
X1150686Y907800D02*
X1156274D01*
X1153480Y905006D02*
Y910594D01*
X1125286Y907800D02*
X1130874D01*
X1128080Y905006D02*
Y910594D01*
X1099886Y907800D02*
X1105474D01*
X1102680Y905006D02*
Y910594D01*
X917710Y417075D02*
X925710D01*
X921710Y413075D02*
Y421075D01*
X917710Y366275D02*
X925710D01*
X921710Y362275D02*
Y370275D01*
X917710Y340875D02*
X925710D01*
X921710Y336875D02*
Y344875D01*
X917710Y391675D02*
X925710D01*
X921710Y387675D02*
Y395675D01*
X1505540Y275751D02*
X1513160D01*
X1509350Y271941D02*
Y279561D01*
X1530940Y275751D02*
X1538560D01*
X1534750Y271941D02*
Y279561D01*
X1556340Y275751D02*
X1563960D01*
X1560150Y271941D02*
Y279561D01*
X1480140Y275751D02*
X1487760D01*
X1483950Y271941D02*
Y279561D01*
X1734180Y1085041D02*
X1774180D01*
X1754180Y1065041D02*
Y1105041D01*
X1424180Y1085041D02*
X1464180D01*
X1444180Y1065041D02*
Y1105041D01*
X1424180Y335041D02*
X1464180D01*
X1444180Y315041D02*
Y355041D01*
X1734180Y335041D02*
X1774180D01*
X1754180Y315041D02*
Y355041D01*
X920560Y813700D02*
X928560D01*
X924560Y809700D02*
Y817700D01*
X920560Y762900D02*
X928560D01*
X924560Y758900D02*
Y766900D01*
X920560Y737500D02*
X928560D01*
X924560Y733500D02*
Y741500D01*
X920560Y788300D02*
X928560D01*
X924560Y784300D02*
Y792300D01*
X1733250Y1226250D02*
X1764250D01*
X1748750Y1210750D02*
Y1241750D01*
X1733500Y284750D02*
X1764500D01*
X1749000Y269250D02*
Y300250D01*
X897250Y1226000D02*
X928250D01*
X912750Y1210500D02*
Y1241500D01*
X896750Y283750D02*
X927750D01*
X912250Y268250D02*
Y299250D01*
X1388501Y1200001D02*
X1391501D01*
X1390001Y1198501D02*
Y1201501D01*
X1388501Y1160001D02*
X1391501D01*
X1390001Y1158501D02*
Y1161501D01*
X1388501Y1120001D02*
X1391501D01*
X1390001Y1118501D02*
Y1121501D01*
X1388501Y1080001D02*
X1391501D01*
X1390001Y1078501D02*
Y1081501D01*
X1388501Y1040001D02*
X1391501D01*
X1390001Y1038501D02*
Y1041501D01*
X1388501Y1000001D02*
X1391501D01*
X1390001Y998501D02*
Y1001500D01*
X1378501Y980001D02*
X1381501D01*
X1380001Y978501D02*
Y981500D01*
X1388501Y960001D02*
X1391501D01*
X1390001Y958501D02*
Y961500D01*
X1378501Y940001D02*
X1381501D01*
X1380001Y938501D02*
Y941500D01*
X1388501Y920001D02*
X1391501D01*
X1390001Y918501D02*
Y921500D01*
X1378501Y900001D02*
X1381501D01*
X1380001Y898501D02*
Y901500D01*
X1368501Y1000001D02*
X1371501D01*
X1370001Y998501D02*
Y1001500D01*
X1358501Y980001D02*
X1361501D01*
X1360001Y978501D02*
Y981500D01*
X1368501Y960001D02*
X1371501D01*
X1370001Y958501D02*
Y961500D01*
X1358501Y940001D02*
X1361501D01*
X1360001Y938501D02*
Y941500D01*
X1368501Y920001D02*
X1371501D01*
X1370001Y918501D02*
Y921500D01*
X1358501Y900001D02*
X1361501D01*
X1360001Y898501D02*
Y901500D01*
X1348501Y960001D02*
X1351501D01*
X1350001Y958501D02*
Y961500D01*
X1338501Y940001D02*
X1341501D01*
X1340001Y938501D02*
Y941500D01*
X1348501Y920001D02*
X1351501D01*
X1350001Y918501D02*
Y921500D01*
X1338501Y900001D02*
X1341501D01*
X1340001Y898501D02*
Y901500D01*
X1328501Y960001D02*
X1331501D01*
X1330001Y958501D02*
Y961500D01*
X1318501Y940001D02*
X1321501D01*
X1320001Y938501D02*
Y941500D01*
X1328501Y920001D02*
X1331501D01*
X1330001Y918501D02*
Y921500D01*
X1318501Y900001D02*
X1321501D01*
X1320001Y898501D02*
Y901500D01*
X1308501Y960001D02*
X1311501D01*
X1310001Y958501D02*
Y961500D01*
X1298501Y940001D02*
X1301501D01*
X1300001Y938501D02*
Y941500D01*
X1308501Y920001D02*
X1311501D01*
X1310001Y918501D02*
Y921500D01*
X1298501Y900001D02*
X1301501D01*
X1300001Y898501D02*
Y901500D01*
X1288501Y960001D02*
X1291501D01*
X1290001Y958501D02*
Y961500D01*
X1278501Y940001D02*
X1281501D01*
X1280001Y938501D02*
Y941500D01*
X1288501Y920001D02*
X1291501D01*
X1290001Y918501D02*
Y921500D01*
X1278501Y900001D02*
X1281501D01*
X1280001Y898501D02*
Y901500D01*
X1268501Y960001D02*
X1271501D01*
X1270001Y958501D02*
Y961500D01*
X1258501Y940001D02*
X1261501D01*
X1260001Y938501D02*
Y941500D01*
X1268501Y920001D02*
X1271501D01*
X1270001Y918501D02*
Y921500D01*
X1258501Y900001D02*
X1261501D01*
X1260001Y898501D02*
Y901500D01*
X1248501Y960001D02*
X1251501D01*
X1250001Y958501D02*
Y961500D01*
X1238501Y940001D02*
X1241501D01*
X1240001Y938501D02*
Y941500D01*
X1248501Y920001D02*
X1251501D01*
X1250001Y918501D02*
Y921500D01*
X1238501Y900001D02*
X1241501D01*
X1240001Y898501D02*
Y901500D01*
X1228501Y960001D02*
X1231501D01*
X1230001Y958501D02*
Y961500D01*
X1228501Y920001D02*
X1231501D01*
X1230001Y918501D02*
Y921500D01*
X1218501Y900001D02*
X1221501D01*
X1220001Y898501D02*
Y901500D01*
X1198501Y940001D02*
X1201501D01*
X1200001Y938501D02*
Y941500D01*
X1188501Y920001D02*
X1191501D01*
X1190001Y918501D02*
Y921500D01*
X1168501Y960001D02*
X1171501D01*
X1170001Y958501D02*
Y961500D01*
X1026500Y961250D02*
X1029500D01*
X1028000Y959750D02*
Y962750D01*
X1036250Y961250D02*
X1039250D01*
X1037750Y959750D02*
Y962750D01*
X1056250Y958000D02*
X1059250D01*
X1057750Y956500D02*
Y959500D01*
X1056250Y967000D02*
X1059250D01*
X1057750Y965500D02*
Y968500D01*
X891500Y1225500D02*
X894500D01*
X893000Y1224000D02*
Y1227000D01*
X896931Y1239612D02*
X899931D01*
X898431Y1238112D02*
Y1241112D01*
X897638Y1211681D02*
X900638D01*
X899138Y1210181D02*
Y1213181D01*
X910750Y1245750D02*
X913750D01*
X912250Y1244250D02*
Y1247250D01*
X993500Y1190000D02*
X996500D01*
X995000Y1188500D02*
Y1191500D01*
X911750Y1206250D02*
X914750D01*
X913250Y1204750D02*
Y1207750D01*
X993500Y1233024D02*
X996500D01*
X995000Y1231524D02*
Y1234523D01*
X924862Y1240319D02*
X927862D01*
X926362Y1238819D02*
Y1241819D01*
X925569Y1212388D02*
X928569D01*
X927069Y1210888D02*
Y1213888D01*
X931000Y1226500D02*
X934000D01*
X932500Y1225000D02*
Y1228000D01*
X965500Y1166500D02*
X968500D01*
X967000Y1165000D02*
Y1168000D01*
X965500Y1210750D02*
X968500D01*
X967000Y1209250D02*
Y1212250D01*
X965500Y1190000D02*
X968500D01*
X967000Y1188500D02*
Y1191500D01*
X965500Y1233024D02*
X968500D01*
X967000Y1231524D02*
Y1234523D01*
X1269500Y1166477D02*
X1272500D01*
X1271000Y1164977D02*
Y1167977D01*
X1055500Y1190000D02*
X1058500D01*
X1057000Y1188500D02*
Y1191500D01*
X1179500Y1166477D02*
X1182500D01*
X1181000Y1164977D02*
Y1167977D01*
X1239765Y1166477D02*
X1242765D01*
X1241265Y1164977D02*
Y1167977D01*
X1207500Y1166477D02*
X1210500D01*
X1209000Y1164977D02*
Y1167977D01*
X993500Y1166500D02*
X996500D01*
X995000Y1165000D02*
Y1168000D01*
X1025765Y1166500D02*
X1028765D01*
X1027265Y1165000D02*
Y1168000D01*
X1055500Y1166500D02*
X1058500D01*
X1057000Y1165000D02*
Y1168000D01*
X1239765Y1189977D02*
X1242765D01*
X1241265Y1188476D02*
Y1191477D01*
X1207500Y1189977D02*
X1210500D01*
X1209000Y1188476D02*
Y1191477D01*
X1179500Y1189977D02*
X1182500D01*
X1181000Y1188476D02*
Y1191477D01*
X1269500Y1189977D02*
X1272500D01*
X1271000Y1188476D02*
Y1191477D01*
X1025765Y1190000D02*
X1028765D01*
X1027265Y1188500D02*
Y1191500D01*
X1179500Y1210726D02*
X1182500D01*
X1181000Y1209227D02*
Y1212226D01*
X1239765Y1210726D02*
X1242765D01*
X1241265Y1209227D02*
Y1212226D01*
X1207500Y1210726D02*
X1210500D01*
X1209000Y1209227D02*
Y1212226D01*
X1269500Y1210726D02*
X1272500D01*
X1271000Y1209227D02*
Y1212226D01*
X993500Y1210750D02*
X996500D01*
X995000Y1209250D02*
Y1212250D01*
X1025765Y1210750D02*
X1028765D01*
X1027265Y1209250D02*
Y1212250D01*
X1055500Y1210750D02*
X1058500D01*
X1057000Y1209250D02*
Y1212250D01*
X1055500Y1233024D02*
X1058500D01*
X1057000Y1231524D02*
Y1234523D01*
X1207500Y1233000D02*
X1210500D01*
X1209000Y1231500D02*
Y1234500D01*
X1239765Y1233000D02*
X1242765D01*
X1241265Y1231500D02*
Y1234500D01*
X1269500Y1233000D02*
X1272500D01*
X1271000Y1231500D02*
Y1234500D01*
X1179500Y1233000D02*
X1182500D01*
X1181000Y1231500D02*
Y1234500D01*
X1025765Y1233024D02*
X1028765D01*
X1027265Y1231524D02*
Y1234523D01*
X1329150Y1104650D02*
X1334150D01*
X1331650Y1102150D02*
Y1107150D01*
X1339940Y1184660D02*
X1342940D01*
X1341440Y1183160D02*
Y1186160D01*
X911250Y264000D02*
X914250D01*
X912750Y262500D02*
Y265500D01*
X897138Y269431D02*
X900138D01*
X898638Y267931D02*
Y270931D01*
X925069Y270138D02*
X928069D01*
X926569Y268638D02*
Y271638D01*
X891000Y283250D02*
X894000D01*
X892500Y281750D02*
Y284750D01*
X930500Y284250D02*
X933500D01*
X932000Y282750D02*
Y285750D01*
X896431Y297362D02*
X899431D01*
X897931Y295862D02*
Y298862D01*
X924362Y298069D02*
X927362D01*
X925862Y296569D02*
Y299569D01*
X910250Y303500D02*
X913250D01*
X911750Y302000D02*
Y305000D01*
X1348500Y701750D02*
X1351500D01*
X1350000Y700250D02*
Y703250D01*
X1393500Y701750D02*
X1396500D01*
X1395000Y700250D02*
Y703250D01*
X1438500Y701750D02*
X1441500D01*
X1440000Y700250D02*
Y703250D01*
X1370750Y603000D02*
X1373750D01*
X1372250Y601500D02*
Y604500D01*
X1415750Y603000D02*
X1418750D01*
X1417250Y601500D02*
Y604500D01*
X1460750Y603000D02*
X1463750D01*
X1462250Y601500D02*
Y604500D01*
X1753501Y1170000D02*
X1756500D01*
X1755000Y1168500D02*
Y1171500D01*
X1753501Y990000D02*
X1756500D01*
X1755000Y988500D02*
Y991500D01*
X1753501Y900000D02*
X1756500D01*
X1755000Y898500D02*
Y901500D01*
X1753501Y810000D02*
X1756500D01*
X1755000Y808500D02*
Y811500D01*
X1753501Y720000D02*
X1756500D01*
X1755000Y718500D02*
Y721500D01*
X1753501Y630000D02*
X1756500D01*
X1755000Y628500D02*
Y631500D01*
X1753501Y540000D02*
X1756500D01*
X1755000Y538500D02*
Y541500D01*
X1753501Y450000D02*
X1756500D01*
X1755000Y448500D02*
Y451500D01*
X1731000Y1125000D02*
X1734000D01*
X1732500Y1123500D02*
Y1126500D01*
X1708500Y1080000D02*
X1711500D01*
X1710000Y1078500D02*
Y1081500D01*
X1731000Y1035000D02*
X1734000D01*
X1732500Y1033500D02*
Y1036500D01*
X1708500Y990000D02*
X1711500D01*
X1710000Y988500D02*
Y991500D01*
X1731000Y945000D02*
X1734000D01*
X1732500Y943500D02*
Y946500D01*
X1708500Y900000D02*
X1711500D01*
X1710000Y898500D02*
Y901500D01*
X1731000Y855000D02*
X1734000D01*
X1732500Y853500D02*
Y856500D01*
X1708500Y810000D02*
X1711500D01*
X1710000Y808500D02*
Y811500D01*
X1731000Y765000D02*
X1734000D01*
X1732500Y763500D02*
Y766500D01*
X1708500Y720000D02*
X1711500D01*
X1710000Y718500D02*
Y721500D01*
X1731000Y675000D02*
X1734000D01*
X1732500Y673500D02*
Y676500D01*
X1708500Y630000D02*
X1711500D01*
X1710000Y628500D02*
Y631500D01*
X1731000Y585000D02*
X1734000D01*
X1732500Y583500D02*
Y586500D01*
X1708500Y540000D02*
X1711500D01*
X1710000Y538500D02*
Y541500D01*
X1731000Y495000D02*
X1734000D01*
X1732500Y493500D02*
Y496500D01*
X1708500Y450000D02*
X1711500D01*
X1710000Y448500D02*
Y451500D01*
X1731000Y405000D02*
X1734000D01*
X1732500Y403500D02*
Y406500D01*
X1708500Y360000D02*
X1711500D01*
X1710000Y358500D02*
Y361500D01*
X1731000Y315000D02*
X1734000D01*
X1732500Y313500D02*
Y316500D01*
X1708500Y270000D02*
X1711500D01*
X1710000Y268500D02*
Y271500D01*
X1663500Y720000D02*
X1666500D01*
X1665000Y718500D02*
Y721500D01*
X1686000Y585000D02*
X1689000D01*
X1687500Y583500D02*
Y586500D01*
X1663500Y540000D02*
X1666500D01*
X1665000Y538500D02*
Y541500D01*
X1686000Y495000D02*
X1689000D01*
X1687500Y493500D02*
Y496500D01*
X1663500Y450000D02*
X1666500D01*
X1665000Y448500D02*
Y451500D01*
X1686000Y405000D02*
X1689000D01*
X1687500Y403500D02*
Y406500D01*
X1663500Y360000D02*
X1666500D01*
X1665000Y358500D02*
Y361500D01*
X1686000Y315000D02*
X1689000D01*
X1687500Y313500D02*
Y316500D01*
X1663500Y270000D02*
X1666500D01*
X1665000Y268500D02*
Y271500D01*
X1618500Y1080000D02*
X1621500D01*
X1620000Y1078500D02*
Y1081500D01*
X1618500Y990000D02*
X1621500D01*
X1620000Y988500D02*
Y991500D01*
X1618500Y900000D02*
X1621500D01*
X1620000Y898500D02*
Y901500D01*
X1618500Y810000D02*
X1621500D01*
X1620000Y808500D02*
Y811500D01*
X1641000Y675000D02*
X1644000D01*
X1642500Y673500D02*
Y676500D01*
X1618500Y630000D02*
X1621500D01*
X1620000Y628500D02*
Y631500D01*
X1641000Y585000D02*
X1644000D01*
X1642500Y583500D02*
Y586500D01*
X1618500Y540000D02*
X1621500D01*
X1620000Y538500D02*
Y541500D01*
X1641000Y495000D02*
X1644000D01*
X1642500Y493500D02*
Y496500D01*
X1618500Y450000D02*
X1621500D01*
X1620000Y448500D02*
Y451500D01*
X1641000Y405000D02*
X1644000D01*
X1642500Y403500D02*
Y406500D01*
X1618500Y360000D02*
X1621500D01*
X1620000Y358500D02*
Y361500D01*
X1641000Y315000D02*
X1644000D01*
X1642500Y313500D02*
Y316500D01*
X1618500Y270000D02*
X1621500D01*
X1620000Y268500D02*
Y271500D01*
X1596000Y1215000D02*
X1599000D01*
X1597500Y1213500D02*
Y1216500D01*
X1596000Y1125000D02*
X1599000D01*
X1597500Y1123500D02*
Y1126500D01*
X1573500Y1080000D02*
X1576500D01*
X1575000Y1078500D02*
Y1081500D01*
X1596000Y1035000D02*
X1599000D01*
X1597500Y1033500D02*
Y1036500D01*
X1573500Y990000D02*
X1576500D01*
X1575000Y988500D02*
Y991500D01*
X1596000Y945000D02*
X1599000D01*
X1597500Y943500D02*
Y946500D01*
X1573500Y900000D02*
X1576500D01*
X1575000Y898500D02*
Y901500D01*
X1596000Y855000D02*
X1599000D01*
X1597500Y853500D02*
Y856500D01*
X1573500Y810000D02*
X1576500D01*
X1575000Y808500D02*
Y811500D01*
X1596000Y765000D02*
X1599000D01*
X1597500Y763500D02*
Y766500D01*
X1573500Y720000D02*
X1576500D01*
X1575000Y718500D02*
Y721500D01*
X1573500Y630000D02*
X1576500D01*
X1575000Y628500D02*
Y631500D01*
X1596000Y585000D02*
X1599000D01*
X1597500Y583500D02*
Y586500D01*
X1573500Y540000D02*
X1576500D01*
X1575000Y538500D02*
Y541500D01*
X1596000Y495000D02*
X1599000D01*
X1597500Y493500D02*
Y496500D01*
X1573500Y450000D02*
X1576500D01*
X1575000Y448500D02*
Y451500D01*
X1596000Y405000D02*
X1599000D01*
X1597500Y403500D02*
Y406500D01*
X1573500Y360000D02*
X1576500D01*
X1575000Y358500D02*
Y361500D01*
X1596000Y315000D02*
X1599000D01*
X1597500Y313500D02*
Y316500D01*
X1573500Y270000D02*
X1576500D01*
X1575000Y268500D02*
Y271500D01*
X1551000Y1215000D02*
X1554000D01*
X1552500Y1213500D02*
Y1216500D01*
X1551000Y1035000D02*
X1554000D01*
X1552500Y1033500D02*
Y1036500D01*
X1551000Y945000D02*
X1554000D01*
X1552500Y943500D02*
Y946500D01*
X1551000Y855000D02*
X1554000D01*
X1552500Y853500D02*
Y856500D01*
X1551000Y585000D02*
X1554000D01*
X1552500Y583500D02*
Y586500D01*
X1551000Y495000D02*
X1554000D01*
X1552500Y493500D02*
Y496500D01*
X1551000Y405000D02*
X1554000D01*
X1552500Y403500D02*
Y406500D01*
X1551000Y315000D02*
X1554000D01*
X1552500Y313500D02*
Y316500D01*
X1506000Y1215000D02*
X1509000D01*
X1507500Y1213500D02*
Y1216500D01*
X1506000Y1125000D02*
X1509000D01*
X1507500Y1123500D02*
Y1126500D01*
X1483500Y1080000D02*
X1486500D01*
X1485000Y1078500D02*
Y1081500D01*
X1506000Y1035000D02*
X1509000D01*
X1507500Y1033500D02*
Y1036500D01*
X1483500Y990000D02*
X1486500D01*
X1485000Y988500D02*
Y991500D01*
X1506000Y945000D02*
X1509000D01*
X1507500Y943500D02*
Y946500D01*
X1483500Y900000D02*
X1486500D01*
X1485000Y898500D02*
Y901500D01*
X1506000Y855000D02*
X1509000D01*
X1507500Y853500D02*
Y856500D01*
X1483500Y810000D02*
X1486500D01*
X1485000Y808500D02*
Y811500D01*
X1506000Y765000D02*
X1509000D01*
X1507500Y763500D02*
Y766500D01*
X1506000Y585000D02*
X1509000D01*
X1507500Y583500D02*
Y586500D01*
X1506000Y405000D02*
X1509000D01*
X1507500Y403500D02*
Y406500D01*
X1483500Y360000D02*
X1486500D01*
X1485000Y358500D02*
Y361500D01*
X1461000Y1215000D02*
X1464000D01*
X1462500Y1213500D02*
Y1216500D01*
X1461000Y1125000D02*
X1464000D01*
X1462500Y1123500D02*
Y1126500D01*
X1461000Y1035000D02*
X1464000D01*
X1462500Y1033500D02*
Y1036500D01*
X1438500Y990000D02*
X1441500D01*
X1440000Y988500D02*
Y991500D01*
X1461000Y945000D02*
X1464000D01*
X1462500Y943500D02*
Y946500D01*
X1438500Y900000D02*
X1441500D01*
X1440000Y898500D02*
Y901500D01*
X1461000Y855000D02*
X1464000D01*
X1462500Y853500D02*
Y856500D01*
X1438500Y810000D02*
X1441500D01*
X1440000Y808500D02*
Y811500D01*
X1461000Y675000D02*
X1464000D01*
X1462500Y673500D02*
Y676500D01*
X1438500Y630000D02*
X1441500D01*
X1440000Y628500D02*
Y631500D01*
X1438500Y540000D02*
X1441500D01*
X1440000Y538500D02*
Y541500D01*
X1438500Y450000D02*
X1441500D01*
X1440000Y448500D02*
Y451500D01*
X1461000Y405000D02*
X1464000D01*
X1462500Y403500D02*
Y406500D01*
X1438500Y270000D02*
X1441500D01*
X1440000Y268500D02*
Y271500D01*
X1416000Y765000D02*
X1419000D01*
X1417500Y763500D02*
Y766500D01*
X1416000Y675000D02*
X1419000D01*
X1417500Y673500D02*
Y676500D01*
X1393500Y630000D02*
X1396500D01*
X1395000Y628500D02*
Y631500D01*
X1393500Y450000D02*
X1396500D01*
X1395000Y448500D02*
Y451500D01*
X1416000Y405000D02*
X1419000D01*
X1417500Y403500D02*
Y406500D01*
X1393500Y360000D02*
X1396500D01*
X1395000Y358500D02*
Y361500D01*
X1416000Y315000D02*
X1419000D01*
X1417500Y313500D02*
Y316500D01*
X1393500Y270000D02*
X1396500D01*
X1395000Y268500D02*
Y271500D01*
X1371000Y675000D02*
X1374000D01*
X1372500Y673500D02*
Y676500D01*
X1348500Y630000D02*
X1351500D01*
X1350000Y628500D02*
Y631500D01*
X1348500Y450000D02*
X1351500D01*
X1350000Y448500D02*
Y451500D01*
X1371000Y405000D02*
X1374000D01*
X1372500Y403500D02*
Y406500D01*
X1303500Y720000D02*
X1306500D01*
X1305000Y718500D02*
Y721500D01*
X1326000Y585000D02*
X1329000D01*
X1327500Y583500D02*
Y586500D01*
X1326000Y405000D02*
X1329000D01*
X1327500Y403500D02*
Y406500D01*
X1326000Y315000D02*
X1329000D01*
X1327500Y313500D02*
Y316500D01*
X1303500Y270000D02*
X1306500D01*
X1305000Y268500D02*
Y271500D01*
X1258500Y450000D02*
X1261500D01*
X1260000Y448500D02*
Y451500D01*
X1258500Y270000D02*
X1261500D01*
X1260000Y268500D02*
Y271500D01*
X1236000Y495000D02*
X1239000D01*
X1237500Y493500D02*
Y496500D01*
X1168500Y540000D02*
X1171500D01*
X1170000Y538500D02*
Y541500D01*
X1123500Y540000D02*
X1126500D01*
X1125000Y538500D02*
Y541500D01*
X1078500Y810000D02*
X1081500D01*
X1080000Y808500D02*
Y811500D01*
X1078500Y540000D02*
X1081500D01*
X1080000Y538500D02*
Y541500D01*
X1033500Y720000D02*
X1036500D01*
X1035000Y718500D02*
Y721500D01*
X1056000Y675000D02*
X1059000D01*
X1057500Y673500D02*
Y676500D01*
X1033500Y630000D02*
X1036500D01*
X1035000Y628500D02*
Y631500D01*
X1056000Y585000D02*
X1059000D01*
X1057500Y583500D02*
Y586500D01*
X1011000Y495000D02*
X1014000D01*
X1012500Y493500D02*
Y496500D01*
X988500Y270000D02*
X991500D01*
X990000Y268500D02*
Y271500D01*
X943500Y810000D02*
X946500D01*
X945000Y808500D02*
Y811500D01*
X943500Y360000D02*
X946500D01*
X945000Y358500D02*
Y361500D01*
X943500Y270000D02*
X946500D01*
X945000Y268500D02*
Y271500D01*
X898500Y810000D02*
X901500D01*
X900000Y808500D02*
Y811500D01*
X1501500Y510250D02*
X1504500D01*
X1503000Y508750D02*
Y511750D01*
X1299625Y595742D02*
X1302625D01*
X1301125Y594242D02*
Y597242D01*
X1391000Y747500D02*
X1394000D01*
X1392500Y746000D02*
Y749000D01*
X1382883Y747132D02*
X1385883D01*
X1384383Y745632D02*
Y748632D01*
X1315500Y676250D02*
X1318500D01*
X1317000Y674750D02*
Y677750D01*
X1499500Y697000D02*
X1502500D01*
X1501000Y695500D02*
Y698500D01*
X1545500Y607250D02*
X1548500D01*
X1547000Y605750D02*
Y608750D01*
X1549500Y755750D02*
X1552500D01*
X1551000Y754250D02*
Y757250D01*
X1567250Y1115750D02*
X1570250D01*
X1568750Y1114250D02*
Y1117250D01*
X1567250Y1128000D02*
X1570250D01*
X1568750Y1126500D02*
Y1129500D01*
X1502000Y566500D02*
X1505000D01*
X1503500Y565000D02*
Y568000D01*
X1120500Y385250D02*
X1123500D01*
X1122000Y383750D02*
Y386750D01*
X1155000Y385250D02*
X1158000D01*
X1156500Y383750D02*
Y386750D01*
X1087424Y385250D02*
X1090424D01*
X1088924Y383750D02*
Y386750D01*
X1181750Y385250D02*
X1184750D01*
X1183250Y383750D02*
Y386750D01*
X1057500Y385250D02*
X1060500D01*
X1059000Y383750D02*
Y386750D01*
X1181750Y492000D02*
X1184750D01*
X1183250Y490500D02*
Y493500D01*
X1155000Y353609D02*
X1158000D01*
X1156500Y352109D02*
Y355109D01*
X1120500Y353609D02*
X1123500D01*
X1122000Y352109D02*
Y355109D01*
X1181750Y353609D02*
X1184750D01*
X1183250Y352109D02*
Y355109D01*
X1087424Y353609D02*
X1090424D01*
X1088924Y352109D02*
Y355109D01*
X1181750Y421750D02*
X1184750D01*
X1183250Y420250D02*
Y423250D01*
X1057500Y421750D02*
X1060500D01*
X1059000Y420250D02*
Y423250D01*
X1087424Y421750D02*
X1090424D01*
X1088924Y420250D02*
Y423250D01*
X1057500Y460000D02*
X1060500D01*
X1059000Y458500D02*
Y461500D01*
X1087424Y460000D02*
X1090424D01*
X1088924Y458500D02*
Y461500D01*
X1155000Y460000D02*
X1158000D01*
X1156500Y458500D02*
Y461500D01*
X1120500Y460000D02*
X1123500D01*
X1122000Y458500D02*
Y461500D01*
X1181750Y460000D02*
X1184750D01*
X1183250Y458500D02*
Y461500D01*
X1057500Y492000D02*
X1060500D01*
X1059000Y490500D02*
Y493500D01*
X1120500Y492000D02*
X1123500D01*
X1122000Y490500D02*
Y493500D01*
X1087424Y492000D02*
X1090424D01*
X1088924Y490500D02*
Y493500D01*
X1155000Y492000D02*
X1158000D01*
X1156500Y490500D02*
Y493500D01*
X1057500Y353609D02*
X1060500D01*
X1059000Y352109D02*
Y355109D01*
X1399500Y780500D02*
X1402500D01*
X1401000Y779000D02*
Y782000D01*
X1356750Y776500D02*
X1359750D01*
X1358250Y775000D02*
Y778000D01*
X1347750Y776500D02*
X1350750D01*
X1349250Y775000D02*
Y778000D01*
X1261000Y552667D02*
X1264000D01*
X1262500Y551167D02*
Y554167D01*
X1261000Y565833D02*
X1264000D01*
X1262500Y564333D02*
Y567333D01*
X1261000Y542000D02*
X1264000D01*
X1262500Y540500D02*
Y543500D01*
X1265532Y595742D02*
X1268532D01*
X1267032Y594242D02*
Y597242D01*
X1290250Y595742D02*
X1293250D01*
X1291750Y594242D02*
Y597242D01*
X1277000Y664000D02*
X1280000D01*
X1278500Y662500D02*
Y665500D01*
X1277000Y672250D02*
X1280000D01*
X1278500Y670750D02*
Y673750D01*
X1251000Y664000D02*
X1254000D01*
X1252500Y662500D02*
Y665500D01*
X1251000Y672250D02*
X1254000D01*
X1252500Y670750D02*
Y673750D01*
X1140500Y673500D02*
X1143500D01*
X1142000Y672000D02*
Y675000D01*
X1036750Y673500D02*
X1039750D01*
X1038250Y672000D02*
Y675000D01*
X1026000Y673500D02*
X1029000D01*
X1027500Y672000D02*
Y675000D01*
X1077750Y678500D02*
X1080750D01*
X1079250Y677000D02*
Y680000D01*
X1067750Y678500D02*
X1070750D01*
X1069250Y677000D02*
Y680000D01*
X1006750Y530750D02*
X1009750D01*
X1008250Y529250D02*
Y532250D01*
X1460750Y300750D02*
X1463750D01*
X1462250Y299250D02*
Y302250D01*
X1373853Y268000D02*
X1376853D01*
X1375353Y266500D02*
Y269500D01*
X1343500Y268000D02*
X1346500D01*
X1345000Y266500D02*
Y269500D01*
X1309000Y310000D02*
X1312000D01*
X1310500Y308500D02*
Y311500D01*
X1297500Y310000D02*
X1300500D01*
X1299000Y308500D02*
Y311500D01*
X1281000Y310000D02*
X1284000D01*
X1282500Y308500D02*
Y311500D01*
X1268000Y310000D02*
X1271000D01*
X1269500Y308500D02*
Y311500D01*
X1254500Y310000D02*
X1257500D01*
X1256000Y308500D02*
Y311500D01*
X1241250Y310000D02*
X1244250D01*
X1242750Y308500D02*
Y311500D01*
X1243000Y424250D02*
X1246000D01*
X1244500Y422750D02*
Y425750D01*
X1254250Y424250D02*
X1257250D01*
X1255750Y422750D02*
Y425750D01*
X1383750Y426000D02*
X1386750D01*
X1385250Y424500D02*
Y427500D01*
X1383750Y435000D02*
X1386750D01*
X1385250Y433500D02*
Y436500D01*
X1335750Y542583D02*
X1338750D01*
X1337250Y541083D02*
Y544083D01*
X1335750Y530250D02*
X1338750D01*
X1337250Y528750D02*
Y531750D01*
X1335750Y517917D02*
X1338750D01*
X1337250Y516417D02*
Y519417D01*
X1407500Y510250D02*
X1410500D01*
X1409000Y508750D02*
Y511750D01*
X1395000Y510250D02*
X1398000D01*
X1396500Y508750D02*
Y511750D01*
X1448250Y510250D02*
X1451250D01*
X1449750Y508750D02*
Y511750D01*
X1461500Y510250D02*
X1464500D01*
X1463000Y508750D02*
Y511750D01*
X1493000Y566750D02*
X1496000D01*
X1494500Y565250D02*
Y568250D01*
X1493000Y510250D02*
X1496000D01*
X1494500Y508750D02*
Y511750D01*
X1535250Y755750D02*
X1538250D01*
X1536750Y754250D02*
Y757250D01*
X1527750Y718000D02*
X1530750D01*
X1529250Y716500D02*
Y719500D01*
X1499750Y1199750D02*
X1502750D01*
X1501250Y1198250D02*
Y1201250D01*
X1016500Y530750D02*
X1019500D01*
X1018000Y529250D02*
Y532250D01*
X1527500Y709000D02*
X1530500D01*
X1529000Y707500D02*
Y710500D01*
X1154000Y662750D02*
X1157000D01*
X1155500Y661250D02*
Y664250D01*
X1154000Y673500D02*
X1157000D01*
X1155500Y672000D02*
Y675000D01*
X1399500Y790500D02*
X1402500D01*
X1401000Y789000D02*
Y792000D01*
X1275750Y501250D02*
X1278750D01*
X1277250Y499750D02*
Y502750D01*
X1368250Y487500D02*
X1371250D01*
X1369750Y486000D02*
Y489000D01*
X1261000Y576500D02*
X1264000D01*
X1262500Y575000D02*
Y578000D01*
X1255250Y595742D02*
X1258250D01*
X1256750Y594242D02*
Y597242D01*
X1358250Y268000D02*
X1361250D01*
X1359750Y266500D02*
Y269500D01*
X1460750Y312500D02*
X1463750D01*
X1462250Y311000D02*
Y314000D01*
X1335750Y554917D02*
X1338750D01*
X1337250Y553417D02*
Y556417D01*
X1767250Y284000D02*
X1770250D01*
X1768750Y282500D02*
Y285500D01*
X1761112Y297819D02*
X1764112D01*
X1762612Y296319D02*
Y299319D01*
X1747000Y303250D02*
X1750000D01*
X1748500Y301750D02*
Y304750D01*
X1733181Y297112D02*
X1736181D01*
X1734681Y295612D02*
Y298612D01*
X1727750Y283000D02*
X1730750D01*
X1729250Y281500D02*
Y284500D01*
X1733888Y269181D02*
X1736888D01*
X1735388Y267681D02*
Y270681D01*
X1748000Y263750D02*
X1751000D01*
X1749500Y262250D02*
Y265250D01*
X1761819Y269888D02*
X1764819D01*
X1763319Y268388D02*
Y271388D01*
X1767000Y1226750D02*
X1770000D01*
X1768500Y1225250D02*
Y1228250D01*
X1760862Y1240569D02*
X1763862D01*
X1762362Y1239069D02*
Y1242069D01*
X1746750Y1246000D02*
X1749750D01*
X1748250Y1244500D02*
Y1247500D01*
X1732931Y1239862D02*
X1735931D01*
X1734431Y1238362D02*
Y1241362D01*
X1727500Y1225750D02*
X1730500D01*
X1729000Y1224250D02*
Y1227250D01*
X1733638Y1211931D02*
X1736638D01*
X1735138Y1210431D02*
Y1213431D01*
X1747750Y1206500D02*
X1750750D01*
X1749250Y1205000D02*
Y1208000D01*
X1761569Y1212638D02*
X1764569D01*
X1763069Y1211138D02*
Y1214138D01*
M02*
