G04*
G04 #@! TF.GenerationSoftware,Altium Limited,Altium Designer,25.0.2 (28)*
G04*
G04 Layer_Color=32768*
%FSLAX44Y44*%
%MOMM*%
G71*
G04*
G04 #@! TF.SameCoordinates,CA714532-D515-40E6-9F5D-C0DFE5D80C05*
G04*
G04*
G04 #@! TF.FilePolarity,Positive*
G04*
G01*
G75*
%ADD15C,0.1000*%
%ADD20C,0.1524*%
%ADD91C,0.0500*%
G36*
X1186754Y906530D02*
Y915674D01*
X1094806D01*
Y906530D01*
X1088710D01*
Y832870D01*
X1094806D01*
Y823726D01*
X1186754D01*
Y832870D01*
X1192850D01*
Y906530D01*
X1186754D01*
D02*
G37*
D15*
X1402480Y653000D02*
X1412480D01*
X1407480Y648000D02*
Y658000D01*
X1292250Y316650D02*
X1315250D01*
X1292250Y360650D02*
X1315250D01*
X1292250Y316650D02*
Y360650D01*
X1315250Y316650D02*
Y360650D01*
X1303750Y333650D02*
Y343650D01*
X1298750Y338650D02*
X1308750D01*
D20*
X1094806Y823726D02*
X1186754D01*
X1094806D02*
Y832870D01*
Y906530D02*
Y915674D01*
X1186754D01*
Y906530D02*
Y915674D01*
Y823726D02*
Y832870D01*
X1192850D01*
X1088710D02*
X1094806D01*
X1088710D02*
Y906530D01*
X1094806D01*
X1186754D02*
X1192850D01*
Y832870D02*
Y906530D01*
D91*
X959610Y1245440D02*
X1065410D01*
Y1134940D02*
Y1245440D01*
X1057110Y1134940D02*
X1065410D01*
X1057110Y1083240D02*
Y1134940D01*
X967910Y1083240D02*
X1057110D01*
X967910D02*
Y1134940D01*
X959610D02*
X967910D01*
X959610D02*
Y1245440D01*
X1176780D02*
X1282580D01*
Y1134940D02*
Y1245440D01*
X1274280Y1134940D02*
X1282580D01*
X1274280Y1083240D02*
Y1134940D01*
X1185080Y1083240D02*
X1274280D01*
X1185080D02*
Y1134940D01*
X1176780D02*
X1185080D01*
X1176780D02*
Y1245440D01*
X1268350Y516149D02*
X1305650D01*
X1268350D02*
Y535849D01*
X1305650D01*
Y516149D02*
Y535849D01*
X1320480Y566000D02*
Y740000D01*
X1494480Y566000D02*
Y740000D01*
X1320480D02*
X1494480D01*
X1320480Y566000D02*
X1494480D01*
X1217250Y265650D02*
Y530650D01*
X1022250Y265650D02*
X1217250D01*
X1022250D02*
Y530650D01*
X1217250D01*
M02*
