G04*
G04 #@! TF.GenerationSoftware,Altium Limited,Altium Designer,25.0.2 (28)*
G04*
G04 Layer_Color=2752767*
%FSLAX44Y44*%
%MOMM*%
G71*
G04*
G04 #@! TF.SameCoordinates,CA714532-D515-40E6-9F5D-C0DFE5D80C05*
G04*
G04*
G04 #@! TF.FilePolarity,Positive*
G04*
G01*
G75*
%ADD18C,0.1270*%
%ADD19C,0.1016*%
%ADD92C,0.1693*%
D18*
X915170Y946420D02*
Y956580D01*
X925330D01*
Y946420D01*
X915170D01*
Y921020D02*
Y931180D01*
X925330D01*
Y921020D01*
X915170D01*
X1126810Y1208790D02*
Y1218950D01*
X1136970D01*
Y1208790D01*
X1126810D01*
X1101410D02*
Y1218950D01*
X1111570D01*
Y1208790D01*
X1101410D01*
X916670Y1036520D02*
Y1046680D01*
X926830D01*
Y1036520D01*
X916670D01*
Y1061920D02*
Y1072080D01*
X926830D01*
Y1061920D01*
X916670D01*
X1134500Y1064420D02*
X1137040Y1066960D01*
X1139580D01*
X1137040Y1069500D01*
X1139580Y1072040D01*
X1137040D01*
X1134500Y1074580D01*
X1131960Y1072040D01*
X1129420D01*
X1131960Y1069500D01*
X1129420Y1066960D01*
X1131960D01*
X1134500Y1064420D01*
Y1099420D02*
X1137040Y1101960D01*
X1139580D01*
X1137040Y1104500D01*
X1139580Y1107040D01*
X1137040D01*
X1134500Y1109580D01*
X1131960Y1107040D01*
X1129420D01*
X1131960Y1104500D01*
X1129420Y1101960D01*
X1131960D01*
X1134500Y1099420D01*
X919480Y631670D02*
Y641830D01*
X929640D01*
Y631670D01*
X919480D01*
Y657070D02*
Y667230D01*
X929640D01*
Y657070D01*
X919480D01*
X1132210Y410710D02*
Y408170D01*
X1137290D01*
Y410710D01*
X1139830D01*
Y415790D01*
X1137290D01*
Y418330D01*
X1132210D01*
Y415790D01*
X1129670D01*
Y410710D01*
X1132210D01*
X1146210D02*
Y408170D01*
X1151290D01*
Y410710D01*
X1153830D01*
Y415790D01*
X1151290D01*
Y418330D01*
X1146210D01*
Y415790D01*
X1143670D01*
Y410710D01*
X1146210D01*
X1118210D02*
Y408170D01*
X1123290D01*
Y410710D01*
X1125830D01*
Y415790D01*
X1123290D01*
Y418330D01*
X1118210D01*
Y415790D01*
X1115670D01*
Y410710D01*
X1118210D01*
X1146210Y424710D02*
Y422170D01*
X1151290D01*
Y424710D01*
X1153830D01*
Y429790D01*
X1151290D01*
Y432330D01*
X1146210D01*
Y429790D01*
X1143670D01*
Y424710D01*
X1146210D01*
X1132210D02*
Y422170D01*
X1137290D01*
Y424710D01*
X1139830D01*
Y429790D01*
X1137290D01*
Y432330D01*
X1132210D01*
Y429790D01*
X1129670D01*
Y424710D01*
X1132210D01*
X1118210D02*
Y422170D01*
X1123290D01*
Y424710D01*
X1125830D01*
Y429790D01*
X1123290D01*
Y432330D01*
X1118210D01*
Y429790D01*
X1115670D01*
Y424710D01*
X1118210D01*
X1139210Y403710D02*
Y401170D01*
X1144290D01*
Y403710D01*
X1146830D01*
Y408790D01*
X1144290D01*
Y411330D01*
X1139210D01*
Y408790D01*
X1136670D01*
Y403710D01*
X1139210D01*
X1125210D02*
Y401170D01*
X1130290D01*
Y403710D01*
X1132830D01*
Y408790D01*
X1130290D01*
Y411330D01*
X1125210D01*
Y408790D01*
X1122670D01*
Y403710D01*
X1125210D01*
X1139210Y417710D02*
Y415170D01*
X1144290D01*
Y417710D01*
X1146830D01*
Y422790D01*
X1144290D01*
Y425330D01*
X1139210D01*
Y422790D01*
X1136670D01*
Y417710D01*
X1139210D01*
X1125210D02*
Y415170D01*
X1130290D01*
Y417710D01*
X1132830D01*
Y422790D01*
X1130290D01*
Y425330D01*
X1125210D01*
Y422790D01*
X1122670D01*
Y417710D01*
X1125210D01*
X1139210Y431710D02*
Y429170D01*
X1144290D01*
Y431710D01*
X1146830D01*
Y436790D01*
X1144290D01*
Y439330D01*
X1139210D01*
Y436790D01*
X1136670D01*
Y431710D01*
X1139210D01*
X1125210D02*
Y429170D01*
X1130290D01*
Y431710D01*
X1132830D01*
Y436790D01*
X1130290D01*
Y439330D01*
X1125210D01*
Y436790D01*
X1122670D01*
Y431710D01*
X1125210D01*
X1445120Y1222920D02*
Y1233080D01*
X1455280D01*
Y1222920D01*
X1445120D01*
X1495920D02*
Y1233080D01*
X1506080D01*
Y1222920D01*
X1495920D01*
X1521320D02*
Y1233080D01*
X1531480D01*
Y1222920D01*
X1521320D01*
X1470520D02*
Y1233080D01*
X1480680D01*
Y1222920D01*
X1470520D01*
X1614470D02*
Y1233080D01*
X1624630D01*
Y1222920D01*
X1614470D01*
X1665270D02*
Y1233080D01*
X1675430D01*
Y1222920D01*
X1665270D01*
X1690670D02*
Y1233080D01*
X1700830D01*
Y1222920D01*
X1690670D01*
X1639870D02*
Y1233080D01*
X1650030D01*
Y1222920D01*
X1639870D01*
X916630Y411995D02*
Y422155D01*
X926790D01*
Y411995D01*
X916630D01*
Y361195D02*
Y371355D01*
X926790D01*
Y361195D01*
X916630D01*
Y335795D02*
Y345955D01*
X926790D01*
Y335795D01*
X916630D01*
Y386595D02*
Y396755D01*
X926790D01*
Y386595D01*
X916630D01*
X1504270Y275751D02*
X1509350Y280831D01*
X1514430Y275751D01*
X1509350Y270671D01*
X1504270Y275751D01*
X1529670D02*
X1534750Y280831D01*
X1539830Y275751D01*
X1534750Y270671D01*
X1529670Y275751D01*
X1555070D02*
X1560150Y280831D01*
X1565230Y275751D01*
X1560150Y270671D01*
X1555070Y275751D01*
X1478870D02*
X1483950Y280831D01*
X1489030Y275751D01*
X1483950Y270671D01*
X1478870Y275751D01*
X1754180Y1079961D02*
X1749100Y1090121D01*
X1759260D01*
X1754180Y1079961D01*
X1444180D02*
X1439100Y1090121D01*
X1449260D01*
X1444180Y1079961D01*
Y329961D02*
X1439100Y340121D01*
X1449260D01*
X1444180Y329961D01*
X1754180D02*
X1749100Y340121D01*
X1759260D01*
X1754180Y329961D01*
X919480Y808620D02*
Y818780D01*
X929640D01*
Y808620D01*
X919480D01*
Y757820D02*
Y767980D01*
X929640D01*
Y757820D01*
X919480D01*
Y732420D02*
Y742580D01*
X929640D01*
Y732420D01*
X919480D01*
Y783220D02*
Y793380D01*
X929640D01*
Y783220D01*
X919480D01*
X1743670Y1221170D02*
Y1231330D01*
X1753830D01*
Y1221170D01*
X1743670D01*
X1745702Y1223202D02*
Y1229298D01*
X1751798D01*
Y1223202D01*
X1745702D01*
X1743920Y279670D02*
Y289830D01*
X1754080D01*
Y279670D01*
X1743920D01*
X1745952Y281702D02*
Y287798D01*
X1752048D01*
Y281702D01*
X1745952D01*
X907670Y1220920D02*
Y1231080D01*
X917830D01*
Y1220920D01*
X907670D01*
X909702Y1222952D02*
Y1229048D01*
X915798D01*
Y1222952D01*
X909702D01*
X907170Y278670D02*
Y288830D01*
X917330D01*
Y278670D01*
X907170D01*
X909202Y280702D02*
Y286798D01*
X915298D01*
Y280702D01*
X909202D01*
X1384921Y1194921D02*
X1387461D01*
X1390001Y1197461D01*
X1392541Y1194921D01*
X1395081D01*
Y1197461D01*
X1392541Y1200001D01*
X1395081Y1202541D01*
Y1205081D01*
X1392541D01*
X1390001Y1202541D01*
X1387461Y1205081D01*
X1384921D01*
Y1202541D01*
X1387461Y1200001D01*
X1384921Y1197461D01*
Y1194921D01*
Y1154921D02*
X1387461D01*
X1390001Y1157461D01*
X1392541Y1154921D01*
X1395081D01*
Y1157461D01*
X1392541Y1160001D01*
X1395081Y1162541D01*
Y1165081D01*
X1392541D01*
X1390001Y1162541D01*
X1387461Y1165081D01*
X1384921D01*
Y1162541D01*
X1387461Y1160001D01*
X1384921Y1157461D01*
Y1154921D01*
Y1114921D02*
X1387461D01*
X1390001Y1117461D01*
X1392541Y1114921D01*
X1395081D01*
Y1117461D01*
X1392541Y1120001D01*
X1395081Y1122541D01*
Y1125081D01*
X1392541D01*
X1390001Y1122541D01*
X1387461Y1125081D01*
X1384921D01*
Y1122541D01*
X1387461Y1120001D01*
X1384921Y1117461D01*
Y1114921D01*
Y1074921D02*
X1387461D01*
X1390001Y1077461D01*
X1392541Y1074921D01*
X1395081D01*
Y1077461D01*
X1392541Y1080001D01*
X1395081Y1082541D01*
Y1085081D01*
X1392541D01*
X1390001Y1082541D01*
X1387461Y1085081D01*
X1384921D01*
Y1082541D01*
X1387461Y1080001D01*
X1384921Y1077461D01*
Y1074921D01*
Y1034921D02*
X1387461D01*
X1390001Y1037461D01*
X1392541Y1034921D01*
X1395081D01*
Y1037461D01*
X1392541Y1040001D01*
X1395081Y1042541D01*
Y1045081D01*
X1392541D01*
X1390001Y1042541D01*
X1387461Y1045081D01*
X1384921D01*
Y1042541D01*
X1387461Y1040001D01*
X1384921Y1037461D01*
Y1034921D01*
Y994921D02*
X1387461D01*
X1390001Y997460D01*
X1392541Y994921D01*
X1395081D01*
Y997460D01*
X1392541Y1000001D01*
X1395081Y1002541D01*
Y1005080D01*
X1392541D01*
X1390001Y1002541D01*
X1387461Y1005080D01*
X1384921D01*
Y1002541D01*
X1387461Y1000001D01*
X1384921Y997460D01*
Y994921D01*
X1374921Y974921D02*
X1377461D01*
X1380001Y977460D01*
X1382541Y974921D01*
X1385081D01*
Y977460D01*
X1382541Y980001D01*
X1385081Y982541D01*
Y985080D01*
X1382541D01*
X1380001Y982541D01*
X1377461Y985080D01*
X1374921D01*
Y982541D01*
X1377461Y980001D01*
X1374921Y977460D01*
Y974921D01*
X1384921Y954921D02*
X1387461D01*
X1390001Y957460D01*
X1392541Y954921D01*
X1395081D01*
Y957460D01*
X1392541Y960001D01*
X1395081Y962541D01*
Y965080D01*
X1392541D01*
X1390001Y962541D01*
X1387461Y965080D01*
X1384921D01*
Y962541D01*
X1387461Y960001D01*
X1384921Y957460D01*
Y954921D01*
X1374921Y934921D02*
X1377461D01*
X1380001Y937460D01*
X1382541Y934921D01*
X1385081D01*
Y937460D01*
X1382541Y940001D01*
X1385081Y942541D01*
Y945080D01*
X1382541D01*
X1380001Y942541D01*
X1377461Y945080D01*
X1374921D01*
Y942541D01*
X1377461Y940001D01*
X1374921Y937460D01*
Y934921D01*
X1384921Y914921D02*
X1387461D01*
X1390001Y917460D01*
X1392541Y914921D01*
X1395081D01*
Y917460D01*
X1392541Y920001D01*
X1395081Y922541D01*
Y925080D01*
X1392541D01*
X1390001Y922541D01*
X1387461Y925080D01*
X1384921D01*
Y922541D01*
X1387461Y920001D01*
X1384921Y917460D01*
Y914921D01*
X1374921Y894921D02*
X1377461D01*
X1380001Y897460D01*
X1382541Y894921D01*
X1385081D01*
Y897460D01*
X1382541Y900001D01*
X1385081Y902541D01*
Y905080D01*
X1382541D01*
X1380001Y902541D01*
X1377461Y905080D01*
X1374921D01*
Y902541D01*
X1377461Y900001D01*
X1374921Y897460D01*
Y894921D01*
X1364921Y994921D02*
X1367461D01*
X1370001Y997460D01*
X1372541Y994921D01*
X1375081D01*
Y997460D01*
X1372541Y1000001D01*
X1375081Y1002541D01*
Y1005080D01*
X1372541D01*
X1370001Y1002541D01*
X1367461Y1005080D01*
X1364921D01*
Y1002541D01*
X1367461Y1000001D01*
X1364921Y997460D01*
Y994921D01*
X1354921Y974921D02*
X1357461D01*
X1360001Y977460D01*
X1362541Y974921D01*
X1365081D01*
Y977460D01*
X1362541Y980001D01*
X1365081Y982541D01*
Y985080D01*
X1362541D01*
X1360001Y982541D01*
X1357461Y985080D01*
X1354921D01*
Y982541D01*
X1357461Y980001D01*
X1354921Y977460D01*
Y974921D01*
X1364921Y954921D02*
X1367461D01*
X1370001Y957460D01*
X1372541Y954921D01*
X1375081D01*
Y957460D01*
X1372541Y960001D01*
X1375081Y962541D01*
Y965080D01*
X1372541D01*
X1370001Y962541D01*
X1367461Y965080D01*
X1364921D01*
Y962541D01*
X1367461Y960001D01*
X1364921Y957460D01*
Y954921D01*
X1354921Y934921D02*
X1357461D01*
X1360001Y937460D01*
X1362541Y934921D01*
X1365081D01*
Y937460D01*
X1362541Y940001D01*
X1365081Y942541D01*
Y945080D01*
X1362541D01*
X1360001Y942541D01*
X1357461Y945080D01*
X1354921D01*
Y942541D01*
X1357461Y940001D01*
X1354921Y937460D01*
Y934921D01*
X1364921Y914921D02*
X1367461D01*
X1370001Y917460D01*
X1372541Y914921D01*
X1375081D01*
Y917460D01*
X1372541Y920001D01*
X1375081Y922541D01*
Y925080D01*
X1372541D01*
X1370001Y922541D01*
X1367461Y925080D01*
X1364921D01*
Y922541D01*
X1367461Y920001D01*
X1364921Y917460D01*
Y914921D01*
X1354921Y894921D02*
X1357461D01*
X1360001Y897460D01*
X1362541Y894921D01*
X1365081D01*
Y897460D01*
X1362541Y900001D01*
X1365081Y902541D01*
Y905080D01*
X1362541D01*
X1360001Y902541D01*
X1357461Y905080D01*
X1354921D01*
Y902541D01*
X1357461Y900001D01*
X1354921Y897460D01*
Y894921D01*
X1344921Y954921D02*
X1347461D01*
X1350001Y957460D01*
X1352541Y954921D01*
X1355081D01*
Y957460D01*
X1352541Y960001D01*
X1355081Y962541D01*
Y965080D01*
X1352541D01*
X1350001Y962541D01*
X1347461Y965080D01*
X1344921D01*
Y962541D01*
X1347461Y960001D01*
X1344921Y957460D01*
Y954921D01*
X1334921Y934921D02*
X1337461D01*
X1340001Y937460D01*
X1342541Y934921D01*
X1345081D01*
Y937460D01*
X1342541Y940001D01*
X1345081Y942541D01*
Y945080D01*
X1342541D01*
X1340001Y942541D01*
X1337461Y945080D01*
X1334921D01*
Y942541D01*
X1337461Y940001D01*
X1334921Y937460D01*
Y934921D01*
X1344921Y914921D02*
X1347461D01*
X1350001Y917460D01*
X1352541Y914921D01*
X1355081D01*
Y917460D01*
X1352541Y920001D01*
X1355081Y922541D01*
Y925080D01*
X1352541D01*
X1350001Y922541D01*
X1347461Y925080D01*
X1344921D01*
Y922541D01*
X1347461Y920001D01*
X1344921Y917460D01*
Y914921D01*
X1334921Y894921D02*
X1337461D01*
X1340001Y897460D01*
X1342541Y894921D01*
X1345081D01*
Y897460D01*
X1342541Y900001D01*
X1345081Y902541D01*
Y905080D01*
X1342541D01*
X1340001Y902541D01*
X1337461Y905080D01*
X1334921D01*
Y902541D01*
X1337461Y900001D01*
X1334921Y897460D01*
Y894921D01*
X1324921Y954921D02*
X1327461D01*
X1330001Y957460D01*
X1332541Y954921D01*
X1335081D01*
Y957460D01*
X1332541Y960001D01*
X1335081Y962541D01*
Y965080D01*
X1332541D01*
X1330001Y962541D01*
X1327461Y965080D01*
X1324921D01*
Y962541D01*
X1327461Y960001D01*
X1324921Y957460D01*
Y954921D01*
X1314921Y934921D02*
X1317461D01*
X1320001Y937460D01*
X1322541Y934921D01*
X1325081D01*
Y937460D01*
X1322541Y940001D01*
X1325081Y942541D01*
Y945080D01*
X1322541D01*
X1320001Y942541D01*
X1317461Y945080D01*
X1314921D01*
Y942541D01*
X1317461Y940001D01*
X1314921Y937460D01*
Y934921D01*
X1324921Y914921D02*
X1327461D01*
X1330001Y917460D01*
X1332541Y914921D01*
X1335081D01*
Y917460D01*
X1332541Y920001D01*
X1335081Y922541D01*
Y925080D01*
X1332541D01*
X1330001Y922541D01*
X1327461Y925080D01*
X1324921D01*
Y922541D01*
X1327461Y920001D01*
X1324921Y917460D01*
Y914921D01*
X1314921Y894921D02*
X1317461D01*
X1320001Y897460D01*
X1322541Y894921D01*
X1325081D01*
Y897460D01*
X1322541Y900001D01*
X1325081Y902541D01*
Y905080D01*
X1322541D01*
X1320001Y902541D01*
X1317461Y905080D01*
X1314921D01*
Y902541D01*
X1317461Y900001D01*
X1314921Y897460D01*
Y894921D01*
X1304921Y954921D02*
X1307461D01*
X1310001Y957460D01*
X1312541Y954921D01*
X1315081D01*
Y957460D01*
X1312541Y960001D01*
X1315081Y962541D01*
Y965080D01*
X1312541D01*
X1310001Y962541D01*
X1307461Y965080D01*
X1304921D01*
Y962541D01*
X1307461Y960001D01*
X1304921Y957460D01*
Y954921D01*
X1294921Y934921D02*
X1297461D01*
X1300001Y937460D01*
X1302541Y934921D01*
X1305081D01*
Y937460D01*
X1302541Y940001D01*
X1305081Y942541D01*
Y945080D01*
X1302541D01*
X1300001Y942541D01*
X1297461Y945080D01*
X1294921D01*
Y942541D01*
X1297461Y940001D01*
X1294921Y937460D01*
Y934921D01*
X1304921Y914921D02*
X1307461D01*
X1310001Y917460D01*
X1312541Y914921D01*
X1315081D01*
Y917460D01*
X1312541Y920001D01*
X1315081Y922541D01*
Y925080D01*
X1312541D01*
X1310001Y922541D01*
X1307461Y925080D01*
X1304921D01*
Y922541D01*
X1307461Y920001D01*
X1304921Y917460D01*
Y914921D01*
X1294921Y894921D02*
X1297461D01*
X1300001Y897460D01*
X1302541Y894921D01*
X1305081D01*
Y897460D01*
X1302541Y900001D01*
X1305081Y902541D01*
Y905080D01*
X1302541D01*
X1300001Y902541D01*
X1297461Y905080D01*
X1294921D01*
Y902541D01*
X1297461Y900001D01*
X1294921Y897460D01*
Y894921D01*
X1284921Y954921D02*
X1287461D01*
X1290001Y957460D01*
X1292541Y954921D01*
X1295081D01*
Y957460D01*
X1292541Y960001D01*
X1295081Y962541D01*
Y965080D01*
X1292541D01*
X1290001Y962541D01*
X1287461Y965080D01*
X1284921D01*
Y962541D01*
X1287461Y960001D01*
X1284921Y957460D01*
Y954921D01*
X1274921Y934921D02*
X1277461D01*
X1280001Y937460D01*
X1282541Y934921D01*
X1285081D01*
Y937460D01*
X1282541Y940001D01*
X1285081Y942541D01*
Y945080D01*
X1282541D01*
X1280001Y942541D01*
X1277461Y945080D01*
X1274921D01*
Y942541D01*
X1277461Y940001D01*
X1274921Y937460D01*
Y934921D01*
X1284921Y914921D02*
X1287461D01*
X1290001Y917460D01*
X1292541Y914921D01*
X1295081D01*
Y917460D01*
X1292541Y920001D01*
X1295081Y922541D01*
Y925080D01*
X1292541D01*
X1290001Y922541D01*
X1287461Y925080D01*
X1284921D01*
Y922541D01*
X1287461Y920001D01*
X1284921Y917460D01*
Y914921D01*
X1274921Y894921D02*
X1277461D01*
X1280001Y897460D01*
X1282541Y894921D01*
X1285081D01*
Y897460D01*
X1282541Y900001D01*
X1285081Y902541D01*
Y905080D01*
X1282541D01*
X1280001Y902541D01*
X1277461Y905080D01*
X1274921D01*
Y902541D01*
X1277461Y900001D01*
X1274921Y897460D01*
Y894921D01*
X1264921Y954921D02*
X1267461D01*
X1270001Y957460D01*
X1272541Y954921D01*
X1275081D01*
Y957460D01*
X1272541Y960001D01*
X1275081Y962541D01*
Y965080D01*
X1272541D01*
X1270001Y962541D01*
X1267461Y965080D01*
X1264921D01*
Y962541D01*
X1267461Y960001D01*
X1264921Y957460D01*
Y954921D01*
X1254921Y934921D02*
X1257461D01*
X1260001Y937460D01*
X1262541Y934921D01*
X1265081D01*
Y937460D01*
X1262541Y940001D01*
X1265081Y942541D01*
Y945080D01*
X1262541D01*
X1260001Y942541D01*
X1257461Y945080D01*
X1254921D01*
Y942541D01*
X1257461Y940001D01*
X1254921Y937460D01*
Y934921D01*
X1264921Y914921D02*
X1267461D01*
X1270001Y917460D01*
X1272541Y914921D01*
X1275081D01*
Y917460D01*
X1272541Y920001D01*
X1275081Y922541D01*
Y925080D01*
X1272541D01*
X1270001Y922541D01*
X1267461Y925080D01*
X1264921D01*
Y922541D01*
X1267461Y920001D01*
X1264921Y917460D01*
Y914921D01*
X1254921Y894921D02*
X1257461D01*
X1260001Y897460D01*
X1262541Y894921D01*
X1265081D01*
Y897460D01*
X1262541Y900001D01*
X1265081Y902541D01*
Y905080D01*
X1262541D01*
X1260001Y902541D01*
X1257461Y905080D01*
X1254921D01*
Y902541D01*
X1257461Y900001D01*
X1254921Y897460D01*
Y894921D01*
X1244921Y954921D02*
X1247461D01*
X1250001Y957460D01*
X1252541Y954921D01*
X1255081D01*
Y957460D01*
X1252541Y960001D01*
X1255081Y962541D01*
Y965080D01*
X1252541D01*
X1250001Y962541D01*
X1247461Y965080D01*
X1244921D01*
Y962541D01*
X1247461Y960001D01*
X1244921Y957460D01*
Y954921D01*
X1234921Y934921D02*
X1237461D01*
X1240001Y937460D01*
X1242541Y934921D01*
X1245081D01*
Y937460D01*
X1242541Y940001D01*
X1245081Y942541D01*
Y945080D01*
X1242541D01*
X1240001Y942541D01*
X1237461Y945080D01*
X1234921D01*
Y942541D01*
X1237461Y940001D01*
X1234921Y937460D01*
Y934921D01*
X1244921Y914921D02*
X1247461D01*
X1250001Y917460D01*
X1252541Y914921D01*
X1255081D01*
Y917460D01*
X1252541Y920001D01*
X1255081Y922541D01*
Y925080D01*
X1252541D01*
X1250001Y922541D01*
X1247461Y925080D01*
X1244921D01*
Y922541D01*
X1247461Y920001D01*
X1244921Y917460D01*
Y914921D01*
X1234921Y894921D02*
X1237461D01*
X1240001Y897460D01*
X1242541Y894921D01*
X1245081D01*
Y897460D01*
X1242541Y900001D01*
X1245081Y902541D01*
Y905080D01*
X1242541D01*
X1240001Y902541D01*
X1237461Y905080D01*
X1234921D01*
Y902541D01*
X1237461Y900001D01*
X1234921Y897460D01*
Y894921D01*
X1224921Y954921D02*
X1227461D01*
X1230001Y957460D01*
X1232541Y954921D01*
X1235081D01*
Y957460D01*
X1232541Y960001D01*
X1235081Y962541D01*
Y965080D01*
X1232541D01*
X1230001Y962541D01*
X1227461Y965080D01*
X1224921D01*
Y962541D01*
X1227461Y960001D01*
X1224921Y957460D01*
Y954921D01*
Y914921D02*
X1227461D01*
X1230001Y917460D01*
X1232541Y914921D01*
X1235081D01*
Y917460D01*
X1232541Y920001D01*
X1235081Y922541D01*
Y925080D01*
X1232541D01*
X1230001Y922541D01*
X1227461Y925080D01*
X1224921D01*
Y922541D01*
X1227461Y920001D01*
X1224921Y917460D01*
Y914921D01*
X1214921Y894921D02*
X1217461D01*
X1220001Y897460D01*
X1222541Y894921D01*
X1225081D01*
Y897460D01*
X1222541Y900001D01*
X1225081Y902541D01*
Y905080D01*
X1222541D01*
X1220001Y902541D01*
X1217461Y905080D01*
X1214921D01*
Y902541D01*
X1217461Y900001D01*
X1214921Y897460D01*
Y894921D01*
X1194921Y934921D02*
X1197461D01*
X1200001Y937460D01*
X1202541Y934921D01*
X1205081D01*
Y937460D01*
X1202541Y940001D01*
X1205081Y942541D01*
Y945080D01*
X1202541D01*
X1200001Y942541D01*
X1197461Y945080D01*
X1194921D01*
Y942541D01*
X1197461Y940001D01*
X1194921Y937460D01*
Y934921D01*
X1184921Y914921D02*
X1187461D01*
X1190001Y917460D01*
X1192541Y914921D01*
X1195081D01*
Y917460D01*
X1192541Y920001D01*
X1195081Y922541D01*
Y925080D01*
X1192541D01*
X1190001Y922541D01*
X1187461Y925080D01*
X1184921D01*
Y922541D01*
X1187461Y920001D01*
X1184921Y917460D01*
Y914921D01*
X1164921Y954921D02*
X1167461D01*
X1170001Y957460D01*
X1172541Y954921D01*
X1175081D01*
Y957460D01*
X1172541Y960001D01*
X1175081Y962541D01*
Y965080D01*
X1172541D01*
X1170001Y962541D01*
X1167461Y965080D01*
X1164921D01*
Y962541D01*
X1167461Y960001D01*
X1164921Y957460D01*
Y954921D01*
X1022920Y956170D02*
X1025460D01*
X1028000Y958710D01*
X1030540Y956170D01*
X1033080D01*
Y958710D01*
X1030540Y961250D01*
X1033080Y963790D01*
Y966330D01*
X1030540D01*
X1028000Y963790D01*
X1025460Y966330D01*
X1022920D01*
Y963790D01*
X1025460Y961250D01*
X1022920Y958710D01*
Y956170D01*
X1032670D02*
X1035210D01*
X1037750Y958710D01*
X1040290Y956170D01*
X1042830D01*
Y958710D01*
X1040290Y961250D01*
X1042830Y963790D01*
Y966330D01*
X1040290D01*
X1037750Y963790D01*
X1035210Y966330D01*
X1032670D01*
Y963790D01*
X1035210Y961250D01*
X1032670Y958710D01*
Y956170D01*
X1052670Y952920D02*
X1055210D01*
X1057750Y955460D01*
X1060290Y952920D01*
X1062830D01*
Y955460D01*
X1060290Y958000D01*
X1062830Y960540D01*
Y963080D01*
X1060290D01*
X1057750Y960540D01*
X1055210Y963080D01*
X1052670D01*
Y960540D01*
X1055210Y958000D01*
X1052670Y955460D01*
Y952920D01*
Y961920D02*
X1055210D01*
X1057750Y964460D01*
X1060290Y961920D01*
X1062830D01*
Y964460D01*
X1060290Y967000D01*
X1062830Y969540D01*
Y972080D01*
X1060290D01*
X1057750Y969540D01*
X1055210Y972080D01*
X1052670D01*
Y969540D01*
X1055210Y967000D01*
X1052670Y964460D01*
Y961920D01*
X887920Y1220420D02*
X890460D01*
X893000Y1222960D01*
X895540Y1220420D01*
X898080D01*
Y1222960D01*
X895540Y1225500D01*
X898080Y1228040D01*
Y1230580D01*
X895540D01*
X893000Y1228040D01*
X890460Y1230580D01*
X887920D01*
Y1228040D01*
X890460Y1225500D01*
X887920Y1222960D01*
Y1220420D01*
X893351Y1234532D02*
X895891D01*
X898431Y1237072D01*
X900971Y1234532D01*
X903511D01*
Y1237072D01*
X900971Y1239612D01*
X903511Y1242152D01*
Y1244692D01*
X900971D01*
X898431Y1242152D01*
X895891Y1244692D01*
X893351D01*
Y1242152D01*
X895891Y1239612D01*
X893351Y1237072D01*
Y1234532D01*
X894058Y1206601D02*
X896598D01*
X899138Y1209141D01*
X901678Y1206601D01*
X904218D01*
Y1209141D01*
X901678Y1211681D01*
X904218Y1214221D01*
Y1216761D01*
X901678D01*
X899138Y1214221D01*
X896598Y1216761D01*
X894058D01*
Y1214221D01*
X896598Y1211681D01*
X894058Y1209141D01*
Y1206601D01*
X907170Y1240670D02*
X909710D01*
X912250Y1243210D01*
X914790Y1240670D01*
X917330D01*
Y1243210D01*
X914790Y1245750D01*
X917330Y1248290D01*
Y1250830D01*
X914790D01*
X912250Y1248290D01*
X909710Y1250830D01*
X907170D01*
Y1248290D01*
X909710Y1245750D01*
X907170Y1243210D01*
Y1240670D01*
X989920Y1184920D02*
X992460D01*
X995000Y1187460D01*
X997540Y1184920D01*
X1000080D01*
Y1187460D01*
X997540Y1190000D01*
X1000080Y1192540D01*
Y1195080D01*
X997540D01*
X995000Y1192540D01*
X992460Y1195080D01*
X989920D01*
Y1192540D01*
X992460Y1190000D01*
X989920Y1187460D01*
Y1184920D01*
X908170Y1201170D02*
X910710D01*
X913250Y1203710D01*
X915790Y1201170D01*
X918330D01*
Y1203710D01*
X915790Y1206250D01*
X918330Y1208790D01*
Y1211330D01*
X915790D01*
X913250Y1208790D01*
X910710Y1211330D01*
X908170D01*
Y1208790D01*
X910710Y1206250D01*
X908170Y1203710D01*
Y1201170D01*
X989920Y1227943D02*
X992460D01*
X995000Y1230483D01*
X997540Y1227943D01*
X1000080D01*
Y1230483D01*
X997540Y1233024D01*
X1000080Y1235564D01*
Y1238103D01*
X997540D01*
X995000Y1235564D01*
X992460Y1238103D01*
X989920D01*
Y1235564D01*
X992460Y1233024D01*
X989920Y1230483D01*
Y1227943D01*
X921282Y1235239D02*
X923822D01*
X926362Y1237779D01*
X928902Y1235239D01*
X931442D01*
Y1237779D01*
X928902Y1240319D01*
X931442Y1242859D01*
Y1245399D01*
X928902D01*
X926362Y1242859D01*
X923822Y1245399D01*
X921282D01*
Y1242859D01*
X923822Y1240319D01*
X921282Y1237779D01*
Y1235239D01*
X921989Y1207308D02*
X924529D01*
X927069Y1209848D01*
X929609Y1207308D01*
X932149D01*
Y1209848D01*
X929609Y1212388D01*
X932149Y1214928D01*
Y1217468D01*
X929609D01*
X927069Y1214928D01*
X924529Y1217468D01*
X921989D01*
Y1214928D01*
X924529Y1212388D01*
X921989Y1209848D01*
Y1207308D01*
X927420Y1221420D02*
X929960D01*
X932500Y1223960D01*
X935040Y1221420D01*
X937580D01*
Y1223960D01*
X935040Y1226500D01*
X937580Y1229040D01*
Y1231580D01*
X935040D01*
X932500Y1229040D01*
X929960Y1231580D01*
X927420D01*
Y1229040D01*
X929960Y1226500D01*
X927420Y1223960D01*
Y1221420D01*
X961920Y1161420D02*
X964460D01*
X967000Y1163960D01*
X969540Y1161420D01*
X972080D01*
Y1163960D01*
X969540Y1166500D01*
X972080Y1169040D01*
Y1171580D01*
X969540D01*
X967000Y1169040D01*
X964460Y1171580D01*
X961920D01*
Y1169040D01*
X964460Y1166500D01*
X961920Y1163960D01*
Y1161420D01*
Y1205670D02*
X964460D01*
X967000Y1208210D01*
X969540Y1205670D01*
X972080D01*
Y1208210D01*
X969540Y1210750D01*
X972080Y1213290D01*
Y1215830D01*
X969540D01*
X967000Y1213290D01*
X964460Y1215830D01*
X961920D01*
Y1213290D01*
X964460Y1210750D01*
X961920Y1208210D01*
Y1205670D01*
Y1184920D02*
X964460D01*
X967000Y1187460D01*
X969540Y1184920D01*
X972080D01*
Y1187460D01*
X969540Y1190000D01*
X972080Y1192540D01*
Y1195080D01*
X969540D01*
X967000Y1192540D01*
X964460Y1195080D01*
X961920D01*
Y1192540D01*
X964460Y1190000D01*
X961920Y1187460D01*
Y1184920D01*
Y1227943D02*
X964460D01*
X967000Y1230483D01*
X969540Y1227943D01*
X972080D01*
Y1230483D01*
X969540Y1233024D01*
X972080Y1235564D01*
Y1238103D01*
X969540D01*
X967000Y1235564D01*
X964460Y1238103D01*
X961920D01*
Y1235564D01*
X964460Y1233024D01*
X961920Y1230483D01*
Y1227943D01*
X1265920Y1161396D02*
X1268460D01*
X1271000Y1163936D01*
X1273540Y1161396D01*
X1276080D01*
Y1163936D01*
X1273540Y1166477D01*
X1276080Y1169016D01*
Y1171556D01*
X1273540D01*
X1271000Y1169016D01*
X1268460Y1171556D01*
X1265920D01*
Y1169016D01*
X1268460Y1166477D01*
X1265920Y1163936D01*
Y1161396D01*
X1051920Y1184920D02*
X1054460D01*
X1057000Y1187460D01*
X1059540Y1184920D01*
X1062080D01*
Y1187460D01*
X1059540Y1190000D01*
X1062080Y1192540D01*
Y1195080D01*
X1059540D01*
X1057000Y1192540D01*
X1054460Y1195080D01*
X1051920D01*
Y1192540D01*
X1054460Y1190000D01*
X1051920Y1187460D01*
Y1184920D01*
X1175920Y1161396D02*
X1178460D01*
X1181000Y1163936D01*
X1183540Y1161396D01*
X1186080D01*
Y1163936D01*
X1183540Y1166477D01*
X1186080Y1169016D01*
Y1171556D01*
X1183540D01*
X1181000Y1169016D01*
X1178460Y1171556D01*
X1175920D01*
Y1169016D01*
X1178460Y1166477D01*
X1175920Y1163936D01*
Y1161396D01*
X1236185D02*
X1238725D01*
X1241265Y1163936D01*
X1243805Y1161396D01*
X1246345D01*
Y1163936D01*
X1243805Y1166477D01*
X1246345Y1169016D01*
Y1171556D01*
X1243805D01*
X1241265Y1169016D01*
X1238725Y1171556D01*
X1236185D01*
Y1169016D01*
X1238725Y1166477D01*
X1236185Y1163936D01*
Y1161396D01*
X1203920D02*
X1206460D01*
X1209000Y1163936D01*
X1211540Y1161396D01*
X1214080D01*
Y1163936D01*
X1211540Y1166477D01*
X1214080Y1169016D01*
Y1171556D01*
X1211540D01*
X1209000Y1169016D01*
X1206460Y1171556D01*
X1203920D01*
Y1169016D01*
X1206460Y1166477D01*
X1203920Y1163936D01*
Y1161396D01*
X989920Y1161420D02*
X992460D01*
X995000Y1163960D01*
X997540Y1161420D01*
X1000080D01*
Y1163960D01*
X997540Y1166500D01*
X1000080Y1169040D01*
Y1171580D01*
X997540D01*
X995000Y1169040D01*
X992460Y1171580D01*
X989920D01*
Y1169040D01*
X992460Y1166500D01*
X989920Y1163960D01*
Y1161420D01*
X1022185D02*
X1024725D01*
X1027265Y1163960D01*
X1029805Y1161420D01*
X1032345D01*
Y1163960D01*
X1029805Y1166500D01*
X1032345Y1169040D01*
Y1171580D01*
X1029805D01*
X1027265Y1169040D01*
X1024725Y1171580D01*
X1022185D01*
Y1169040D01*
X1024725Y1166500D01*
X1022185Y1163960D01*
Y1161420D01*
X1051920D02*
X1054460D01*
X1057000Y1163960D01*
X1059540Y1161420D01*
X1062080D01*
Y1163960D01*
X1059540Y1166500D01*
X1062080Y1169040D01*
Y1171580D01*
X1059540D01*
X1057000Y1169040D01*
X1054460Y1171580D01*
X1051920D01*
Y1169040D01*
X1054460Y1166500D01*
X1051920Y1163960D01*
Y1161420D01*
X1236185Y1184896D02*
X1238725D01*
X1241265Y1187437D01*
X1243805Y1184896D01*
X1246345D01*
Y1187437D01*
X1243805Y1189977D01*
X1246345Y1192516D01*
Y1195057D01*
X1243805D01*
X1241265Y1192516D01*
X1238725Y1195057D01*
X1236185D01*
Y1192516D01*
X1238725Y1189977D01*
X1236185Y1187437D01*
Y1184896D01*
X1203920D02*
X1206460D01*
X1209000Y1187437D01*
X1211540Y1184896D01*
X1214080D01*
Y1187437D01*
X1211540Y1189977D01*
X1214080Y1192516D01*
Y1195057D01*
X1211540D01*
X1209000Y1192516D01*
X1206460Y1195057D01*
X1203920D01*
Y1192516D01*
X1206460Y1189977D01*
X1203920Y1187437D01*
Y1184896D01*
X1175920D02*
X1178460D01*
X1181000Y1187437D01*
X1183540Y1184896D01*
X1186080D01*
Y1187437D01*
X1183540Y1189977D01*
X1186080Y1192516D01*
Y1195057D01*
X1183540D01*
X1181000Y1192516D01*
X1178460Y1195057D01*
X1175920D01*
Y1192516D01*
X1178460Y1189977D01*
X1175920Y1187437D01*
Y1184896D01*
X1265920D02*
X1268460D01*
X1271000Y1187437D01*
X1273540Y1184896D01*
X1276080D01*
Y1187437D01*
X1273540Y1189977D01*
X1276080Y1192516D01*
Y1195057D01*
X1273540D01*
X1271000Y1192516D01*
X1268460Y1195057D01*
X1265920D01*
Y1192516D01*
X1268460Y1189977D01*
X1265920Y1187437D01*
Y1184896D01*
X1022185Y1184920D02*
X1024725D01*
X1027265Y1187460D01*
X1029805Y1184920D01*
X1032345D01*
Y1187460D01*
X1029805Y1190000D01*
X1032345Y1192540D01*
Y1195080D01*
X1029805D01*
X1027265Y1192540D01*
X1024725Y1195080D01*
X1022185D01*
Y1192540D01*
X1024725Y1190000D01*
X1022185Y1187460D01*
Y1184920D01*
X1175920Y1205647D02*
X1178460D01*
X1181000Y1208186D01*
X1183540Y1205647D01*
X1186080D01*
Y1208186D01*
X1183540Y1210726D01*
X1186080Y1213267D01*
Y1215807D01*
X1183540D01*
X1181000Y1213267D01*
X1178460Y1215807D01*
X1175920D01*
Y1213267D01*
X1178460Y1210726D01*
X1175920Y1208186D01*
Y1205647D01*
X1236185D02*
X1238725D01*
X1241265Y1208186D01*
X1243805Y1205647D01*
X1246345D01*
Y1208186D01*
X1243805Y1210726D01*
X1246345Y1213267D01*
Y1215807D01*
X1243805D01*
X1241265Y1213267D01*
X1238725Y1215807D01*
X1236185D01*
Y1213267D01*
X1238725Y1210726D01*
X1236185Y1208186D01*
Y1205647D01*
X1203920D02*
X1206460D01*
X1209000Y1208186D01*
X1211540Y1205647D01*
X1214080D01*
Y1208186D01*
X1211540Y1210726D01*
X1214080Y1213267D01*
Y1215807D01*
X1211540D01*
X1209000Y1213267D01*
X1206460Y1215807D01*
X1203920D01*
Y1213267D01*
X1206460Y1210726D01*
X1203920Y1208186D01*
Y1205647D01*
X1265920D02*
X1268460D01*
X1271000Y1208186D01*
X1273540Y1205647D01*
X1276080D01*
Y1208186D01*
X1273540Y1210726D01*
X1276080Y1213267D01*
Y1215807D01*
X1273540D01*
X1271000Y1213267D01*
X1268460Y1215807D01*
X1265920D01*
Y1213267D01*
X1268460Y1210726D01*
X1265920Y1208186D01*
Y1205647D01*
X989920Y1205670D02*
X992460D01*
X995000Y1208210D01*
X997540Y1205670D01*
X1000080D01*
Y1208210D01*
X997540Y1210750D01*
X1000080Y1213290D01*
Y1215830D01*
X997540D01*
X995000Y1213290D01*
X992460Y1215830D01*
X989920D01*
Y1213290D01*
X992460Y1210750D01*
X989920Y1208210D01*
Y1205670D01*
X1022185D02*
X1024725D01*
X1027265Y1208210D01*
X1029805Y1205670D01*
X1032345D01*
Y1208210D01*
X1029805Y1210750D01*
X1032345Y1213290D01*
Y1215830D01*
X1029805D01*
X1027265Y1213290D01*
X1024725Y1215830D01*
X1022185D01*
Y1213290D01*
X1024725Y1210750D01*
X1022185Y1208210D01*
Y1205670D01*
X1051920D02*
X1054460D01*
X1057000Y1208210D01*
X1059540Y1205670D01*
X1062080D01*
Y1208210D01*
X1059540Y1210750D01*
X1062080Y1213290D01*
Y1215830D01*
X1059540D01*
X1057000Y1213290D01*
X1054460Y1215830D01*
X1051920D01*
Y1213290D01*
X1054460Y1210750D01*
X1051920Y1208210D01*
Y1205670D01*
Y1227943D02*
X1054460D01*
X1057000Y1230483D01*
X1059540Y1227943D01*
X1062080D01*
Y1230483D01*
X1059540Y1233024D01*
X1062080Y1235564D01*
Y1238103D01*
X1059540D01*
X1057000Y1235564D01*
X1054460Y1238103D01*
X1051920D01*
Y1235564D01*
X1054460Y1233024D01*
X1051920Y1230483D01*
Y1227943D01*
X1203920Y1227920D02*
X1206460D01*
X1209000Y1230460D01*
X1211540Y1227920D01*
X1214080D01*
Y1230460D01*
X1211540Y1233000D01*
X1214080Y1235540D01*
Y1238080D01*
X1211540D01*
X1209000Y1235540D01*
X1206460Y1238080D01*
X1203920D01*
Y1235540D01*
X1206460Y1233000D01*
X1203920Y1230460D01*
Y1227920D01*
X1236185D02*
X1238725D01*
X1241265Y1230460D01*
X1243805Y1227920D01*
X1246345D01*
Y1230460D01*
X1243805Y1233000D01*
X1246345Y1235540D01*
Y1238080D01*
X1243805D01*
X1241265Y1235540D01*
X1238725Y1238080D01*
X1236185D01*
Y1235540D01*
X1238725Y1233000D01*
X1236185Y1230460D01*
Y1227920D01*
X1265920D02*
X1268460D01*
X1271000Y1230460D01*
X1273540Y1227920D01*
X1276080D01*
Y1230460D01*
X1273540Y1233000D01*
X1276080Y1235540D01*
Y1238080D01*
X1273540D01*
X1271000Y1235540D01*
X1268460Y1238080D01*
X1265920D01*
Y1235540D01*
X1268460Y1233000D01*
X1265920Y1230460D01*
Y1227920D01*
X1175920D02*
X1178460D01*
X1181000Y1230460D01*
X1183540Y1227920D01*
X1186080D01*
Y1230460D01*
X1183540Y1233000D01*
X1186080Y1235540D01*
Y1238080D01*
X1183540D01*
X1181000Y1235540D01*
X1178460Y1238080D01*
X1175920D01*
Y1235540D01*
X1178460Y1233000D01*
X1175920Y1230460D01*
Y1227920D01*
X1022185Y1227943D02*
X1024725D01*
X1027265Y1230483D01*
X1029805Y1227943D01*
X1032345D01*
Y1230483D01*
X1029805Y1233024D01*
X1032345Y1235564D01*
Y1238103D01*
X1029805D01*
X1027265Y1235564D01*
X1024725Y1238103D01*
X1022185D01*
Y1235564D01*
X1024725Y1233024D01*
X1022185Y1230483D01*
Y1227943D01*
X1336360Y1179580D02*
X1338900D01*
X1341440Y1182120D01*
X1343980Y1179580D01*
X1346520D01*
Y1182120D01*
X1343980Y1184660D01*
X1346520Y1187200D01*
Y1189740D01*
X1343980D01*
X1341440Y1187200D01*
X1338900Y1189740D01*
X1336360D01*
Y1187200D01*
X1338900Y1184660D01*
X1336360Y1182120D01*
Y1179580D01*
X907670Y258920D02*
X910210D01*
X912750Y261460D01*
X915290Y258920D01*
X917830D01*
Y261460D01*
X915290Y264000D01*
X917830Y266540D01*
Y269080D01*
X915290D01*
X912750Y266540D01*
X910210Y269080D01*
X907670D01*
Y266540D01*
X910210Y264000D01*
X907670Y261460D01*
Y258920D01*
X893558Y264351D02*
X896098D01*
X898638Y266891D01*
X901178Y264351D01*
X903718D01*
Y266891D01*
X901178Y269431D01*
X903718Y271971D01*
Y274511D01*
X901178D01*
X898638Y271971D01*
X896098Y274511D01*
X893558D01*
Y271971D01*
X896098Y269431D01*
X893558Y266891D01*
Y264351D01*
X921489Y265058D02*
X924029D01*
X926569Y267598D01*
X929109Y265058D01*
X931649D01*
Y267598D01*
X929109Y270138D01*
X931649Y272678D01*
Y275218D01*
X929109D01*
X926569Y272678D01*
X924029Y275218D01*
X921489D01*
Y272678D01*
X924029Y270138D01*
X921489Y267598D01*
Y265058D01*
X887420Y278170D02*
X889960D01*
X892500Y280710D01*
X895040Y278170D01*
X897580D01*
Y280710D01*
X895040Y283250D01*
X897580Y285790D01*
Y288330D01*
X895040D01*
X892500Y285790D01*
X889960Y288330D01*
X887420D01*
Y285790D01*
X889960Y283250D01*
X887420Y280710D01*
Y278170D01*
X926920Y279170D02*
X929460D01*
X932000Y281710D01*
X934540Y279170D01*
X937080D01*
Y281710D01*
X934540Y284250D01*
X937080Y286790D01*
Y289330D01*
X934540D01*
X932000Y286790D01*
X929460Y289330D01*
X926920D01*
Y286790D01*
X929460Y284250D01*
X926920Y281710D01*
Y279170D01*
X892851Y292282D02*
X895391D01*
X897931Y294822D01*
X900471Y292282D01*
X903011D01*
Y294822D01*
X900471Y297362D01*
X903011Y299902D01*
Y302442D01*
X900471D01*
X897931Y299902D01*
X895391Y302442D01*
X892851D01*
Y299902D01*
X895391Y297362D01*
X892851Y294822D01*
Y292282D01*
X920782Y292989D02*
X923322D01*
X925862Y295529D01*
X928402Y292989D01*
X930942D01*
Y295529D01*
X928402Y298069D01*
X930942Y300609D01*
Y303149D01*
X928402D01*
X925862Y300609D01*
X923322Y303149D01*
X920782D01*
Y300609D01*
X923322Y298069D01*
X920782Y295529D01*
Y292989D01*
X906670Y298420D02*
X909210D01*
X911750Y300960D01*
X914290Y298420D01*
X916830D01*
Y300960D01*
X914290Y303500D01*
X916830Y306040D01*
Y308580D01*
X914290D01*
X911750Y306040D01*
X909210Y308580D01*
X906670D01*
Y306040D01*
X909210Y303500D01*
X906670Y300960D01*
Y298420D01*
X1344920Y696670D02*
X1347460D01*
X1350000Y699210D01*
X1352540Y696670D01*
X1355080D01*
Y699210D01*
X1352540Y701750D01*
X1355080Y704290D01*
Y706830D01*
X1352540D01*
X1350000Y704290D01*
X1347460Y706830D01*
X1344920D01*
Y704290D01*
X1347460Y701750D01*
X1344920Y699210D01*
Y696670D01*
X1389920D02*
X1392460D01*
X1395000Y699210D01*
X1397540Y696670D01*
X1400080D01*
Y699210D01*
X1397540Y701750D01*
X1400080Y704290D01*
Y706830D01*
X1397540D01*
X1395000Y704290D01*
X1392460Y706830D01*
X1389920D01*
Y704290D01*
X1392460Y701750D01*
X1389920Y699210D01*
Y696670D01*
X1434920D02*
X1437460D01*
X1440000Y699210D01*
X1442540Y696670D01*
X1445080D01*
Y699210D01*
X1442540Y701750D01*
X1445080Y704290D01*
Y706830D01*
X1442540D01*
X1440000Y704290D01*
X1437460Y706830D01*
X1434920D01*
Y704290D01*
X1437460Y701750D01*
X1434920Y699210D01*
Y696670D01*
X1367170Y597920D02*
X1369710D01*
X1372250Y600460D01*
X1374790Y597920D01*
X1377330D01*
Y600460D01*
X1374790Y603000D01*
X1377330Y605540D01*
Y608080D01*
X1374790D01*
X1372250Y605540D01*
X1369710Y608080D01*
X1367170D01*
Y605540D01*
X1369710Y603000D01*
X1367170Y600460D01*
Y597920D01*
X1412170D02*
X1414710D01*
X1417250Y600460D01*
X1419790Y597920D01*
X1422330D01*
Y600460D01*
X1419790Y603000D01*
X1422330Y605540D01*
Y608080D01*
X1419790D01*
X1417250Y605540D01*
X1414710Y608080D01*
X1412170D01*
Y605540D01*
X1414710Y603000D01*
X1412170Y600460D01*
Y597920D01*
X1457170D02*
X1459710D01*
X1462250Y600460D01*
X1464790Y597920D01*
X1467330D01*
Y600460D01*
X1464790Y603000D01*
X1467330Y605540D01*
Y608080D01*
X1464790D01*
X1462250Y605540D01*
X1459710Y608080D01*
X1457170D01*
Y605540D01*
X1459710Y603000D01*
X1457170Y600460D01*
Y597920D01*
X1749921Y1164920D02*
X1752460D01*
X1755000Y1167460D01*
X1757540Y1164920D01*
X1760081D01*
Y1167460D01*
X1757540Y1170000D01*
X1760081Y1172540D01*
Y1175080D01*
X1757540D01*
X1755000Y1172540D01*
X1752460Y1175080D01*
X1749921D01*
Y1172540D01*
X1752460Y1170000D01*
X1749921Y1167460D01*
Y1164920D01*
Y984920D02*
X1752460D01*
X1755000Y987460D01*
X1757540Y984920D01*
X1760081D01*
Y987460D01*
X1757540Y990000D01*
X1760081Y992540D01*
Y995080D01*
X1757540D01*
X1755000Y992540D01*
X1752460Y995080D01*
X1749921D01*
Y992540D01*
X1752460Y990000D01*
X1749921Y987460D01*
Y984920D01*
Y894920D02*
X1752460D01*
X1755000Y897460D01*
X1757540Y894920D01*
X1760081D01*
Y897460D01*
X1757540Y900000D01*
X1760081Y902540D01*
Y905080D01*
X1757540D01*
X1755000Y902540D01*
X1752460Y905080D01*
X1749921D01*
Y902540D01*
X1752460Y900000D01*
X1749921Y897460D01*
Y894920D01*
Y804920D02*
X1752460D01*
X1755000Y807460D01*
X1757540Y804920D01*
X1760081D01*
Y807460D01*
X1757540Y810000D01*
X1760081Y812540D01*
Y815080D01*
X1757540D01*
X1755000Y812540D01*
X1752460Y815080D01*
X1749921D01*
Y812540D01*
X1752460Y810000D01*
X1749921Y807460D01*
Y804920D01*
Y714920D02*
X1752460D01*
X1755000Y717460D01*
X1757540Y714920D01*
X1760081D01*
Y717460D01*
X1757540Y720000D01*
X1760081Y722540D01*
Y725080D01*
X1757540D01*
X1755000Y722540D01*
X1752460Y725080D01*
X1749921D01*
Y722540D01*
X1752460Y720000D01*
X1749921Y717460D01*
Y714920D01*
Y624920D02*
X1752460D01*
X1755000Y627460D01*
X1757540Y624920D01*
X1760081D01*
Y627460D01*
X1757540Y630000D01*
X1760081Y632540D01*
Y635080D01*
X1757540D01*
X1755000Y632540D01*
X1752460Y635080D01*
X1749921D01*
Y632540D01*
X1752460Y630000D01*
X1749921Y627460D01*
Y624920D01*
Y534920D02*
X1752460D01*
X1755000Y537460D01*
X1757540Y534920D01*
X1760081D01*
Y537460D01*
X1757540Y540000D01*
X1760081Y542540D01*
Y545080D01*
X1757540D01*
X1755000Y542540D01*
X1752460Y545080D01*
X1749921D01*
Y542540D01*
X1752460Y540000D01*
X1749921Y537460D01*
Y534920D01*
Y444920D02*
X1752460D01*
X1755000Y447460D01*
X1757540Y444920D01*
X1760081D01*
Y447460D01*
X1757540Y450000D01*
X1760081Y452540D01*
Y455080D01*
X1757540D01*
X1755000Y452540D01*
X1752460Y455080D01*
X1749921D01*
Y452540D01*
X1752460Y450000D01*
X1749921Y447460D01*
Y444920D01*
X1727420Y1119920D02*
X1729960D01*
X1732500Y1122460D01*
X1735040Y1119920D01*
X1737580D01*
Y1122460D01*
X1735040Y1125000D01*
X1737580Y1127540D01*
Y1130080D01*
X1735040D01*
X1732500Y1127540D01*
X1729960Y1130080D01*
X1727420D01*
Y1127540D01*
X1729960Y1125000D01*
X1727420Y1122460D01*
Y1119920D01*
X1704920Y1074920D02*
X1707460D01*
X1710000Y1077460D01*
X1712540Y1074920D01*
X1715080D01*
Y1077460D01*
X1712540Y1080000D01*
X1715080Y1082540D01*
Y1085080D01*
X1712540D01*
X1710000Y1082540D01*
X1707460Y1085080D01*
X1704920D01*
Y1082540D01*
X1707460Y1080000D01*
X1704920Y1077460D01*
Y1074920D01*
X1727420Y1029920D02*
X1729960D01*
X1732500Y1032460D01*
X1735040Y1029920D01*
X1737580D01*
Y1032460D01*
X1735040Y1035000D01*
X1737580Y1037540D01*
Y1040080D01*
X1735040D01*
X1732500Y1037540D01*
X1729960Y1040080D01*
X1727420D01*
Y1037540D01*
X1729960Y1035000D01*
X1727420Y1032460D01*
Y1029920D01*
X1704920Y984920D02*
X1707460D01*
X1710000Y987460D01*
X1712540Y984920D01*
X1715080D01*
Y987460D01*
X1712540Y990000D01*
X1715080Y992540D01*
Y995080D01*
X1712540D01*
X1710000Y992540D01*
X1707460Y995080D01*
X1704920D01*
Y992540D01*
X1707460Y990000D01*
X1704920Y987460D01*
Y984920D01*
X1727420Y939920D02*
X1729960D01*
X1732500Y942460D01*
X1735040Y939920D01*
X1737580D01*
Y942460D01*
X1735040Y945000D01*
X1737580Y947540D01*
Y950080D01*
X1735040D01*
X1732500Y947540D01*
X1729960Y950080D01*
X1727420D01*
Y947540D01*
X1729960Y945000D01*
X1727420Y942460D01*
Y939920D01*
X1704920Y894920D02*
X1707460D01*
X1710000Y897460D01*
X1712540Y894920D01*
X1715080D01*
Y897460D01*
X1712540Y900000D01*
X1715080Y902540D01*
Y905080D01*
X1712540D01*
X1710000Y902540D01*
X1707460Y905080D01*
X1704920D01*
Y902540D01*
X1707460Y900000D01*
X1704920Y897460D01*
Y894920D01*
X1727420Y849920D02*
X1729960D01*
X1732500Y852460D01*
X1735040Y849920D01*
X1737580D01*
Y852460D01*
X1735040Y855000D01*
X1737580Y857540D01*
Y860080D01*
X1735040D01*
X1732500Y857540D01*
X1729960Y860080D01*
X1727420D01*
Y857540D01*
X1729960Y855000D01*
X1727420Y852460D01*
Y849920D01*
X1704920Y804920D02*
X1707460D01*
X1710000Y807460D01*
X1712540Y804920D01*
X1715080D01*
Y807460D01*
X1712540Y810000D01*
X1715080Y812540D01*
Y815080D01*
X1712540D01*
X1710000Y812540D01*
X1707460Y815080D01*
X1704920D01*
Y812540D01*
X1707460Y810000D01*
X1704920Y807460D01*
Y804920D01*
X1727420Y759920D02*
X1729960D01*
X1732500Y762460D01*
X1735040Y759920D01*
X1737580D01*
Y762460D01*
X1735040Y765000D01*
X1737580Y767540D01*
Y770080D01*
X1735040D01*
X1732500Y767540D01*
X1729960Y770080D01*
X1727420D01*
Y767540D01*
X1729960Y765000D01*
X1727420Y762460D01*
Y759920D01*
X1704920Y714920D02*
X1707460D01*
X1710000Y717460D01*
X1712540Y714920D01*
X1715080D01*
Y717460D01*
X1712540Y720000D01*
X1715080Y722540D01*
Y725080D01*
X1712540D01*
X1710000Y722540D01*
X1707460Y725080D01*
X1704920D01*
Y722540D01*
X1707460Y720000D01*
X1704920Y717460D01*
Y714920D01*
X1727420Y669920D02*
X1729960D01*
X1732500Y672460D01*
X1735040Y669920D01*
X1737580D01*
Y672460D01*
X1735040Y675000D01*
X1737580Y677540D01*
Y680080D01*
X1735040D01*
X1732500Y677540D01*
X1729960Y680080D01*
X1727420D01*
Y677540D01*
X1729960Y675000D01*
X1727420Y672460D01*
Y669920D01*
X1704920Y624920D02*
X1707460D01*
X1710000Y627460D01*
X1712540Y624920D01*
X1715080D01*
Y627460D01*
X1712540Y630000D01*
X1715080Y632540D01*
Y635080D01*
X1712540D01*
X1710000Y632540D01*
X1707460Y635080D01*
X1704920D01*
Y632540D01*
X1707460Y630000D01*
X1704920Y627460D01*
Y624920D01*
X1727420Y579920D02*
X1729960D01*
X1732500Y582460D01*
X1735040Y579920D01*
X1737580D01*
Y582460D01*
X1735040Y585000D01*
X1737580Y587540D01*
Y590080D01*
X1735040D01*
X1732500Y587540D01*
X1729960Y590080D01*
X1727420D01*
Y587540D01*
X1729960Y585000D01*
X1727420Y582460D01*
Y579920D01*
X1704920Y534920D02*
X1707460D01*
X1710000Y537460D01*
X1712540Y534920D01*
X1715080D01*
Y537460D01*
X1712540Y540000D01*
X1715080Y542540D01*
Y545080D01*
X1712540D01*
X1710000Y542540D01*
X1707460Y545080D01*
X1704920D01*
Y542540D01*
X1707460Y540000D01*
X1704920Y537460D01*
Y534920D01*
X1727420Y489920D02*
X1729960D01*
X1732500Y492460D01*
X1735040Y489920D01*
X1737580D01*
Y492460D01*
X1735040Y495000D01*
X1737580Y497540D01*
Y500080D01*
X1735040D01*
X1732500Y497540D01*
X1729960Y500080D01*
X1727420D01*
Y497540D01*
X1729960Y495000D01*
X1727420Y492460D01*
Y489920D01*
X1704920Y444920D02*
X1707460D01*
X1710000Y447460D01*
X1712540Y444920D01*
X1715080D01*
Y447460D01*
X1712540Y450000D01*
X1715080Y452540D01*
Y455080D01*
X1712540D01*
X1710000Y452540D01*
X1707460Y455080D01*
X1704920D01*
Y452540D01*
X1707460Y450000D01*
X1704920Y447460D01*
Y444920D01*
X1727420Y399920D02*
X1729960D01*
X1732500Y402460D01*
X1735040Y399920D01*
X1737580D01*
Y402460D01*
X1735040Y405000D01*
X1737580Y407540D01*
Y410080D01*
X1735040D01*
X1732500Y407540D01*
X1729960Y410080D01*
X1727420D01*
Y407540D01*
X1729960Y405000D01*
X1727420Y402460D01*
Y399920D01*
X1704920Y354920D02*
X1707460D01*
X1710000Y357460D01*
X1712540Y354920D01*
X1715080D01*
Y357460D01*
X1712540Y360000D01*
X1715080Y362540D01*
Y365080D01*
X1712540D01*
X1710000Y362540D01*
X1707460Y365080D01*
X1704920D01*
Y362540D01*
X1707460Y360000D01*
X1704920Y357460D01*
Y354920D01*
X1727420Y309920D02*
X1729960D01*
X1732500Y312460D01*
X1735040Y309920D01*
X1737580D01*
Y312460D01*
X1735040Y315000D01*
X1737580Y317540D01*
Y320080D01*
X1735040D01*
X1732500Y317540D01*
X1729960Y320080D01*
X1727420D01*
Y317540D01*
X1729960Y315000D01*
X1727420Y312460D01*
Y309920D01*
X1704920Y264920D02*
X1707460D01*
X1710000Y267460D01*
X1712540Y264920D01*
X1715080D01*
Y267460D01*
X1712540Y270000D01*
X1715080Y272540D01*
Y275080D01*
X1712540D01*
X1710000Y272540D01*
X1707460Y275080D01*
X1704920D01*
Y272540D01*
X1707460Y270000D01*
X1704920Y267460D01*
Y264920D01*
X1659920Y714920D02*
X1662460D01*
X1665000Y717460D01*
X1667540Y714920D01*
X1670080D01*
Y717460D01*
X1667540Y720000D01*
X1670080Y722540D01*
Y725080D01*
X1667540D01*
X1665000Y722540D01*
X1662460Y725080D01*
X1659920D01*
Y722540D01*
X1662460Y720000D01*
X1659920Y717460D01*
Y714920D01*
X1682420Y579920D02*
X1684960D01*
X1687500Y582460D01*
X1690040Y579920D01*
X1692580D01*
Y582460D01*
X1690040Y585000D01*
X1692580Y587540D01*
Y590080D01*
X1690040D01*
X1687500Y587540D01*
X1684960Y590080D01*
X1682420D01*
Y587540D01*
X1684960Y585000D01*
X1682420Y582460D01*
Y579920D01*
X1659920Y534920D02*
X1662460D01*
X1665000Y537460D01*
X1667540Y534920D01*
X1670080D01*
Y537460D01*
X1667540Y540000D01*
X1670080Y542540D01*
Y545080D01*
X1667540D01*
X1665000Y542540D01*
X1662460Y545080D01*
X1659920D01*
Y542540D01*
X1662460Y540000D01*
X1659920Y537460D01*
Y534920D01*
X1682420Y489920D02*
X1684960D01*
X1687500Y492460D01*
X1690040Y489920D01*
X1692580D01*
Y492460D01*
X1690040Y495000D01*
X1692580Y497540D01*
Y500080D01*
X1690040D01*
X1687500Y497540D01*
X1684960Y500080D01*
X1682420D01*
Y497540D01*
X1684960Y495000D01*
X1682420Y492460D01*
Y489920D01*
X1659920Y444920D02*
X1662460D01*
X1665000Y447460D01*
X1667540Y444920D01*
X1670080D01*
Y447460D01*
X1667540Y450000D01*
X1670080Y452540D01*
Y455080D01*
X1667540D01*
X1665000Y452540D01*
X1662460Y455080D01*
X1659920D01*
Y452540D01*
X1662460Y450000D01*
X1659920Y447460D01*
Y444920D01*
X1682420Y399920D02*
X1684960D01*
X1687500Y402460D01*
X1690040Y399920D01*
X1692580D01*
Y402460D01*
X1690040Y405000D01*
X1692580Y407540D01*
Y410080D01*
X1690040D01*
X1687500Y407540D01*
X1684960Y410080D01*
X1682420D01*
Y407540D01*
X1684960Y405000D01*
X1682420Y402460D01*
Y399920D01*
X1659920Y354920D02*
X1662460D01*
X1665000Y357460D01*
X1667540Y354920D01*
X1670080D01*
Y357460D01*
X1667540Y360000D01*
X1670080Y362540D01*
Y365080D01*
X1667540D01*
X1665000Y362540D01*
X1662460Y365080D01*
X1659920D01*
Y362540D01*
X1662460Y360000D01*
X1659920Y357460D01*
Y354920D01*
X1682420Y309920D02*
X1684960D01*
X1687500Y312460D01*
X1690040Y309920D01*
X1692580D01*
Y312460D01*
X1690040Y315000D01*
X1692580Y317540D01*
Y320080D01*
X1690040D01*
X1687500Y317540D01*
X1684960Y320080D01*
X1682420D01*
Y317540D01*
X1684960Y315000D01*
X1682420Y312460D01*
Y309920D01*
X1659920Y264920D02*
X1662460D01*
X1665000Y267460D01*
X1667540Y264920D01*
X1670080D01*
Y267460D01*
X1667540Y270000D01*
X1670080Y272540D01*
Y275080D01*
X1667540D01*
X1665000Y272540D01*
X1662460Y275080D01*
X1659920D01*
Y272540D01*
X1662460Y270000D01*
X1659920Y267460D01*
Y264920D01*
X1614920Y1074920D02*
X1617460D01*
X1620000Y1077460D01*
X1622540Y1074920D01*
X1625080D01*
Y1077460D01*
X1622540Y1080000D01*
X1625080Y1082540D01*
Y1085080D01*
X1622540D01*
X1620000Y1082540D01*
X1617460Y1085080D01*
X1614920D01*
Y1082540D01*
X1617460Y1080000D01*
X1614920Y1077460D01*
Y1074920D01*
Y984920D02*
X1617460D01*
X1620000Y987460D01*
X1622540Y984920D01*
X1625080D01*
Y987460D01*
X1622540Y990000D01*
X1625080Y992540D01*
Y995080D01*
X1622540D01*
X1620000Y992540D01*
X1617460Y995080D01*
X1614920D01*
Y992540D01*
X1617460Y990000D01*
X1614920Y987460D01*
Y984920D01*
Y894920D02*
X1617460D01*
X1620000Y897460D01*
X1622540Y894920D01*
X1625080D01*
Y897460D01*
X1622540Y900000D01*
X1625080Y902540D01*
Y905080D01*
X1622540D01*
X1620000Y902540D01*
X1617460Y905080D01*
X1614920D01*
Y902540D01*
X1617460Y900000D01*
X1614920Y897460D01*
Y894920D01*
Y804920D02*
X1617460D01*
X1620000Y807460D01*
X1622540Y804920D01*
X1625080D01*
Y807460D01*
X1622540Y810000D01*
X1625080Y812540D01*
Y815080D01*
X1622540D01*
X1620000Y812540D01*
X1617460Y815080D01*
X1614920D01*
Y812540D01*
X1617460Y810000D01*
X1614920Y807460D01*
Y804920D01*
X1637420Y669920D02*
X1639960D01*
X1642500Y672460D01*
X1645040Y669920D01*
X1647580D01*
Y672460D01*
X1645040Y675000D01*
X1647580Y677540D01*
Y680080D01*
X1645040D01*
X1642500Y677540D01*
X1639960Y680080D01*
X1637420D01*
Y677540D01*
X1639960Y675000D01*
X1637420Y672460D01*
Y669920D01*
X1614920Y624920D02*
X1617460D01*
X1620000Y627460D01*
X1622540Y624920D01*
X1625080D01*
Y627460D01*
X1622540Y630000D01*
X1625080Y632540D01*
Y635080D01*
X1622540D01*
X1620000Y632540D01*
X1617460Y635080D01*
X1614920D01*
Y632540D01*
X1617460Y630000D01*
X1614920Y627460D01*
Y624920D01*
X1637420Y579920D02*
X1639960D01*
X1642500Y582460D01*
X1645040Y579920D01*
X1647580D01*
Y582460D01*
X1645040Y585000D01*
X1647580Y587540D01*
Y590080D01*
X1645040D01*
X1642500Y587540D01*
X1639960Y590080D01*
X1637420D01*
Y587540D01*
X1639960Y585000D01*
X1637420Y582460D01*
Y579920D01*
X1614920Y534920D02*
X1617460D01*
X1620000Y537460D01*
X1622540Y534920D01*
X1625080D01*
Y537460D01*
X1622540Y540000D01*
X1625080Y542540D01*
Y545080D01*
X1622540D01*
X1620000Y542540D01*
X1617460Y545080D01*
X1614920D01*
Y542540D01*
X1617460Y540000D01*
X1614920Y537460D01*
Y534920D01*
X1637420Y489920D02*
X1639960D01*
X1642500Y492460D01*
X1645040Y489920D01*
X1647580D01*
Y492460D01*
X1645040Y495000D01*
X1647580Y497540D01*
Y500080D01*
X1645040D01*
X1642500Y497540D01*
X1639960Y500080D01*
X1637420D01*
Y497540D01*
X1639960Y495000D01*
X1637420Y492460D01*
Y489920D01*
X1614920Y444920D02*
X1617460D01*
X1620000Y447460D01*
X1622540Y444920D01*
X1625080D01*
Y447460D01*
X1622540Y450000D01*
X1625080Y452540D01*
Y455080D01*
X1622540D01*
X1620000Y452540D01*
X1617460Y455080D01*
X1614920D01*
Y452540D01*
X1617460Y450000D01*
X1614920Y447460D01*
Y444920D01*
X1637420Y399920D02*
X1639960D01*
X1642500Y402460D01*
X1645040Y399920D01*
X1647580D01*
Y402460D01*
X1645040Y405000D01*
X1647580Y407540D01*
Y410080D01*
X1645040D01*
X1642500Y407540D01*
X1639960Y410080D01*
X1637420D01*
Y407540D01*
X1639960Y405000D01*
X1637420Y402460D01*
Y399920D01*
X1614920Y354920D02*
X1617460D01*
X1620000Y357460D01*
X1622540Y354920D01*
X1625080D01*
Y357460D01*
X1622540Y360000D01*
X1625080Y362540D01*
Y365080D01*
X1622540D01*
X1620000Y362540D01*
X1617460Y365080D01*
X1614920D01*
Y362540D01*
X1617460Y360000D01*
X1614920Y357460D01*
Y354920D01*
X1637420Y309920D02*
X1639960D01*
X1642500Y312460D01*
X1645040Y309920D01*
X1647580D01*
Y312460D01*
X1645040Y315000D01*
X1647580Y317540D01*
Y320080D01*
X1645040D01*
X1642500Y317540D01*
X1639960Y320080D01*
X1637420D01*
Y317540D01*
X1639960Y315000D01*
X1637420Y312460D01*
Y309920D01*
X1614920Y264920D02*
X1617460D01*
X1620000Y267460D01*
X1622540Y264920D01*
X1625080D01*
Y267460D01*
X1622540Y270000D01*
X1625080Y272540D01*
Y275080D01*
X1622540D01*
X1620000Y272540D01*
X1617460Y275080D01*
X1614920D01*
Y272540D01*
X1617460Y270000D01*
X1614920Y267460D01*
Y264920D01*
X1592420Y1209920D02*
X1594960D01*
X1597500Y1212460D01*
X1600040Y1209920D01*
X1602580D01*
Y1212460D01*
X1600040Y1215000D01*
X1602580Y1217540D01*
Y1220080D01*
X1600040D01*
X1597500Y1217540D01*
X1594960Y1220080D01*
X1592420D01*
Y1217540D01*
X1594960Y1215000D01*
X1592420Y1212460D01*
Y1209920D01*
Y1119920D02*
X1594960D01*
X1597500Y1122460D01*
X1600040Y1119920D01*
X1602580D01*
Y1122460D01*
X1600040Y1125000D01*
X1602580Y1127540D01*
Y1130080D01*
X1600040D01*
X1597500Y1127540D01*
X1594960Y1130080D01*
X1592420D01*
Y1127540D01*
X1594960Y1125000D01*
X1592420Y1122460D01*
Y1119920D01*
X1569920Y1074920D02*
X1572460D01*
X1575000Y1077460D01*
X1577540Y1074920D01*
X1580080D01*
Y1077460D01*
X1577540Y1080000D01*
X1580080Y1082540D01*
Y1085080D01*
X1577540D01*
X1575000Y1082540D01*
X1572460Y1085080D01*
X1569920D01*
Y1082540D01*
X1572460Y1080000D01*
X1569920Y1077460D01*
Y1074920D01*
X1592420Y1029920D02*
X1594960D01*
X1597500Y1032460D01*
X1600040Y1029920D01*
X1602580D01*
Y1032460D01*
X1600040Y1035000D01*
X1602580Y1037540D01*
Y1040080D01*
X1600040D01*
X1597500Y1037540D01*
X1594960Y1040080D01*
X1592420D01*
Y1037540D01*
X1594960Y1035000D01*
X1592420Y1032460D01*
Y1029920D01*
X1569920Y984920D02*
X1572460D01*
X1575000Y987460D01*
X1577540Y984920D01*
X1580080D01*
Y987460D01*
X1577540Y990000D01*
X1580080Y992540D01*
Y995080D01*
X1577540D01*
X1575000Y992540D01*
X1572460Y995080D01*
X1569920D01*
Y992540D01*
X1572460Y990000D01*
X1569920Y987460D01*
Y984920D01*
X1592420Y939920D02*
X1594960D01*
X1597500Y942460D01*
X1600040Y939920D01*
X1602580D01*
Y942460D01*
X1600040Y945000D01*
X1602580Y947540D01*
Y950080D01*
X1600040D01*
X1597500Y947540D01*
X1594960Y950080D01*
X1592420D01*
Y947540D01*
X1594960Y945000D01*
X1592420Y942460D01*
Y939920D01*
X1569920Y894920D02*
X1572460D01*
X1575000Y897460D01*
X1577540Y894920D01*
X1580080D01*
Y897460D01*
X1577540Y900000D01*
X1580080Y902540D01*
Y905080D01*
X1577540D01*
X1575000Y902540D01*
X1572460Y905080D01*
X1569920D01*
Y902540D01*
X1572460Y900000D01*
X1569920Y897460D01*
Y894920D01*
X1592420Y849920D02*
X1594960D01*
X1597500Y852460D01*
X1600040Y849920D01*
X1602580D01*
Y852460D01*
X1600040Y855000D01*
X1602580Y857540D01*
Y860080D01*
X1600040D01*
X1597500Y857540D01*
X1594960Y860080D01*
X1592420D01*
Y857540D01*
X1594960Y855000D01*
X1592420Y852460D01*
Y849920D01*
X1569920Y804920D02*
X1572460D01*
X1575000Y807460D01*
X1577540Y804920D01*
X1580080D01*
Y807460D01*
X1577540Y810000D01*
X1580080Y812540D01*
Y815080D01*
X1577540D01*
X1575000Y812540D01*
X1572460Y815080D01*
X1569920D01*
Y812540D01*
X1572460Y810000D01*
X1569920Y807460D01*
Y804920D01*
X1592420Y759920D02*
X1594960D01*
X1597500Y762460D01*
X1600040Y759920D01*
X1602580D01*
Y762460D01*
X1600040Y765000D01*
X1602580Y767540D01*
Y770080D01*
X1600040D01*
X1597500Y767540D01*
X1594960Y770080D01*
X1592420D01*
Y767540D01*
X1594960Y765000D01*
X1592420Y762460D01*
Y759920D01*
X1569920Y714920D02*
X1572460D01*
X1575000Y717460D01*
X1577540Y714920D01*
X1580080D01*
Y717460D01*
X1577540Y720000D01*
X1580080Y722540D01*
Y725080D01*
X1577540D01*
X1575000Y722540D01*
X1572460Y725080D01*
X1569920D01*
Y722540D01*
X1572460Y720000D01*
X1569920Y717460D01*
Y714920D01*
Y624920D02*
X1572460D01*
X1575000Y627460D01*
X1577540Y624920D01*
X1580080D01*
Y627460D01*
X1577540Y630000D01*
X1580080Y632540D01*
Y635080D01*
X1577540D01*
X1575000Y632540D01*
X1572460Y635080D01*
X1569920D01*
Y632540D01*
X1572460Y630000D01*
X1569920Y627460D01*
Y624920D01*
X1592420Y579920D02*
X1594960D01*
X1597500Y582460D01*
X1600040Y579920D01*
X1602580D01*
Y582460D01*
X1600040Y585000D01*
X1602580Y587540D01*
Y590080D01*
X1600040D01*
X1597500Y587540D01*
X1594960Y590080D01*
X1592420D01*
Y587540D01*
X1594960Y585000D01*
X1592420Y582460D01*
Y579920D01*
X1569920Y534920D02*
X1572460D01*
X1575000Y537460D01*
X1577540Y534920D01*
X1580080D01*
Y537460D01*
X1577540Y540000D01*
X1580080Y542540D01*
Y545080D01*
X1577540D01*
X1575000Y542540D01*
X1572460Y545080D01*
X1569920D01*
Y542540D01*
X1572460Y540000D01*
X1569920Y537460D01*
Y534920D01*
X1592420Y489920D02*
X1594960D01*
X1597500Y492460D01*
X1600040Y489920D01*
X1602580D01*
Y492460D01*
X1600040Y495000D01*
X1602580Y497540D01*
Y500080D01*
X1600040D01*
X1597500Y497540D01*
X1594960Y500080D01*
X1592420D01*
Y497540D01*
X1594960Y495000D01*
X1592420Y492460D01*
Y489920D01*
X1569920Y444920D02*
X1572460D01*
X1575000Y447460D01*
X1577540Y444920D01*
X1580080D01*
Y447460D01*
X1577540Y450000D01*
X1580080Y452540D01*
Y455080D01*
X1577540D01*
X1575000Y452540D01*
X1572460Y455080D01*
X1569920D01*
Y452540D01*
X1572460Y450000D01*
X1569920Y447460D01*
Y444920D01*
X1592420Y399920D02*
X1594960D01*
X1597500Y402460D01*
X1600040Y399920D01*
X1602580D01*
Y402460D01*
X1600040Y405000D01*
X1602580Y407540D01*
Y410080D01*
X1600040D01*
X1597500Y407540D01*
X1594960Y410080D01*
X1592420D01*
Y407540D01*
X1594960Y405000D01*
X1592420Y402460D01*
Y399920D01*
X1569920Y354920D02*
X1572460D01*
X1575000Y357460D01*
X1577540Y354920D01*
X1580080D01*
Y357460D01*
X1577540Y360000D01*
X1580080Y362540D01*
Y365080D01*
X1577540D01*
X1575000Y362540D01*
X1572460Y365080D01*
X1569920D01*
Y362540D01*
X1572460Y360000D01*
X1569920Y357460D01*
Y354920D01*
X1592420Y309920D02*
X1594960D01*
X1597500Y312460D01*
X1600040Y309920D01*
X1602580D01*
Y312460D01*
X1600040Y315000D01*
X1602580Y317540D01*
Y320080D01*
X1600040D01*
X1597500Y317540D01*
X1594960Y320080D01*
X1592420D01*
Y317540D01*
X1594960Y315000D01*
X1592420Y312460D01*
Y309920D01*
X1569920Y264920D02*
X1572460D01*
X1575000Y267460D01*
X1577540Y264920D01*
X1580080D01*
Y267460D01*
X1577540Y270000D01*
X1580080Y272540D01*
Y275080D01*
X1577540D01*
X1575000Y272540D01*
X1572460Y275080D01*
X1569920D01*
Y272540D01*
X1572460Y270000D01*
X1569920Y267460D01*
Y264920D01*
X1547420Y1209920D02*
X1549960D01*
X1552500Y1212460D01*
X1555040Y1209920D01*
X1557580D01*
Y1212460D01*
X1555040Y1215000D01*
X1557580Y1217540D01*
Y1220080D01*
X1555040D01*
X1552500Y1217540D01*
X1549960Y1220080D01*
X1547420D01*
Y1217540D01*
X1549960Y1215000D01*
X1547420Y1212460D01*
Y1209920D01*
Y1029920D02*
X1549960D01*
X1552500Y1032460D01*
X1555040Y1029920D01*
X1557580D01*
Y1032460D01*
X1555040Y1035000D01*
X1557580Y1037540D01*
Y1040080D01*
X1555040D01*
X1552500Y1037540D01*
X1549960Y1040080D01*
X1547420D01*
Y1037540D01*
X1549960Y1035000D01*
X1547420Y1032460D01*
Y1029920D01*
Y939920D02*
X1549960D01*
X1552500Y942460D01*
X1555040Y939920D01*
X1557580D01*
Y942460D01*
X1555040Y945000D01*
X1557580Y947540D01*
Y950080D01*
X1555040D01*
X1552500Y947540D01*
X1549960Y950080D01*
X1547420D01*
Y947540D01*
X1549960Y945000D01*
X1547420Y942460D01*
Y939920D01*
Y849920D02*
X1549960D01*
X1552500Y852460D01*
X1555040Y849920D01*
X1557580D01*
Y852460D01*
X1555040Y855000D01*
X1557580Y857540D01*
Y860080D01*
X1555040D01*
X1552500Y857540D01*
X1549960Y860080D01*
X1547420D01*
Y857540D01*
X1549960Y855000D01*
X1547420Y852460D01*
Y849920D01*
Y579920D02*
X1549960D01*
X1552500Y582460D01*
X1555040Y579920D01*
X1557580D01*
Y582460D01*
X1555040Y585000D01*
X1557580Y587540D01*
Y590080D01*
X1555040D01*
X1552500Y587540D01*
X1549960Y590080D01*
X1547420D01*
Y587540D01*
X1549960Y585000D01*
X1547420Y582460D01*
Y579920D01*
Y489920D02*
X1549960D01*
X1552500Y492460D01*
X1555040Y489920D01*
X1557580D01*
Y492460D01*
X1555040Y495000D01*
X1557580Y497540D01*
Y500080D01*
X1555040D01*
X1552500Y497540D01*
X1549960Y500080D01*
X1547420D01*
Y497540D01*
X1549960Y495000D01*
X1547420Y492460D01*
Y489920D01*
Y399920D02*
X1549960D01*
X1552500Y402460D01*
X1555040Y399920D01*
X1557580D01*
Y402460D01*
X1555040Y405000D01*
X1557580Y407540D01*
Y410080D01*
X1555040D01*
X1552500Y407540D01*
X1549960Y410080D01*
X1547420D01*
Y407540D01*
X1549960Y405000D01*
X1547420Y402460D01*
Y399920D01*
Y309920D02*
X1549960D01*
X1552500Y312460D01*
X1555040Y309920D01*
X1557580D01*
Y312460D01*
X1555040Y315000D01*
X1557580Y317540D01*
Y320080D01*
X1555040D01*
X1552500Y317540D01*
X1549960Y320080D01*
X1547420D01*
Y317540D01*
X1549960Y315000D01*
X1547420Y312460D01*
Y309920D01*
X1502420Y1209920D02*
X1504960D01*
X1507500Y1212460D01*
X1510040Y1209920D01*
X1512580D01*
Y1212460D01*
X1510040Y1215000D01*
X1512580Y1217540D01*
Y1220080D01*
X1510040D01*
X1507500Y1217540D01*
X1504960Y1220080D01*
X1502420D01*
Y1217540D01*
X1504960Y1215000D01*
X1502420Y1212460D01*
Y1209920D01*
Y1119920D02*
X1504960D01*
X1507500Y1122460D01*
X1510040Y1119920D01*
X1512580D01*
Y1122460D01*
X1510040Y1125000D01*
X1512580Y1127540D01*
Y1130080D01*
X1510040D01*
X1507500Y1127540D01*
X1504960Y1130080D01*
X1502420D01*
Y1127540D01*
X1504960Y1125000D01*
X1502420Y1122460D01*
Y1119920D01*
X1479920Y1074920D02*
X1482460D01*
X1485000Y1077460D01*
X1487540Y1074920D01*
X1490080D01*
Y1077460D01*
X1487540Y1080000D01*
X1490080Y1082540D01*
Y1085080D01*
X1487540D01*
X1485000Y1082540D01*
X1482460Y1085080D01*
X1479920D01*
Y1082540D01*
X1482460Y1080000D01*
X1479920Y1077460D01*
Y1074920D01*
X1502420Y1029920D02*
X1504960D01*
X1507500Y1032460D01*
X1510040Y1029920D01*
X1512580D01*
Y1032460D01*
X1510040Y1035000D01*
X1512580Y1037540D01*
Y1040080D01*
X1510040D01*
X1507500Y1037540D01*
X1504960Y1040080D01*
X1502420D01*
Y1037540D01*
X1504960Y1035000D01*
X1502420Y1032460D01*
Y1029920D01*
X1479920Y984920D02*
X1482460D01*
X1485000Y987460D01*
X1487540Y984920D01*
X1490080D01*
Y987460D01*
X1487540Y990000D01*
X1490080Y992540D01*
Y995080D01*
X1487540D01*
X1485000Y992540D01*
X1482460Y995080D01*
X1479920D01*
Y992540D01*
X1482460Y990000D01*
X1479920Y987460D01*
Y984920D01*
X1502420Y939920D02*
X1504960D01*
X1507500Y942460D01*
X1510040Y939920D01*
X1512580D01*
Y942460D01*
X1510040Y945000D01*
X1512580Y947540D01*
Y950080D01*
X1510040D01*
X1507500Y947540D01*
X1504960Y950080D01*
X1502420D01*
Y947540D01*
X1504960Y945000D01*
X1502420Y942460D01*
Y939920D01*
X1479920Y894920D02*
X1482460D01*
X1485000Y897460D01*
X1487540Y894920D01*
X1490080D01*
Y897460D01*
X1487540Y900000D01*
X1490080Y902540D01*
Y905080D01*
X1487540D01*
X1485000Y902540D01*
X1482460Y905080D01*
X1479920D01*
Y902540D01*
X1482460Y900000D01*
X1479920Y897460D01*
Y894920D01*
X1502420Y849920D02*
X1504960D01*
X1507500Y852460D01*
X1510040Y849920D01*
X1512580D01*
Y852460D01*
X1510040Y855000D01*
X1512580Y857540D01*
Y860080D01*
X1510040D01*
X1507500Y857540D01*
X1504960Y860080D01*
X1502420D01*
Y857540D01*
X1504960Y855000D01*
X1502420Y852460D01*
Y849920D01*
X1479920Y804920D02*
X1482460D01*
X1485000Y807460D01*
X1487540Y804920D01*
X1490080D01*
Y807460D01*
X1487540Y810000D01*
X1490080Y812540D01*
Y815080D01*
X1487540D01*
X1485000Y812540D01*
X1482460Y815080D01*
X1479920D01*
Y812540D01*
X1482460Y810000D01*
X1479920Y807460D01*
Y804920D01*
X1502420Y759920D02*
X1504960D01*
X1507500Y762460D01*
X1510040Y759920D01*
X1512580D01*
Y762460D01*
X1510040Y765000D01*
X1512580Y767540D01*
Y770080D01*
X1510040D01*
X1507500Y767540D01*
X1504960Y770080D01*
X1502420D01*
Y767540D01*
X1504960Y765000D01*
X1502420Y762460D01*
Y759920D01*
Y579920D02*
X1504960D01*
X1507500Y582460D01*
X1510040Y579920D01*
X1512580D01*
Y582460D01*
X1510040Y585000D01*
X1512580Y587540D01*
Y590080D01*
X1510040D01*
X1507500Y587540D01*
X1504960Y590080D01*
X1502420D01*
Y587540D01*
X1504960Y585000D01*
X1502420Y582460D01*
Y579920D01*
Y399920D02*
X1504960D01*
X1507500Y402460D01*
X1510040Y399920D01*
X1512580D01*
Y402460D01*
X1510040Y405000D01*
X1512580Y407540D01*
Y410080D01*
X1510040D01*
X1507500Y407540D01*
X1504960Y410080D01*
X1502420D01*
Y407540D01*
X1504960Y405000D01*
X1502420Y402460D01*
Y399920D01*
X1479920Y354920D02*
X1482460D01*
X1485000Y357460D01*
X1487540Y354920D01*
X1490080D01*
Y357460D01*
X1487540Y360000D01*
X1490080Y362540D01*
Y365080D01*
X1487540D01*
X1485000Y362540D01*
X1482460Y365080D01*
X1479920D01*
Y362540D01*
X1482460Y360000D01*
X1479920Y357460D01*
Y354920D01*
X1457420Y1209920D02*
X1459960D01*
X1462500Y1212460D01*
X1465040Y1209920D01*
X1467580D01*
Y1212460D01*
X1465040Y1215000D01*
X1467580Y1217540D01*
Y1220080D01*
X1465040D01*
X1462500Y1217540D01*
X1459960Y1220080D01*
X1457420D01*
Y1217540D01*
X1459960Y1215000D01*
X1457420Y1212460D01*
Y1209920D01*
Y1119920D02*
X1459960D01*
X1462500Y1122460D01*
X1465040Y1119920D01*
X1467580D01*
Y1122460D01*
X1465040Y1125000D01*
X1467580Y1127540D01*
Y1130080D01*
X1465040D01*
X1462500Y1127540D01*
X1459960Y1130080D01*
X1457420D01*
Y1127540D01*
X1459960Y1125000D01*
X1457420Y1122460D01*
Y1119920D01*
Y1029920D02*
X1459960D01*
X1462500Y1032460D01*
X1465040Y1029920D01*
X1467580D01*
Y1032460D01*
X1465040Y1035000D01*
X1467580Y1037540D01*
Y1040080D01*
X1465040D01*
X1462500Y1037540D01*
X1459960Y1040080D01*
X1457420D01*
Y1037540D01*
X1459960Y1035000D01*
X1457420Y1032460D01*
Y1029920D01*
X1434920Y984920D02*
X1437460D01*
X1440000Y987460D01*
X1442540Y984920D01*
X1445080D01*
Y987460D01*
X1442540Y990000D01*
X1445080Y992540D01*
Y995080D01*
X1442540D01*
X1440000Y992540D01*
X1437460Y995080D01*
X1434920D01*
Y992540D01*
X1437460Y990000D01*
X1434920Y987460D01*
Y984920D01*
X1457420Y939920D02*
X1459960D01*
X1462500Y942460D01*
X1465040Y939920D01*
X1467580D01*
Y942460D01*
X1465040Y945000D01*
X1467580Y947540D01*
Y950080D01*
X1465040D01*
X1462500Y947540D01*
X1459960Y950080D01*
X1457420D01*
Y947540D01*
X1459960Y945000D01*
X1457420Y942460D01*
Y939920D01*
X1434920Y894920D02*
X1437460D01*
X1440000Y897460D01*
X1442540Y894920D01*
X1445080D01*
Y897460D01*
X1442540Y900000D01*
X1445080Y902540D01*
Y905080D01*
X1442540D01*
X1440000Y902540D01*
X1437460Y905080D01*
X1434920D01*
Y902540D01*
X1437460Y900000D01*
X1434920Y897460D01*
Y894920D01*
X1457420Y849920D02*
X1459960D01*
X1462500Y852460D01*
X1465040Y849920D01*
X1467580D01*
Y852460D01*
X1465040Y855000D01*
X1467580Y857540D01*
Y860080D01*
X1465040D01*
X1462500Y857540D01*
X1459960Y860080D01*
X1457420D01*
Y857540D01*
X1459960Y855000D01*
X1457420Y852460D01*
Y849920D01*
X1434920Y804920D02*
X1437460D01*
X1440000Y807460D01*
X1442540Y804920D01*
X1445080D01*
Y807460D01*
X1442540Y810000D01*
X1445080Y812540D01*
Y815080D01*
X1442540D01*
X1440000Y812540D01*
X1437460Y815080D01*
X1434920D01*
Y812540D01*
X1437460Y810000D01*
X1434920Y807460D01*
Y804920D01*
X1457420Y669920D02*
X1459960D01*
X1462500Y672460D01*
X1465040Y669920D01*
X1467580D01*
Y672460D01*
X1465040Y675000D01*
X1467580Y677540D01*
Y680080D01*
X1465040D01*
X1462500Y677540D01*
X1459960Y680080D01*
X1457420D01*
Y677540D01*
X1459960Y675000D01*
X1457420Y672460D01*
Y669920D01*
X1434920Y624920D02*
X1437460D01*
X1440000Y627460D01*
X1442540Y624920D01*
X1445080D01*
Y627460D01*
X1442540Y630000D01*
X1445080Y632540D01*
Y635080D01*
X1442540D01*
X1440000Y632540D01*
X1437460Y635080D01*
X1434920D01*
Y632540D01*
X1437460Y630000D01*
X1434920Y627460D01*
Y624920D01*
Y534920D02*
X1437460D01*
X1440000Y537460D01*
X1442540Y534920D01*
X1445080D01*
Y537460D01*
X1442540Y540000D01*
X1445080Y542540D01*
Y545080D01*
X1442540D01*
X1440000Y542540D01*
X1437460Y545080D01*
X1434920D01*
Y542540D01*
X1437460Y540000D01*
X1434920Y537460D01*
Y534920D01*
Y444920D02*
X1437460D01*
X1440000Y447460D01*
X1442540Y444920D01*
X1445080D01*
Y447460D01*
X1442540Y450000D01*
X1445080Y452540D01*
Y455080D01*
X1442540D01*
X1440000Y452540D01*
X1437460Y455080D01*
X1434920D01*
Y452540D01*
X1437460Y450000D01*
X1434920Y447460D01*
Y444920D01*
X1457420Y399920D02*
X1459960D01*
X1462500Y402460D01*
X1465040Y399920D01*
X1467580D01*
Y402460D01*
X1465040Y405000D01*
X1467580Y407540D01*
Y410080D01*
X1465040D01*
X1462500Y407540D01*
X1459960Y410080D01*
X1457420D01*
Y407540D01*
X1459960Y405000D01*
X1457420Y402460D01*
Y399920D01*
X1434920Y264920D02*
X1437460D01*
X1440000Y267460D01*
X1442540Y264920D01*
X1445080D01*
Y267460D01*
X1442540Y270000D01*
X1445080Y272540D01*
Y275080D01*
X1442540D01*
X1440000Y272540D01*
X1437460Y275080D01*
X1434920D01*
Y272540D01*
X1437460Y270000D01*
X1434920Y267460D01*
Y264920D01*
X1412420Y759920D02*
X1414960D01*
X1417500Y762460D01*
X1420040Y759920D01*
X1422580D01*
Y762460D01*
X1420040Y765000D01*
X1422580Y767540D01*
Y770080D01*
X1420040D01*
X1417500Y767540D01*
X1414960Y770080D01*
X1412420D01*
Y767540D01*
X1414960Y765000D01*
X1412420Y762460D01*
Y759920D01*
Y669920D02*
X1414960D01*
X1417500Y672460D01*
X1420040Y669920D01*
X1422580D01*
Y672460D01*
X1420040Y675000D01*
X1422580Y677540D01*
Y680080D01*
X1420040D01*
X1417500Y677540D01*
X1414960Y680080D01*
X1412420D01*
Y677540D01*
X1414960Y675000D01*
X1412420Y672460D01*
Y669920D01*
X1389920Y624920D02*
X1392460D01*
X1395000Y627460D01*
X1397540Y624920D01*
X1400080D01*
Y627460D01*
X1397540Y630000D01*
X1400080Y632540D01*
Y635080D01*
X1397540D01*
X1395000Y632540D01*
X1392460Y635080D01*
X1389920D01*
Y632540D01*
X1392460Y630000D01*
X1389920Y627460D01*
Y624920D01*
Y444920D02*
X1392460D01*
X1395000Y447460D01*
X1397540Y444920D01*
X1400080D01*
Y447460D01*
X1397540Y450000D01*
X1400080Y452540D01*
Y455080D01*
X1397540D01*
X1395000Y452540D01*
X1392460Y455080D01*
X1389920D01*
Y452540D01*
X1392460Y450000D01*
X1389920Y447460D01*
Y444920D01*
X1412420Y399920D02*
X1414960D01*
X1417500Y402460D01*
X1420040Y399920D01*
X1422580D01*
Y402460D01*
X1420040Y405000D01*
X1422580Y407540D01*
Y410080D01*
X1420040D01*
X1417500Y407540D01*
X1414960Y410080D01*
X1412420D01*
Y407540D01*
X1414960Y405000D01*
X1412420Y402460D01*
Y399920D01*
X1389920Y354920D02*
X1392460D01*
X1395000Y357460D01*
X1397540Y354920D01*
X1400080D01*
Y357460D01*
X1397540Y360000D01*
X1400080Y362540D01*
Y365080D01*
X1397540D01*
X1395000Y362540D01*
X1392460Y365080D01*
X1389920D01*
Y362540D01*
X1392460Y360000D01*
X1389920Y357460D01*
Y354920D01*
X1412420Y309920D02*
X1414960D01*
X1417500Y312460D01*
X1420040Y309920D01*
X1422580D01*
Y312460D01*
X1420040Y315000D01*
X1422580Y317540D01*
Y320080D01*
X1420040D01*
X1417500Y317540D01*
X1414960Y320080D01*
X1412420D01*
Y317540D01*
X1414960Y315000D01*
X1412420Y312460D01*
Y309920D01*
X1389920Y264920D02*
X1392460D01*
X1395000Y267460D01*
X1397540Y264920D01*
X1400080D01*
Y267460D01*
X1397540Y270000D01*
X1400080Y272540D01*
Y275080D01*
X1397540D01*
X1395000Y272540D01*
X1392460Y275080D01*
X1389920D01*
Y272540D01*
X1392460Y270000D01*
X1389920Y267460D01*
Y264920D01*
X1367420Y669920D02*
X1369960D01*
X1372500Y672460D01*
X1375040Y669920D01*
X1377580D01*
Y672460D01*
X1375040Y675000D01*
X1377580Y677540D01*
Y680080D01*
X1375040D01*
X1372500Y677540D01*
X1369960Y680080D01*
X1367420D01*
Y677540D01*
X1369960Y675000D01*
X1367420Y672460D01*
Y669920D01*
X1344920Y624920D02*
X1347460D01*
X1350000Y627460D01*
X1352540Y624920D01*
X1355080D01*
Y627460D01*
X1352540Y630000D01*
X1355080Y632540D01*
Y635080D01*
X1352540D01*
X1350000Y632540D01*
X1347460Y635080D01*
X1344920D01*
Y632540D01*
X1347460Y630000D01*
X1344920Y627460D01*
Y624920D01*
Y444920D02*
X1347460D01*
X1350000Y447460D01*
X1352540Y444920D01*
X1355080D01*
Y447460D01*
X1352540Y450000D01*
X1355080Y452540D01*
Y455080D01*
X1352540D01*
X1350000Y452540D01*
X1347460Y455080D01*
X1344920D01*
Y452540D01*
X1347460Y450000D01*
X1344920Y447460D01*
Y444920D01*
X1367420Y399920D02*
X1369960D01*
X1372500Y402460D01*
X1375040Y399920D01*
X1377580D01*
Y402460D01*
X1375040Y405000D01*
X1377580Y407540D01*
Y410080D01*
X1375040D01*
X1372500Y407540D01*
X1369960Y410080D01*
X1367420D01*
Y407540D01*
X1369960Y405000D01*
X1367420Y402460D01*
Y399920D01*
X1299920Y714920D02*
X1302460D01*
X1305000Y717460D01*
X1307540Y714920D01*
X1310080D01*
Y717460D01*
X1307540Y720000D01*
X1310080Y722540D01*
Y725080D01*
X1307540D01*
X1305000Y722540D01*
X1302460Y725080D01*
X1299920D01*
Y722540D01*
X1302460Y720000D01*
X1299920Y717460D01*
Y714920D01*
X1322420Y579920D02*
X1324960D01*
X1327500Y582460D01*
X1330040Y579920D01*
X1332580D01*
Y582460D01*
X1330040Y585000D01*
X1332580Y587540D01*
Y590080D01*
X1330040D01*
X1327500Y587540D01*
X1324960Y590080D01*
X1322420D01*
Y587540D01*
X1324960Y585000D01*
X1322420Y582460D01*
Y579920D01*
Y399920D02*
X1324960D01*
X1327500Y402460D01*
X1330040Y399920D01*
X1332580D01*
Y402460D01*
X1330040Y405000D01*
X1332580Y407540D01*
Y410080D01*
X1330040D01*
X1327500Y407540D01*
X1324960Y410080D01*
X1322420D01*
Y407540D01*
X1324960Y405000D01*
X1322420Y402460D01*
Y399920D01*
Y309920D02*
X1324960D01*
X1327500Y312460D01*
X1330040Y309920D01*
X1332580D01*
Y312460D01*
X1330040Y315000D01*
X1332580Y317540D01*
Y320080D01*
X1330040D01*
X1327500Y317540D01*
X1324960Y320080D01*
X1322420D01*
Y317540D01*
X1324960Y315000D01*
X1322420Y312460D01*
Y309920D01*
X1299920Y264920D02*
X1302460D01*
X1305000Y267460D01*
X1307540Y264920D01*
X1310080D01*
Y267460D01*
X1307540Y270000D01*
X1310080Y272540D01*
Y275080D01*
X1307540D01*
X1305000Y272540D01*
X1302460Y275080D01*
X1299920D01*
Y272540D01*
X1302460Y270000D01*
X1299920Y267460D01*
Y264920D01*
X1254920Y444920D02*
X1257460D01*
X1260000Y447460D01*
X1262540Y444920D01*
X1265080D01*
Y447460D01*
X1262540Y450000D01*
X1265080Y452540D01*
Y455080D01*
X1262540D01*
X1260000Y452540D01*
X1257460Y455080D01*
X1254920D01*
Y452540D01*
X1257460Y450000D01*
X1254920Y447460D01*
Y444920D01*
Y264920D02*
X1257460D01*
X1260000Y267460D01*
X1262540Y264920D01*
X1265080D01*
Y267460D01*
X1262540Y270000D01*
X1265080Y272540D01*
Y275080D01*
X1262540D01*
X1260000Y272540D01*
X1257460Y275080D01*
X1254920D01*
Y272540D01*
X1257460Y270000D01*
X1254920Y267460D01*
Y264920D01*
X1232420Y489920D02*
X1234960D01*
X1237500Y492460D01*
X1240040Y489920D01*
X1242580D01*
Y492460D01*
X1240040Y495000D01*
X1242580Y497540D01*
Y500080D01*
X1240040D01*
X1237500Y497540D01*
X1234960Y500080D01*
X1232420D01*
Y497540D01*
X1234960Y495000D01*
X1232420Y492460D01*
Y489920D01*
X1164920Y534920D02*
X1167460D01*
X1170000Y537460D01*
X1172540Y534920D01*
X1175080D01*
Y537460D01*
X1172540Y540000D01*
X1175080Y542540D01*
Y545080D01*
X1172540D01*
X1170000Y542540D01*
X1167460Y545080D01*
X1164920D01*
Y542540D01*
X1167460Y540000D01*
X1164920Y537460D01*
Y534920D01*
X1119920D02*
X1122460D01*
X1125000Y537460D01*
X1127540Y534920D01*
X1130080D01*
Y537460D01*
X1127540Y540000D01*
X1130080Y542540D01*
Y545080D01*
X1127540D01*
X1125000Y542540D01*
X1122460Y545080D01*
X1119920D01*
Y542540D01*
X1122460Y540000D01*
X1119920Y537460D01*
Y534920D01*
X1074920Y804920D02*
X1077460D01*
X1080000Y807460D01*
X1082540Y804920D01*
X1085080D01*
Y807460D01*
X1082540Y810000D01*
X1085080Y812540D01*
Y815080D01*
X1082540D01*
X1080000Y812540D01*
X1077460Y815080D01*
X1074920D01*
Y812540D01*
X1077460Y810000D01*
X1074920Y807460D01*
Y804920D01*
Y534920D02*
X1077460D01*
X1080000Y537460D01*
X1082540Y534920D01*
X1085080D01*
Y537460D01*
X1082540Y540000D01*
X1085080Y542540D01*
Y545080D01*
X1082540D01*
X1080000Y542540D01*
X1077460Y545080D01*
X1074920D01*
Y542540D01*
X1077460Y540000D01*
X1074920Y537460D01*
Y534920D01*
X1029920Y714920D02*
X1032460D01*
X1035000Y717460D01*
X1037540Y714920D01*
X1040080D01*
Y717460D01*
X1037540Y720000D01*
X1040080Y722540D01*
Y725080D01*
X1037540D01*
X1035000Y722540D01*
X1032460Y725080D01*
X1029920D01*
Y722540D01*
X1032460Y720000D01*
X1029920Y717460D01*
Y714920D01*
X1052420Y669920D02*
X1054960D01*
X1057500Y672460D01*
X1060040Y669920D01*
X1062580D01*
Y672460D01*
X1060040Y675000D01*
X1062580Y677540D01*
Y680080D01*
X1060040D01*
X1057500Y677540D01*
X1054960Y680080D01*
X1052420D01*
Y677540D01*
X1054960Y675000D01*
X1052420Y672460D01*
Y669920D01*
X1029920Y624920D02*
X1032460D01*
X1035000Y627460D01*
X1037540Y624920D01*
X1040080D01*
Y627460D01*
X1037540Y630000D01*
X1040080Y632540D01*
Y635080D01*
X1037540D01*
X1035000Y632540D01*
X1032460Y635080D01*
X1029920D01*
Y632540D01*
X1032460Y630000D01*
X1029920Y627460D01*
Y624920D01*
X1052420Y579920D02*
X1054960D01*
X1057500Y582460D01*
X1060040Y579920D01*
X1062580D01*
Y582460D01*
X1060040Y585000D01*
X1062580Y587540D01*
Y590080D01*
X1060040D01*
X1057500Y587540D01*
X1054960Y590080D01*
X1052420D01*
Y587540D01*
X1054960Y585000D01*
X1052420Y582460D01*
Y579920D01*
X1007420Y489920D02*
X1009960D01*
X1012500Y492460D01*
X1015040Y489920D01*
X1017580D01*
Y492460D01*
X1015040Y495000D01*
X1017580Y497540D01*
Y500080D01*
X1015040D01*
X1012500Y497540D01*
X1009960Y500080D01*
X1007420D01*
Y497540D01*
X1009960Y495000D01*
X1007420Y492460D01*
Y489920D01*
X984920Y264920D02*
X987460D01*
X990000Y267460D01*
X992540Y264920D01*
X995080D01*
Y267460D01*
X992540Y270000D01*
X995080Y272540D01*
Y275080D01*
X992540D01*
X990000Y272540D01*
X987460Y275080D01*
X984920D01*
Y272540D01*
X987460Y270000D01*
X984920Y267460D01*
Y264920D01*
X939920Y804920D02*
X942460D01*
X945000Y807460D01*
X947540Y804920D01*
X950080D01*
Y807460D01*
X947540Y810000D01*
X950080Y812540D01*
Y815080D01*
X947540D01*
X945000Y812540D01*
X942460Y815080D01*
X939920D01*
Y812540D01*
X942460Y810000D01*
X939920Y807460D01*
Y804920D01*
Y354920D02*
X942460D01*
X945000Y357460D01*
X947540Y354920D01*
X950080D01*
Y357460D01*
X947540Y360000D01*
X950080Y362540D01*
Y365080D01*
X947540D01*
X945000Y362540D01*
X942460Y365080D01*
X939920D01*
Y362540D01*
X942460Y360000D01*
X939920Y357460D01*
Y354920D01*
Y264920D02*
X942460D01*
X945000Y267460D01*
X947540Y264920D01*
X950080D01*
Y267460D01*
X947540Y270000D01*
X950080Y272540D01*
Y275080D01*
X947540D01*
X945000Y272540D01*
X942460Y275080D01*
X939920D01*
Y272540D01*
X942460Y270000D01*
X939920Y267460D01*
Y264920D01*
X894920Y804920D02*
X897460D01*
X900000Y807460D01*
X902540Y804920D01*
X905080D01*
Y807460D01*
X902540Y810000D01*
X905080Y812540D01*
Y815080D01*
X902540D01*
X900000Y812540D01*
X897460Y815080D01*
X894920D01*
Y812540D01*
X897460Y810000D01*
X894920Y807460D01*
Y804920D01*
X1497920Y505170D02*
X1500460D01*
X1503000Y507710D01*
X1505540Y505170D01*
X1508080D01*
Y507710D01*
X1505540Y510250D01*
X1508080Y512790D01*
Y515330D01*
X1505540D01*
X1503000Y512790D01*
X1500460Y515330D01*
X1497920D01*
Y512790D01*
X1500460Y510250D01*
X1497920Y507710D01*
Y505170D01*
X1296045Y590662D02*
X1298585D01*
X1301125Y593202D01*
X1303665Y590662D01*
X1306205D01*
Y593202D01*
X1303665Y595742D01*
X1306205Y598282D01*
Y600822D01*
X1303665D01*
X1301125Y598282D01*
X1298585Y600822D01*
X1296045D01*
Y598282D01*
X1298585Y595742D01*
X1296045Y593202D01*
Y590662D01*
X1387420Y742420D02*
X1389960D01*
X1392500Y744960D01*
X1395040Y742420D01*
X1397580D01*
Y744960D01*
X1395040Y747500D01*
X1397580Y750040D01*
Y752580D01*
X1395040D01*
X1392500Y750040D01*
X1389960Y752580D01*
X1387420D01*
Y750040D01*
X1389960Y747500D01*
X1387420Y744960D01*
Y742420D01*
X1379303Y742052D02*
X1381843D01*
X1384383Y744592D01*
X1386923Y742052D01*
X1389463D01*
Y744592D01*
X1386923Y747132D01*
X1389463Y749672D01*
Y752212D01*
X1386923D01*
X1384383Y749672D01*
X1381843Y752212D01*
X1379303D01*
Y749672D01*
X1381843Y747132D01*
X1379303Y744592D01*
Y742052D01*
X1311920Y671170D02*
X1314460D01*
X1317000Y673710D01*
X1319540Y671170D01*
X1322080D01*
Y673710D01*
X1319540Y676250D01*
X1322080Y678790D01*
Y681330D01*
X1319540D01*
X1317000Y678790D01*
X1314460Y681330D01*
X1311920D01*
Y678790D01*
X1314460Y676250D01*
X1311920Y673710D01*
Y671170D01*
X1495920Y691920D02*
X1498460D01*
X1501000Y694460D01*
X1503540Y691920D01*
X1506080D01*
Y694460D01*
X1503540Y697000D01*
X1506080Y699540D01*
Y702080D01*
X1503540D01*
X1501000Y699540D01*
X1498460Y702080D01*
X1495920D01*
Y699540D01*
X1498460Y697000D01*
X1495920Y694460D01*
Y691920D01*
X1541920Y602170D02*
X1544460D01*
X1547000Y604710D01*
X1549540Y602170D01*
X1552080D01*
Y604710D01*
X1549540Y607250D01*
X1552080Y609790D01*
Y612330D01*
X1549540D01*
X1547000Y609790D01*
X1544460Y612330D01*
X1541920D01*
Y609790D01*
X1544460Y607250D01*
X1541920Y604710D01*
Y602170D01*
X1545920Y750670D02*
X1548460D01*
X1551000Y753210D01*
X1553540Y750670D01*
X1556080D01*
Y753210D01*
X1553540Y755750D01*
X1556080Y758290D01*
Y760830D01*
X1553540D01*
X1551000Y758290D01*
X1548460Y760830D01*
X1545920D01*
Y758290D01*
X1548460Y755750D01*
X1545920Y753210D01*
Y750670D01*
X1563670Y1110670D02*
X1566210D01*
X1568750Y1113210D01*
X1571290Y1110670D01*
X1573830D01*
Y1113210D01*
X1571290Y1115750D01*
X1573830Y1118290D01*
Y1120830D01*
X1571290D01*
X1568750Y1118290D01*
X1566210Y1120830D01*
X1563670D01*
Y1118290D01*
X1566210Y1115750D01*
X1563670Y1113210D01*
Y1110670D01*
Y1122920D02*
X1566210D01*
X1568750Y1125460D01*
X1571290Y1122920D01*
X1573830D01*
Y1125460D01*
X1571290Y1128000D01*
X1573830Y1130540D01*
Y1133080D01*
X1571290D01*
X1568750Y1130540D01*
X1566210Y1133080D01*
X1563670D01*
Y1130540D01*
X1566210Y1128000D01*
X1563670Y1125460D01*
Y1122920D01*
X1498420Y561420D02*
X1500960D01*
X1503500Y563960D01*
X1506040Y561420D01*
X1508580D01*
Y563960D01*
X1506040Y566500D01*
X1508580Y569040D01*
Y571580D01*
X1506040D01*
X1503500Y569040D01*
X1500960Y571580D01*
X1498420D01*
Y569040D01*
X1500960Y566500D01*
X1498420Y563960D01*
Y561420D01*
X1116920Y380170D02*
X1119460D01*
X1122000Y382710D01*
X1124540Y380170D01*
X1127080D01*
Y382710D01*
X1124540Y385250D01*
X1127080Y387790D01*
Y390330D01*
X1124540D01*
X1122000Y387790D01*
X1119460Y390330D01*
X1116920D01*
Y387790D01*
X1119460Y385250D01*
X1116920Y382710D01*
Y380170D01*
X1151420D02*
X1153960D01*
X1156500Y382710D01*
X1159040Y380170D01*
X1161580D01*
Y382710D01*
X1159040Y385250D01*
X1161580Y387790D01*
Y390330D01*
X1159040D01*
X1156500Y387790D01*
X1153960Y390330D01*
X1151420D01*
Y387790D01*
X1153960Y385250D01*
X1151420Y382710D01*
Y380170D01*
X1083844D02*
X1086384D01*
X1088924Y382710D01*
X1091464Y380170D01*
X1094004D01*
Y382710D01*
X1091464Y385250D01*
X1094004Y387790D01*
Y390330D01*
X1091464D01*
X1088924Y387790D01*
X1086384Y390330D01*
X1083844D01*
Y387790D01*
X1086384Y385250D01*
X1083844Y382710D01*
Y380170D01*
X1178170D02*
X1180710D01*
X1183250Y382710D01*
X1185790Y380170D01*
X1188330D01*
Y382710D01*
X1185790Y385250D01*
X1188330Y387790D01*
Y390330D01*
X1185790D01*
X1183250Y387790D01*
X1180710Y390330D01*
X1178170D01*
Y387790D01*
X1180710Y385250D01*
X1178170Y382710D01*
Y380170D01*
X1053920D02*
X1056460D01*
X1059000Y382710D01*
X1061540Y380170D01*
X1064080D01*
Y382710D01*
X1061540Y385250D01*
X1064080Y387790D01*
Y390330D01*
X1061540D01*
X1059000Y387790D01*
X1056460Y390330D01*
X1053920D01*
Y387790D01*
X1056460Y385250D01*
X1053920Y382710D01*
Y380170D01*
X1178170Y486920D02*
X1180710D01*
X1183250Y489460D01*
X1185790Y486920D01*
X1188330D01*
Y489460D01*
X1185790Y492000D01*
X1188330Y494540D01*
Y497080D01*
X1185790D01*
X1183250Y494540D01*
X1180710Y497080D01*
X1178170D01*
Y494540D01*
X1180710Y492000D01*
X1178170Y489460D01*
Y486920D01*
X1151420Y348529D02*
X1153960D01*
X1156500Y351069D01*
X1159040Y348529D01*
X1161580D01*
Y351069D01*
X1159040Y353609D01*
X1161580Y356149D01*
Y358689D01*
X1159040D01*
X1156500Y356149D01*
X1153960Y358689D01*
X1151420D01*
Y356149D01*
X1153960Y353609D01*
X1151420Y351069D01*
Y348529D01*
X1116920D02*
X1119460D01*
X1122000Y351069D01*
X1124540Y348529D01*
X1127080D01*
Y351069D01*
X1124540Y353609D01*
X1127080Y356149D01*
Y358689D01*
X1124540D01*
X1122000Y356149D01*
X1119460Y358689D01*
X1116920D01*
Y356149D01*
X1119460Y353609D01*
X1116920Y351069D01*
Y348529D01*
X1178170D02*
X1180710D01*
X1183250Y351069D01*
X1185790Y348529D01*
X1188330D01*
Y351069D01*
X1185790Y353609D01*
X1188330Y356149D01*
Y358689D01*
X1185790D01*
X1183250Y356149D01*
X1180710Y358689D01*
X1178170D01*
Y356149D01*
X1180710Y353609D01*
X1178170Y351069D01*
Y348529D01*
X1083844D02*
X1086384D01*
X1088924Y351069D01*
X1091464Y348529D01*
X1094004D01*
Y351069D01*
X1091464Y353609D01*
X1094004Y356149D01*
Y358689D01*
X1091464D01*
X1088924Y356149D01*
X1086384Y358689D01*
X1083844D01*
Y356149D01*
X1086384Y353609D01*
X1083844Y351069D01*
Y348529D01*
X1178170Y416670D02*
X1180710D01*
X1183250Y419210D01*
X1185790Y416670D01*
X1188330D01*
Y419210D01*
X1185790Y421750D01*
X1188330Y424290D01*
Y426830D01*
X1185790D01*
X1183250Y424290D01*
X1180710Y426830D01*
X1178170D01*
Y424290D01*
X1180710Y421750D01*
X1178170Y419210D01*
Y416670D01*
X1053920D02*
X1056460D01*
X1059000Y419210D01*
X1061540Y416670D01*
X1064080D01*
Y419210D01*
X1061540Y421750D01*
X1064080Y424290D01*
Y426830D01*
X1061540D01*
X1059000Y424290D01*
X1056460Y426830D01*
X1053920D01*
Y424290D01*
X1056460Y421750D01*
X1053920Y419210D01*
Y416670D01*
X1083844D02*
X1086384D01*
X1088924Y419210D01*
X1091464Y416670D01*
X1094004D01*
Y419210D01*
X1091464Y421750D01*
X1094004Y424290D01*
Y426830D01*
X1091464D01*
X1088924Y424290D01*
X1086384Y426830D01*
X1083844D01*
Y424290D01*
X1086384Y421750D01*
X1083844Y419210D01*
Y416670D01*
X1053920Y454920D02*
X1056460D01*
X1059000Y457460D01*
X1061540Y454920D01*
X1064080D01*
Y457460D01*
X1061540Y460000D01*
X1064080Y462540D01*
Y465080D01*
X1061540D01*
X1059000Y462540D01*
X1056460Y465080D01*
X1053920D01*
Y462540D01*
X1056460Y460000D01*
X1053920Y457460D01*
Y454920D01*
X1083844D02*
X1086384D01*
X1088924Y457460D01*
X1091464Y454920D01*
X1094004D01*
Y457460D01*
X1091464Y460000D01*
X1094004Y462540D01*
Y465080D01*
X1091464D01*
X1088924Y462540D01*
X1086384Y465080D01*
X1083844D01*
Y462540D01*
X1086384Y460000D01*
X1083844Y457460D01*
Y454920D01*
X1151420D02*
X1153960D01*
X1156500Y457460D01*
X1159040Y454920D01*
X1161580D01*
Y457460D01*
X1159040Y460000D01*
X1161580Y462540D01*
Y465080D01*
X1159040D01*
X1156500Y462540D01*
X1153960Y465080D01*
X1151420D01*
Y462540D01*
X1153960Y460000D01*
X1151420Y457460D01*
Y454920D01*
X1116920D02*
X1119460D01*
X1122000Y457460D01*
X1124540Y454920D01*
X1127080D01*
Y457460D01*
X1124540Y460000D01*
X1127080Y462540D01*
Y465080D01*
X1124540D01*
X1122000Y462540D01*
X1119460Y465080D01*
X1116920D01*
Y462540D01*
X1119460Y460000D01*
X1116920Y457460D01*
Y454920D01*
X1178170D02*
X1180710D01*
X1183250Y457460D01*
X1185790Y454920D01*
X1188330D01*
Y457460D01*
X1185790Y460000D01*
X1188330Y462540D01*
Y465080D01*
X1185790D01*
X1183250Y462540D01*
X1180710Y465080D01*
X1178170D01*
Y462540D01*
X1180710Y460000D01*
X1178170Y457460D01*
Y454920D01*
X1053920Y486920D02*
X1056460D01*
X1059000Y489460D01*
X1061540Y486920D01*
X1064080D01*
Y489460D01*
X1061540Y492000D01*
X1064080Y494540D01*
Y497080D01*
X1061540D01*
X1059000Y494540D01*
X1056460Y497080D01*
X1053920D01*
Y494540D01*
X1056460Y492000D01*
X1053920Y489460D01*
Y486920D01*
X1116920D02*
X1119460D01*
X1122000Y489460D01*
X1124540Y486920D01*
X1127080D01*
Y489460D01*
X1124540Y492000D01*
X1127080Y494540D01*
Y497080D01*
X1124540D01*
X1122000Y494540D01*
X1119460Y497080D01*
X1116920D01*
Y494540D01*
X1119460Y492000D01*
X1116920Y489460D01*
Y486920D01*
X1083844D02*
X1086384D01*
X1088924Y489460D01*
X1091464Y486920D01*
X1094004D01*
Y489460D01*
X1091464Y492000D01*
X1094004Y494540D01*
Y497080D01*
X1091464D01*
X1088924Y494540D01*
X1086384Y497080D01*
X1083844D01*
Y494540D01*
X1086384Y492000D01*
X1083844Y489460D01*
Y486920D01*
X1151420D02*
X1153960D01*
X1156500Y489460D01*
X1159040Y486920D01*
X1161580D01*
Y489460D01*
X1159040Y492000D01*
X1161580Y494540D01*
Y497080D01*
X1159040D01*
X1156500Y494540D01*
X1153960Y497080D01*
X1151420D01*
Y494540D01*
X1153960Y492000D01*
X1151420Y489460D01*
Y486920D01*
X1053920Y348529D02*
X1056460D01*
X1059000Y351069D01*
X1061540Y348529D01*
X1064080D01*
Y351069D01*
X1061540Y353609D01*
X1064080Y356149D01*
Y358689D01*
X1061540D01*
X1059000Y356149D01*
X1056460Y358689D01*
X1053920D01*
Y356149D01*
X1056460Y353609D01*
X1053920Y351069D01*
Y348529D01*
X1395920Y775420D02*
X1398460D01*
X1401000Y777960D01*
X1403540Y775420D01*
X1406080D01*
Y777960D01*
X1403540Y780500D01*
X1406080Y783040D01*
Y785580D01*
X1403540D01*
X1401000Y783040D01*
X1398460Y785580D01*
X1395920D01*
Y783040D01*
X1398460Y780500D01*
X1395920Y777960D01*
Y775420D01*
X1353170Y771420D02*
X1355710D01*
X1358250Y773960D01*
X1360790Y771420D01*
X1363330D01*
Y773960D01*
X1360790Y776500D01*
X1363330Y779040D01*
Y781580D01*
X1360790D01*
X1358250Y779040D01*
X1355710Y781580D01*
X1353170D01*
Y779040D01*
X1355710Y776500D01*
X1353170Y773960D01*
Y771420D01*
X1344170D02*
X1346710D01*
X1349250Y773960D01*
X1351790Y771420D01*
X1354330D01*
Y773960D01*
X1351790Y776500D01*
X1354330Y779040D01*
Y781580D01*
X1351790D01*
X1349250Y779040D01*
X1346710Y781580D01*
X1344170D01*
Y779040D01*
X1346710Y776500D01*
X1344170Y773960D01*
Y771420D01*
X1257420Y547587D02*
X1259960D01*
X1262500Y550127D01*
X1265040Y547587D01*
X1267580D01*
Y550127D01*
X1265040Y552667D01*
X1267580Y555207D01*
Y557747D01*
X1265040D01*
X1262500Y555207D01*
X1259960Y557747D01*
X1257420D01*
Y555207D01*
X1259960Y552667D01*
X1257420Y550127D01*
Y547587D01*
Y560753D02*
X1259960D01*
X1262500Y563293D01*
X1265040Y560753D01*
X1267580D01*
Y563293D01*
X1265040Y565833D01*
X1267580Y568373D01*
Y570913D01*
X1265040D01*
X1262500Y568373D01*
X1259960Y570913D01*
X1257420D01*
Y568373D01*
X1259960Y565833D01*
X1257420Y563293D01*
Y560753D01*
Y536920D02*
X1259960D01*
X1262500Y539460D01*
X1265040Y536920D01*
X1267580D01*
Y539460D01*
X1265040Y542000D01*
X1267580Y544540D01*
Y547080D01*
X1265040D01*
X1262500Y544540D01*
X1259960Y547080D01*
X1257420D01*
Y544540D01*
X1259960Y542000D01*
X1257420Y539460D01*
Y536920D01*
X1261952Y590662D02*
X1264492D01*
X1267032Y593202D01*
X1269572Y590662D01*
X1272112D01*
Y593202D01*
X1269572Y595742D01*
X1272112Y598282D01*
Y600822D01*
X1269572D01*
X1267032Y598282D01*
X1264492Y600822D01*
X1261952D01*
Y598282D01*
X1264492Y595742D01*
X1261952Y593202D01*
Y590662D01*
X1286670D02*
X1289210D01*
X1291750Y593202D01*
X1294290Y590662D01*
X1296830D01*
Y593202D01*
X1294290Y595742D01*
X1296830Y598282D01*
Y600822D01*
X1294290D01*
X1291750Y598282D01*
X1289210Y600822D01*
X1286670D01*
Y598282D01*
X1289210Y595742D01*
X1286670Y593202D01*
Y590662D01*
X1273420Y658920D02*
X1275960D01*
X1278500Y661460D01*
X1281040Y658920D01*
X1283580D01*
Y661460D01*
X1281040Y664000D01*
X1283580Y666540D01*
Y669080D01*
X1281040D01*
X1278500Y666540D01*
X1275960Y669080D01*
X1273420D01*
Y666540D01*
X1275960Y664000D01*
X1273420Y661460D01*
Y658920D01*
Y667170D02*
X1275960D01*
X1278500Y669710D01*
X1281040Y667170D01*
X1283580D01*
Y669710D01*
X1281040Y672250D01*
X1283580Y674790D01*
Y677330D01*
X1281040D01*
X1278500Y674790D01*
X1275960Y677330D01*
X1273420D01*
Y674790D01*
X1275960Y672250D01*
X1273420Y669710D01*
Y667170D01*
X1247420Y658920D02*
X1249960D01*
X1252500Y661460D01*
X1255040Y658920D01*
X1257580D01*
Y661460D01*
X1255040Y664000D01*
X1257580Y666540D01*
Y669080D01*
X1255040D01*
X1252500Y666540D01*
X1249960Y669080D01*
X1247420D01*
Y666540D01*
X1249960Y664000D01*
X1247420Y661460D01*
Y658920D01*
Y667170D02*
X1249960D01*
X1252500Y669710D01*
X1255040Y667170D01*
X1257580D01*
Y669710D01*
X1255040Y672250D01*
X1257580Y674790D01*
Y677330D01*
X1255040D01*
X1252500Y674790D01*
X1249960Y677330D01*
X1247420D01*
Y674790D01*
X1249960Y672250D01*
X1247420Y669710D01*
Y667170D01*
X1136920Y668420D02*
X1139460D01*
X1142000Y670960D01*
X1144540Y668420D01*
X1147080D01*
Y670960D01*
X1144540Y673500D01*
X1147080Y676040D01*
Y678580D01*
X1144540D01*
X1142000Y676040D01*
X1139460Y678580D01*
X1136920D01*
Y676040D01*
X1139460Y673500D01*
X1136920Y670960D01*
Y668420D01*
X1033170D02*
X1035710D01*
X1038250Y670960D01*
X1040790Y668420D01*
X1043330D01*
Y670960D01*
X1040790Y673500D01*
X1043330Y676040D01*
Y678580D01*
X1040790D01*
X1038250Y676040D01*
X1035710Y678580D01*
X1033170D01*
Y676040D01*
X1035710Y673500D01*
X1033170Y670960D01*
Y668420D01*
X1022420D02*
X1024960D01*
X1027500Y670960D01*
X1030040Y668420D01*
X1032580D01*
Y670960D01*
X1030040Y673500D01*
X1032580Y676040D01*
Y678580D01*
X1030040D01*
X1027500Y676040D01*
X1024960Y678580D01*
X1022420D01*
Y676040D01*
X1024960Y673500D01*
X1022420Y670960D01*
Y668420D01*
X1074170Y673420D02*
X1076710D01*
X1079250Y675960D01*
X1081790Y673420D01*
X1084330D01*
Y675960D01*
X1081790Y678500D01*
X1084330Y681040D01*
Y683580D01*
X1081790D01*
X1079250Y681040D01*
X1076710Y683580D01*
X1074170D01*
Y681040D01*
X1076710Y678500D01*
X1074170Y675960D01*
Y673420D01*
X1064170D02*
X1066710D01*
X1069250Y675960D01*
X1071790Y673420D01*
X1074330D01*
Y675960D01*
X1071790Y678500D01*
X1074330Y681040D01*
Y683580D01*
X1071790D01*
X1069250Y681040D01*
X1066710Y683580D01*
X1064170D01*
Y681040D01*
X1066710Y678500D01*
X1064170Y675960D01*
Y673420D01*
X1003170Y525670D02*
X1005710D01*
X1008250Y528210D01*
X1010790Y525670D01*
X1013330D01*
Y528210D01*
X1010790Y530750D01*
X1013330Y533290D01*
Y535830D01*
X1010790D01*
X1008250Y533290D01*
X1005710Y535830D01*
X1003170D01*
Y533290D01*
X1005710Y530750D01*
X1003170Y528210D01*
Y525670D01*
X1457170Y295670D02*
X1459710D01*
X1462250Y298210D01*
X1464790Y295670D01*
X1467330D01*
Y298210D01*
X1464790Y300750D01*
X1467330Y303290D01*
Y305830D01*
X1464790D01*
X1462250Y303290D01*
X1459710Y305830D01*
X1457170D01*
Y303290D01*
X1459710Y300750D01*
X1457170Y298210D01*
Y295670D01*
X1370273Y262920D02*
X1372813D01*
X1375353Y265460D01*
X1377893Y262920D01*
X1380433D01*
Y265460D01*
X1377893Y268000D01*
X1380433Y270540D01*
Y273080D01*
X1377893D01*
X1375353Y270540D01*
X1372813Y273080D01*
X1370273D01*
Y270540D01*
X1372813Y268000D01*
X1370273Y265460D01*
Y262920D01*
X1339920D02*
X1342460D01*
X1345000Y265460D01*
X1347540Y262920D01*
X1350080D01*
Y265460D01*
X1347540Y268000D01*
X1350080Y270540D01*
Y273080D01*
X1347540D01*
X1345000Y270540D01*
X1342460Y273080D01*
X1339920D01*
Y270540D01*
X1342460Y268000D01*
X1339920Y265460D01*
Y262920D01*
X1305420Y304920D02*
X1307960D01*
X1310500Y307460D01*
X1313040Y304920D01*
X1315580D01*
Y307460D01*
X1313040Y310000D01*
X1315580Y312540D01*
Y315080D01*
X1313040D01*
X1310500Y312540D01*
X1307960Y315080D01*
X1305420D01*
Y312540D01*
X1307960Y310000D01*
X1305420Y307460D01*
Y304920D01*
X1293920D02*
X1296460D01*
X1299000Y307460D01*
X1301540Y304920D01*
X1304080D01*
Y307460D01*
X1301540Y310000D01*
X1304080Y312540D01*
Y315080D01*
X1301540D01*
X1299000Y312540D01*
X1296460Y315080D01*
X1293920D01*
Y312540D01*
X1296460Y310000D01*
X1293920Y307460D01*
Y304920D01*
X1277420D02*
X1279960D01*
X1282500Y307460D01*
X1285040Y304920D01*
X1287580D01*
Y307460D01*
X1285040Y310000D01*
X1287580Y312540D01*
Y315080D01*
X1285040D01*
X1282500Y312540D01*
X1279960Y315080D01*
X1277420D01*
Y312540D01*
X1279960Y310000D01*
X1277420Y307460D01*
Y304920D01*
X1264420D02*
X1266960D01*
X1269500Y307460D01*
X1272040Y304920D01*
X1274580D01*
Y307460D01*
X1272040Y310000D01*
X1274580Y312540D01*
Y315080D01*
X1272040D01*
X1269500Y312540D01*
X1266960Y315080D01*
X1264420D01*
Y312540D01*
X1266960Y310000D01*
X1264420Y307460D01*
Y304920D01*
X1250920D02*
X1253460D01*
X1256000Y307460D01*
X1258540Y304920D01*
X1261080D01*
Y307460D01*
X1258540Y310000D01*
X1261080Y312540D01*
Y315080D01*
X1258540D01*
X1256000Y312540D01*
X1253460Y315080D01*
X1250920D01*
Y312540D01*
X1253460Y310000D01*
X1250920Y307460D01*
Y304920D01*
X1237670D02*
X1240210D01*
X1242750Y307460D01*
X1245290Y304920D01*
X1247830D01*
Y307460D01*
X1245290Y310000D01*
X1247830Y312540D01*
Y315080D01*
X1245290D01*
X1242750Y312540D01*
X1240210Y315080D01*
X1237670D01*
Y312540D01*
X1240210Y310000D01*
X1237670Y307460D01*
Y304920D01*
X1239420Y419170D02*
X1241960D01*
X1244500Y421710D01*
X1247040Y419170D01*
X1249580D01*
Y421710D01*
X1247040Y424250D01*
X1249580Y426790D01*
Y429330D01*
X1247040D01*
X1244500Y426790D01*
X1241960Y429330D01*
X1239420D01*
Y426790D01*
X1241960Y424250D01*
X1239420Y421710D01*
Y419170D01*
X1250670D02*
X1253210D01*
X1255750Y421710D01*
X1258290Y419170D01*
X1260830D01*
Y421710D01*
X1258290Y424250D01*
X1260830Y426790D01*
Y429330D01*
X1258290D01*
X1255750Y426790D01*
X1253210Y429330D01*
X1250670D01*
Y426790D01*
X1253210Y424250D01*
X1250670Y421710D01*
Y419170D01*
X1380170Y420920D02*
X1382710D01*
X1385250Y423460D01*
X1387790Y420920D01*
X1390330D01*
Y423460D01*
X1387790Y426000D01*
X1390330Y428540D01*
Y431080D01*
X1387790D01*
X1385250Y428540D01*
X1382710Y431080D01*
X1380170D01*
Y428540D01*
X1382710Y426000D01*
X1380170Y423460D01*
Y420920D01*
Y429920D02*
X1382710D01*
X1385250Y432460D01*
X1387790Y429920D01*
X1390330D01*
Y432460D01*
X1387790Y435000D01*
X1390330Y437540D01*
Y440080D01*
X1387790D01*
X1385250Y437540D01*
X1382710Y440080D01*
X1380170D01*
Y437540D01*
X1382710Y435000D01*
X1380170Y432460D01*
Y429920D01*
X1332170Y537503D02*
X1334710D01*
X1337250Y540043D01*
X1339790Y537503D01*
X1342330D01*
Y540043D01*
X1339790Y542583D01*
X1342330Y545123D01*
Y547663D01*
X1339790D01*
X1337250Y545123D01*
X1334710Y547663D01*
X1332170D01*
Y545123D01*
X1334710Y542583D01*
X1332170Y540043D01*
Y537503D01*
Y525170D02*
X1334710D01*
X1337250Y527710D01*
X1339790Y525170D01*
X1342330D01*
Y527710D01*
X1339790Y530250D01*
X1342330Y532790D01*
Y535330D01*
X1339790D01*
X1337250Y532790D01*
X1334710Y535330D01*
X1332170D01*
Y532790D01*
X1334710Y530250D01*
X1332170Y527710D01*
Y525170D01*
Y512837D02*
X1334710D01*
X1337250Y515377D01*
X1339790Y512837D01*
X1342330D01*
Y515377D01*
X1339790Y517917D01*
X1342330Y520457D01*
Y522997D01*
X1339790D01*
X1337250Y520457D01*
X1334710Y522997D01*
X1332170D01*
Y520457D01*
X1334710Y517917D01*
X1332170Y515377D01*
Y512837D01*
X1403920Y505170D02*
X1406460D01*
X1409000Y507710D01*
X1411540Y505170D01*
X1414080D01*
Y507710D01*
X1411540Y510250D01*
X1414080Y512790D01*
Y515330D01*
X1411540D01*
X1409000Y512790D01*
X1406460Y515330D01*
X1403920D01*
Y512790D01*
X1406460Y510250D01*
X1403920Y507710D01*
Y505170D01*
X1391420D02*
X1393960D01*
X1396500Y507710D01*
X1399040Y505170D01*
X1401580D01*
Y507710D01*
X1399040Y510250D01*
X1401580Y512790D01*
Y515330D01*
X1399040D01*
X1396500Y512790D01*
X1393960Y515330D01*
X1391420D01*
Y512790D01*
X1393960Y510250D01*
X1391420Y507710D01*
Y505170D01*
X1444670D02*
X1447210D01*
X1449750Y507710D01*
X1452290Y505170D01*
X1454830D01*
Y507710D01*
X1452290Y510250D01*
X1454830Y512790D01*
Y515330D01*
X1452290D01*
X1449750Y512790D01*
X1447210Y515330D01*
X1444670D01*
Y512790D01*
X1447210Y510250D01*
X1444670Y507710D01*
Y505170D01*
X1457920D02*
X1460460D01*
X1463000Y507710D01*
X1465540Y505170D01*
X1468080D01*
Y507710D01*
X1465540Y510250D01*
X1468080Y512790D01*
Y515330D01*
X1465540D01*
X1463000Y512790D01*
X1460460Y515330D01*
X1457920D01*
Y512790D01*
X1460460Y510250D01*
X1457920Y507710D01*
Y505170D01*
X1489420Y561670D02*
X1491960D01*
X1494500Y564210D01*
X1497040Y561670D01*
X1499580D01*
Y564210D01*
X1497040Y566750D01*
X1499580Y569290D01*
Y571830D01*
X1497040D01*
X1494500Y569290D01*
X1491960Y571830D01*
X1489420D01*
Y569290D01*
X1491960Y566750D01*
X1489420Y564210D01*
Y561670D01*
Y505170D02*
X1491960D01*
X1494500Y507710D01*
X1497040Y505170D01*
X1499580D01*
Y507710D01*
X1497040Y510250D01*
X1499580Y512790D01*
Y515330D01*
X1497040D01*
X1494500Y512790D01*
X1491960Y515330D01*
X1489420D01*
Y512790D01*
X1491960Y510250D01*
X1489420Y507710D01*
Y505170D01*
X1531670Y750670D02*
X1534210D01*
X1536750Y753210D01*
X1539290Y750670D01*
X1541830D01*
Y753210D01*
X1539290Y755750D01*
X1541830Y758290D01*
Y760830D01*
X1539290D01*
X1536750Y758290D01*
X1534210Y760830D01*
X1531670D01*
Y758290D01*
X1534210Y755750D01*
X1531670Y753210D01*
Y750670D01*
X1524170Y712920D02*
X1526710D01*
X1529250Y715460D01*
X1531790Y712920D01*
X1534330D01*
Y715460D01*
X1531790Y718000D01*
X1534330Y720540D01*
Y723080D01*
X1531790D01*
X1529250Y720540D01*
X1526710Y723080D01*
X1524170D01*
Y720540D01*
X1526710Y718000D01*
X1524170Y715460D01*
Y712920D01*
X1496170Y1194670D02*
X1498710D01*
X1501250Y1197210D01*
X1503790Y1194670D01*
X1506330D01*
Y1197210D01*
X1503790Y1199750D01*
X1506330Y1202290D01*
Y1204830D01*
X1503790D01*
X1501250Y1202290D01*
X1498710Y1204830D01*
X1496170D01*
Y1202290D01*
X1498710Y1199750D01*
X1496170Y1197210D01*
Y1194670D01*
X1012920Y525670D02*
X1015460D01*
X1018000Y528210D01*
X1020540Y525670D01*
X1023080D01*
Y528210D01*
X1020540Y530750D01*
X1023080Y533290D01*
Y535830D01*
X1020540D01*
X1018000Y533290D01*
X1015460Y535830D01*
X1012920D01*
Y533290D01*
X1015460Y530750D01*
X1012920Y528210D01*
Y525670D01*
X1523920Y703920D02*
X1526460D01*
X1529000Y706460D01*
X1531540Y703920D01*
X1534080D01*
Y706460D01*
X1531540Y709000D01*
X1534080Y711540D01*
Y714080D01*
X1531540D01*
X1529000Y711540D01*
X1526460Y714080D01*
X1523920D01*
Y711540D01*
X1526460Y709000D01*
X1523920Y706460D01*
Y703920D01*
X1150420Y657670D02*
X1152960D01*
X1155500Y660210D01*
X1158040Y657670D01*
X1160580D01*
Y660210D01*
X1158040Y662750D01*
X1160580Y665290D01*
Y667830D01*
X1158040D01*
X1155500Y665290D01*
X1152960Y667830D01*
X1150420D01*
Y665290D01*
X1152960Y662750D01*
X1150420Y660210D01*
Y657670D01*
Y668420D02*
X1152960D01*
X1155500Y670960D01*
X1158040Y668420D01*
X1160580D01*
Y670960D01*
X1158040Y673500D01*
X1160580Y676040D01*
Y678580D01*
X1158040D01*
X1155500Y676040D01*
X1152960Y678580D01*
X1150420D01*
Y676040D01*
X1152960Y673500D01*
X1150420Y670960D01*
Y668420D01*
X1395920Y785420D02*
X1398460D01*
X1401000Y787960D01*
X1403540Y785420D01*
X1406080D01*
Y787960D01*
X1403540Y790500D01*
X1406080Y793040D01*
Y795580D01*
X1403540D01*
X1401000Y793040D01*
X1398460Y795580D01*
X1395920D01*
Y793040D01*
X1398460Y790500D01*
X1395920Y787960D01*
Y785420D01*
X1272170Y496170D02*
X1274710D01*
X1277250Y498710D01*
X1279790Y496170D01*
X1282330D01*
Y498710D01*
X1279790Y501250D01*
X1282330Y503790D01*
Y506330D01*
X1279790D01*
X1277250Y503790D01*
X1274710Y506330D01*
X1272170D01*
Y503790D01*
X1274710Y501250D01*
X1272170Y498710D01*
Y496170D01*
X1364670Y482420D02*
X1367210D01*
X1369750Y484960D01*
X1372290Y482420D01*
X1374830D01*
Y484960D01*
X1372290Y487500D01*
X1374830Y490040D01*
Y492580D01*
X1372290D01*
X1369750Y490040D01*
X1367210Y492580D01*
X1364670D01*
Y490040D01*
X1367210Y487500D01*
X1364670Y484960D01*
Y482420D01*
X1257420Y571420D02*
X1259960D01*
X1262500Y573960D01*
X1265040Y571420D01*
X1267580D01*
Y573960D01*
X1265040Y576500D01*
X1267580Y579040D01*
Y581580D01*
X1265040D01*
X1262500Y579040D01*
X1259960Y581580D01*
X1257420D01*
Y579040D01*
X1259960Y576500D01*
X1257420Y573960D01*
Y571420D01*
X1251670Y590662D02*
X1254210D01*
X1256750Y593202D01*
X1259290Y590662D01*
X1261830D01*
Y593202D01*
X1259290Y595742D01*
X1261830Y598282D01*
Y600822D01*
X1259290D01*
X1256750Y598282D01*
X1254210Y600822D01*
X1251670D01*
Y598282D01*
X1254210Y595742D01*
X1251670Y593202D01*
Y590662D01*
X1354670Y262920D02*
X1357210D01*
X1359750Y265460D01*
X1362290Y262920D01*
X1364830D01*
Y265460D01*
X1362290Y268000D01*
X1364830Y270540D01*
Y273080D01*
X1362290D01*
X1359750Y270540D01*
X1357210Y273080D01*
X1354670D01*
Y270540D01*
X1357210Y268000D01*
X1354670Y265460D01*
Y262920D01*
X1457170Y307420D02*
X1459710D01*
X1462250Y309960D01*
X1464790Y307420D01*
X1467330D01*
Y309960D01*
X1464790Y312500D01*
X1467330Y315040D01*
Y317580D01*
X1464790D01*
X1462250Y315040D01*
X1459710Y317580D01*
X1457170D01*
Y315040D01*
X1459710Y312500D01*
X1457170Y309960D01*
Y307420D01*
X1332170Y549837D02*
X1334710D01*
X1337250Y552377D01*
X1339790Y549837D01*
X1342330D01*
Y552377D01*
X1339790Y554917D01*
X1342330Y557457D01*
Y559997D01*
X1339790D01*
X1337250Y557457D01*
X1334710Y559997D01*
X1332170D01*
Y557457D01*
X1334710Y554917D01*
X1332170Y552377D01*
Y549837D01*
X1763670Y278920D02*
X1766210D01*
X1768750Y281460D01*
X1771290Y278920D01*
X1773830D01*
Y281460D01*
X1771290Y284000D01*
X1773830Y286540D01*
Y289080D01*
X1771290D01*
X1768750Y286540D01*
X1766210Y289080D01*
X1763670D01*
Y286540D01*
X1766210Y284000D01*
X1763670Y281460D01*
Y278920D01*
X1757532Y292739D02*
X1760072D01*
X1762612Y295279D01*
X1765152Y292739D01*
X1767692D01*
Y295279D01*
X1765152Y297819D01*
X1767692Y300359D01*
Y302899D01*
X1765152D01*
X1762612Y300359D01*
X1760072Y302899D01*
X1757532D01*
Y300359D01*
X1760072Y297819D01*
X1757532Y295279D01*
Y292739D01*
X1743420Y298170D02*
X1745960D01*
X1748500Y300710D01*
X1751040Y298170D01*
X1753580D01*
Y300710D01*
X1751040Y303250D01*
X1753580Y305790D01*
Y308330D01*
X1751040D01*
X1748500Y305790D01*
X1745960Y308330D01*
X1743420D01*
Y305790D01*
X1745960Y303250D01*
X1743420Y300710D01*
Y298170D01*
X1729601Y292032D02*
X1732141D01*
X1734681Y294572D01*
X1737221Y292032D01*
X1739761D01*
Y294572D01*
X1737221Y297112D01*
X1739761Y299652D01*
Y302192D01*
X1737221D01*
X1734681Y299652D01*
X1732141Y302192D01*
X1729601D01*
Y299652D01*
X1732141Y297112D01*
X1729601Y294572D01*
Y292032D01*
X1724170Y277920D02*
X1726710D01*
X1729250Y280460D01*
X1731790Y277920D01*
X1734330D01*
Y280460D01*
X1731790Y283000D01*
X1734330Y285540D01*
Y288080D01*
X1731790D01*
X1729250Y285540D01*
X1726710Y288080D01*
X1724170D01*
Y285540D01*
X1726710Y283000D01*
X1724170Y280460D01*
Y277920D01*
X1730308Y264101D02*
X1732848D01*
X1735388Y266641D01*
X1737928Y264101D01*
X1740468D01*
Y266641D01*
X1737928Y269181D01*
X1740468Y271721D01*
Y274261D01*
X1737928D01*
X1735388Y271721D01*
X1732848Y274261D01*
X1730308D01*
Y271721D01*
X1732848Y269181D01*
X1730308Y266641D01*
Y264101D01*
X1744420Y258670D02*
X1746960D01*
X1749500Y261210D01*
X1752040Y258670D01*
X1754580D01*
Y261210D01*
X1752040Y263750D01*
X1754580Y266290D01*
Y268830D01*
X1752040D01*
X1749500Y266290D01*
X1746960Y268830D01*
X1744420D01*
Y266290D01*
X1746960Y263750D01*
X1744420Y261210D01*
Y258670D01*
X1758239Y264808D02*
X1760779D01*
X1763319Y267348D01*
X1765859Y264808D01*
X1768399D01*
Y267348D01*
X1765859Y269888D01*
X1768399Y272428D01*
Y274968D01*
X1765859D01*
X1763319Y272428D01*
X1760779Y274968D01*
X1758239D01*
Y272428D01*
X1760779Y269888D01*
X1758239Y267348D01*
Y264808D01*
X1763420Y1221670D02*
X1765960D01*
X1768500Y1224210D01*
X1771040Y1221670D01*
X1773580D01*
Y1224210D01*
X1771040Y1226750D01*
X1773580Y1229290D01*
Y1231830D01*
X1771040D01*
X1768500Y1229290D01*
X1765960Y1231830D01*
X1763420D01*
Y1229290D01*
X1765960Y1226750D01*
X1763420Y1224210D01*
Y1221670D01*
X1757282Y1235489D02*
X1759822D01*
X1762362Y1238029D01*
X1764902Y1235489D01*
X1767442D01*
Y1238029D01*
X1764902Y1240569D01*
X1767442Y1243109D01*
Y1245649D01*
X1764902D01*
X1762362Y1243109D01*
X1759822Y1245649D01*
X1757282D01*
Y1243109D01*
X1759822Y1240569D01*
X1757282Y1238029D01*
Y1235489D01*
X1743170Y1240920D02*
X1745710D01*
X1748250Y1243460D01*
X1750790Y1240920D01*
X1753330D01*
Y1243460D01*
X1750790Y1246000D01*
X1753330Y1248540D01*
Y1251080D01*
X1750790D01*
X1748250Y1248540D01*
X1745710Y1251080D01*
X1743170D01*
Y1248540D01*
X1745710Y1246000D01*
X1743170Y1243460D01*
Y1240920D01*
X1729351Y1234782D02*
X1731891D01*
X1734431Y1237322D01*
X1736971Y1234782D01*
X1739511D01*
Y1237322D01*
X1736971Y1239862D01*
X1739511Y1242402D01*
Y1244942D01*
X1736971D01*
X1734431Y1242402D01*
X1731891Y1244942D01*
X1729351D01*
Y1242402D01*
X1731891Y1239862D01*
X1729351Y1237322D01*
Y1234782D01*
X1723920Y1220670D02*
X1726460D01*
X1729000Y1223210D01*
X1731540Y1220670D01*
X1734080D01*
Y1223210D01*
X1731540Y1225750D01*
X1734080Y1228290D01*
Y1230830D01*
X1731540D01*
X1729000Y1228290D01*
X1726460Y1230830D01*
X1723920D01*
Y1228290D01*
X1726460Y1225750D01*
X1723920Y1223210D01*
Y1220670D01*
X1730058Y1206851D02*
X1732598D01*
X1735138Y1209391D01*
X1737678Y1206851D01*
X1740218D01*
Y1209391D01*
X1737678Y1211931D01*
X1740218Y1214471D01*
Y1217011D01*
X1737678D01*
X1735138Y1214471D01*
X1732598Y1217011D01*
X1730058D01*
Y1214471D01*
X1732598Y1211931D01*
X1730058Y1209391D01*
Y1206851D01*
X1744170Y1201420D02*
X1746710D01*
X1749250Y1203960D01*
X1751790Y1201420D01*
X1754330D01*
Y1203960D01*
X1751790Y1206500D01*
X1754330Y1209040D01*
Y1211580D01*
X1751790D01*
X1749250Y1209040D01*
X1746710Y1211580D01*
X1744170D01*
Y1209040D01*
X1746710Y1206500D01*
X1744170Y1203960D01*
Y1201420D01*
X1757989Y1207558D02*
X1760529D01*
X1763069Y1210098D01*
X1765609Y1207558D01*
X1768149D01*
Y1210098D01*
X1765609Y1212638D01*
X1768149Y1215178D01*
Y1217718D01*
X1765609D01*
X1763069Y1215178D01*
X1760529Y1217718D01*
X1757989D01*
Y1215178D01*
X1760529Y1212638D01*
X1757989Y1210098D01*
Y1207558D01*
D19*
X1334698Y1104650D02*
G03*
X1334698Y1104650I-3048J0D01*
G01*
D92*
X1107760Y831600D02*
G03*
X1107760Y831600I-5080J0D01*
G01*
X1133160D02*
G03*
X1133160Y831600I-5080J0D01*
G01*
X1158560D02*
G03*
X1158560Y831600I-5080J0D01*
G01*
X1183960D02*
G03*
X1183960Y831600I-5080J0D01*
G01*
Y907800D02*
G03*
X1183960Y907800I-5080J0D01*
G01*
X1158560D02*
G03*
X1158560Y907800I-5080J0D01*
G01*
X1133160D02*
G03*
X1133160Y907800I-5080J0D01*
G01*
X1107760D02*
G03*
X1107760Y907800I-5080J0D01*
G01*
X1336730Y1104650D02*
G03*
X1336730Y1104650I-5080J0D01*
G01*
M02*
