G04*
G04 #@! TF.GenerationSoftware,Altium Limited,Altium Designer,25.0.2 (28)*
G04*
G04 Layer_Color=255*
%FSLAX44Y44*%
%MOMM*%
G71*
G04*
G04 #@! TF.SameCoordinates,CA714532-D515-40E6-9F5D-C0DFE5D80C05*
G04*
G04*
G04 #@! TF.FilePolarity,Positive*
G04*
G01*
G75*
%ADD74C,2.0320*%
%ADD75C,1.6000*%
%ADD76R,1.6000X1.6000*%
%ADD77R,1.6000X1.6000*%
%ADD78C,2.1000*%
%ADD79R,2.1000X2.1000*%
%ADD80C,0.4000*%
%ADD81C,1.0668*%
%ADD82C,1.5240*%
%ADD83C,4.0000*%
%ADD84C,5.0000*%
D74*
X916250Y995000D02*
D03*
X1078250Y1098750D02*
D03*
X991000Y699750D02*
D03*
D75*
X920250Y951500D02*
D03*
X1106490Y1213870D02*
D03*
X921750Y1067000D02*
D03*
X924560Y662150D02*
D03*
X1450200Y1228000D02*
D03*
X1501000D02*
D03*
X1475600D02*
D03*
X1619550D02*
D03*
X1670350D02*
D03*
X1644950D02*
D03*
X921710Y417075D02*
D03*
Y366275D02*
D03*
Y391675D02*
D03*
X924560Y813700D02*
D03*
Y762900D02*
D03*
Y788300D02*
D03*
D76*
X920250Y926100D02*
D03*
X921750Y1041600D02*
D03*
X924560Y636750D02*
D03*
X921710Y340875D02*
D03*
X924560Y737500D02*
D03*
D77*
X1131890Y1213870D02*
D03*
X1526400Y1228000D02*
D03*
X1695750D02*
D03*
D78*
X1134500Y1069500D02*
D03*
D79*
Y1104500D02*
D03*
D80*
X1134750Y413250D02*
D03*
X1148750D02*
D03*
X1120750D02*
D03*
X1148750Y427250D02*
D03*
X1134750D02*
D03*
X1120750D02*
D03*
X1141750Y406250D02*
D03*
X1127750D02*
D03*
X1141750Y420250D02*
D03*
X1127750D02*
D03*
X1141750Y434250D02*
D03*
X1127750D02*
D03*
D81*
X1102680Y831600D02*
D03*
X1128080D02*
D03*
X1153480D02*
D03*
X1178880D02*
D03*
Y907800D02*
D03*
X1153480D02*
D03*
X1128080D02*
D03*
X1102680D02*
D03*
D82*
X1509350Y275751D02*
D03*
X1534750D02*
D03*
X1560150D02*
D03*
X1483950D02*
D03*
D83*
X1754180Y1085041D02*
D03*
X1444180D02*
D03*
Y335041D02*
D03*
X1754180D02*
D03*
D84*
X1748750Y1226250D02*
D03*
X1749000Y284750D02*
D03*
X912750Y1226000D02*
D03*
X912250Y283750D02*
D03*
M02*
