G04*
G04 #@! TF.GenerationSoftware,Altium Limited,Altium Designer,25.0.2 (28)*
G04*
G04 Layer_Color=255*
%FSLAX44Y44*%
%MOMM*%
G71*
G04*
G04 #@! TF.SameCoordinates,CA714532-D515-40E6-9F5D-C0DFE5D80C05*
G04*
G04*
G04 #@! TF.FilePolarity,Positive*
G04*
G01*
G75*
%ADD23R,0.8000X3.8100*%
%ADD24R,10.0700X8.2900*%
%ADD25R,1.4000X1.2000*%
%ADD26R,1.6510X1.5240*%
%ADD27R,1.5240X1.6510*%
%ADD28R,1.2000X1.4000*%
%ADD29R,0.8000X1.2000*%
%ADD30R,1.2850X1.4700*%
%ADD31O,1.8000X0.3000*%
%ADD32O,0.3000X1.8000*%
%ADD33R,1.1430X0.9100*%
%ADD34R,3.2000X4.0000*%
%ADD35R,1.2000X0.8000*%
%ADD36R,0.9000X0.9000*%
%ADD37R,1.5000X0.9000*%
%ADD38R,0.9000X1.5000*%
G04:AMPARAMS|DCode=39|XSize=1.3mm|YSize=1.1mm|CornerRadius=0.055mm|HoleSize=0mm|Usage=FLASHONLY|Rotation=180.000|XOffset=0mm|YOffset=0mm|HoleType=Round|Shape=RoundedRectangle|*
%AMROUNDEDRECTD39*
21,1,1.3000,0.9900,0,0,180.0*
21,1,1.1900,1.1000,0,0,180.0*
1,1,0.1100,-0.5950,0.4950*
1,1,0.1100,0.5950,0.4950*
1,1,0.1100,0.5950,-0.4950*
1,1,0.1100,-0.5950,-0.4950*
%
%ADD39ROUNDEDRECTD39*%
%ADD74C,2.0320*%
%ADD75C,1.6000*%
%ADD76R,1.6000X1.6000*%
%ADD77R,1.6000X1.6000*%
%ADD78C,2.1000*%
%ADD79R,2.1000X2.1000*%
%ADD80C,0.4000*%
%ADD81C,1.0668*%
%ADD82C,1.5240*%
%ADD83C,4.0000*%
%ADD84C,5.0000*%
D23*
X1012510Y1104840D02*
D03*
X999810D02*
D03*
X987110D02*
D03*
X974410D02*
D03*
X1025210D02*
D03*
X1037910D02*
D03*
X1050610D02*
D03*
X1229680D02*
D03*
X1216980D02*
D03*
X1204280D02*
D03*
X1191580D02*
D03*
X1242380D02*
D03*
X1255080D02*
D03*
X1267780D02*
D03*
D24*
X1012510Y1201440D02*
D03*
X1229680D02*
D03*
D25*
X1024602Y1049336D02*
D03*
Y1030336D02*
D03*
X1051880Y1049336D02*
D03*
Y1030336D02*
D03*
X1077142Y1049706D02*
D03*
Y1030706D02*
D03*
X1000472Y1049336D02*
D03*
Y1030336D02*
D03*
X1190642Y1049336D02*
D03*
Y1030336D02*
D03*
X1267172Y1049336D02*
D03*
Y1030336D02*
D03*
X975142Y1049336D02*
D03*
Y1030336D02*
D03*
X1076044Y945334D02*
D03*
Y964334D02*
D03*
X1033000Y944750D02*
D03*
Y925750D02*
D03*
X1103342Y964246D02*
D03*
Y945246D02*
D03*
X1216372Y1049336D02*
D03*
Y1030336D02*
D03*
X1241772Y1049336D02*
D03*
Y1030336D02*
D03*
X1384892Y764706D02*
D03*
Y783706D02*
D03*
X1572108Y663044D02*
D03*
Y644044D02*
D03*
X1547048Y643956D02*
D03*
Y662956D02*
D03*
X1074858Y696044D02*
D03*
Y715044D02*
D03*
X1261466Y627956D02*
D03*
Y608956D02*
D03*
X1295716D02*
D03*
Y627956D02*
D03*
X1402608Y544544D02*
D03*
Y525544D02*
D03*
X1456966Y544706D02*
D03*
Y525706D02*
D03*
X1514966Y733706D02*
D03*
Y714706D02*
D03*
X1544250Y733250D02*
D03*
Y714250D02*
D03*
X1295686Y687856D02*
D03*
Y668856D02*
D03*
X1248966Y336106D02*
D03*
Y355106D02*
D03*
X1249284Y402176D02*
D03*
Y383176D02*
D03*
X1274784Y336194D02*
D03*
Y355194D02*
D03*
X1273500Y383150D02*
D03*
Y402150D02*
D03*
D26*
X1009750Y920182D02*
D03*
Y956250D02*
D03*
X1051500Y724318D02*
D03*
Y688250D02*
D03*
D27*
X1099750Y1032000D02*
D03*
X1135818D02*
D03*
X1166500Y738750D02*
D03*
X1130432D02*
D03*
Y710984D02*
D03*
X1166500D02*
D03*
X1130432Y763484D02*
D03*
X1166500D02*
D03*
X1075500Y581900D02*
D03*
X1111568D02*
D03*
D28*
X1173096Y945238D02*
D03*
X1154096D02*
D03*
X1076206Y557108D02*
D03*
X1095206D02*
D03*
X1497456Y307784D02*
D03*
X1478456D02*
D03*
X1297206Y571283D02*
D03*
X1278206D02*
D03*
X1218456Y644358D02*
D03*
X1237456D02*
D03*
X1178456Y573358D02*
D03*
X1197456D02*
D03*
X1278206Y548033D02*
D03*
X1297206D02*
D03*
X1369706Y524784D02*
D03*
X1350706D02*
D03*
Y547534D02*
D03*
X1369706D02*
D03*
X1193706Y739374D02*
D03*
X1212706D02*
D03*
X1193706Y711608D02*
D03*
X1212706D02*
D03*
X1497544Y550216D02*
D03*
X1478544D02*
D03*
X1497794Y525966D02*
D03*
X1478794D02*
D03*
X1352044Y759966D02*
D03*
X1333044D02*
D03*
X1191456Y667784D02*
D03*
X1172456D02*
D03*
X1237518Y667716D02*
D03*
X1218518D02*
D03*
X1193706Y764108D02*
D03*
X1212706D02*
D03*
X1032750Y568750D02*
D03*
X1013750D02*
D03*
X1032956Y545284D02*
D03*
X1013956D02*
D03*
X1527294Y1122466D02*
D03*
X1546294D02*
D03*
X1197956Y805858D02*
D03*
X1178956D02*
D03*
X1103956D02*
D03*
X1122956D02*
D03*
D29*
X1032750Y661500D02*
D03*
Y591500D02*
D03*
X1141500Y592000D02*
D03*
Y662000D02*
D03*
D30*
X1277270Y525999D02*
D03*
X1296730D02*
D03*
D31*
X1331980Y713000D02*
D03*
Y708000D02*
D03*
Y703000D02*
D03*
Y698000D02*
D03*
Y693000D02*
D03*
Y688000D02*
D03*
Y683000D02*
D03*
Y678000D02*
D03*
Y673000D02*
D03*
Y668000D02*
D03*
Y663000D02*
D03*
Y658000D02*
D03*
Y653000D02*
D03*
Y648000D02*
D03*
Y643000D02*
D03*
Y638000D02*
D03*
Y633000D02*
D03*
Y628000D02*
D03*
Y623000D02*
D03*
Y618000D02*
D03*
Y613000D02*
D03*
Y608000D02*
D03*
Y603000D02*
D03*
Y598000D02*
D03*
Y593000D02*
D03*
X1482980D02*
D03*
Y598000D02*
D03*
Y603000D02*
D03*
Y608000D02*
D03*
Y613000D02*
D03*
Y618000D02*
D03*
Y623000D02*
D03*
Y628000D02*
D03*
Y633000D02*
D03*
Y638000D02*
D03*
Y643000D02*
D03*
Y648000D02*
D03*
Y653000D02*
D03*
Y658000D02*
D03*
Y663000D02*
D03*
Y668000D02*
D03*
Y673000D02*
D03*
Y678000D02*
D03*
Y683000D02*
D03*
Y688000D02*
D03*
Y693000D02*
D03*
Y698000D02*
D03*
Y703000D02*
D03*
Y708000D02*
D03*
Y713000D02*
D03*
D32*
X1347480Y577500D02*
D03*
X1352480D02*
D03*
X1357480D02*
D03*
X1362480D02*
D03*
X1367480D02*
D03*
X1372480D02*
D03*
X1377480D02*
D03*
X1382480D02*
D03*
X1387480D02*
D03*
X1392480D02*
D03*
X1397480D02*
D03*
X1402480D02*
D03*
X1407480D02*
D03*
X1412480D02*
D03*
X1417480D02*
D03*
X1422480D02*
D03*
X1427480D02*
D03*
X1432480D02*
D03*
X1437480D02*
D03*
X1442480D02*
D03*
X1447480D02*
D03*
X1452480D02*
D03*
X1457480D02*
D03*
X1462480D02*
D03*
X1467480D02*
D03*
Y728500D02*
D03*
X1462480D02*
D03*
X1457480D02*
D03*
X1452480D02*
D03*
X1447480D02*
D03*
X1442480D02*
D03*
X1437480D02*
D03*
X1432480D02*
D03*
X1427480D02*
D03*
X1422480D02*
D03*
X1417480D02*
D03*
X1412480D02*
D03*
X1407480D02*
D03*
X1402480D02*
D03*
X1397480D02*
D03*
X1392480D02*
D03*
X1387480D02*
D03*
X1382480D02*
D03*
X1377480D02*
D03*
X1372480D02*
D03*
X1367480D02*
D03*
X1362480D02*
D03*
X1357480D02*
D03*
X1352480D02*
D03*
X1347480D02*
D03*
D33*
X1303750Y355050D02*
D03*
Y322250D02*
D03*
D34*
X1358750Y297400D02*
D03*
Y371400D02*
D03*
D35*
X1300500Y430900D02*
D03*
X1370500D02*
D03*
D36*
X1134750Y420250D02*
D03*
X1148750D02*
D03*
X1120750D02*
D03*
X1148750Y434250D02*
D03*
X1134750D02*
D03*
X1120750D02*
D03*
X1148750Y406250D02*
D03*
X1134750D02*
D03*
X1120750D02*
D03*
D37*
X1207250Y343050D02*
D03*
Y355750D02*
D03*
Y368450D02*
D03*
Y381150D02*
D03*
Y393850D02*
D03*
Y406550D02*
D03*
Y419250D02*
D03*
Y431950D02*
D03*
Y444650D02*
D03*
Y457350D02*
D03*
Y470050D02*
D03*
Y482750D02*
D03*
Y495450D02*
D03*
Y508150D02*
D03*
X1032250D02*
D03*
Y495450D02*
D03*
Y482750D02*
D03*
Y470050D02*
D03*
Y457350D02*
D03*
Y444650D02*
D03*
Y431950D02*
D03*
Y419250D02*
D03*
Y406550D02*
D03*
Y393850D02*
D03*
Y381150D02*
D03*
Y368450D02*
D03*
Y355750D02*
D03*
Y343050D02*
D03*
D38*
X1189600Y520650D02*
D03*
X1176900D02*
D03*
X1164200D02*
D03*
X1151500D02*
D03*
X1138800D02*
D03*
X1126100D02*
D03*
X1113400D02*
D03*
X1100700D02*
D03*
X1088000D02*
D03*
X1075300D02*
D03*
X1062600D02*
D03*
X1049900D02*
D03*
D39*
X1217250Y601000D02*
D03*
Y620000D02*
D03*
X1194250Y601000D02*
D03*
Y620000D02*
D03*
D74*
X916250Y995000D02*
D03*
X1078250Y1098750D02*
D03*
X991000Y699750D02*
D03*
D75*
X920250Y951500D02*
D03*
X1106490Y1213870D02*
D03*
X921750Y1067000D02*
D03*
X924560Y662150D02*
D03*
X1450200Y1228000D02*
D03*
X1501000D02*
D03*
X1475600D02*
D03*
X1619550D02*
D03*
X1670350D02*
D03*
X1644950D02*
D03*
X921710Y417075D02*
D03*
Y366275D02*
D03*
Y391675D02*
D03*
X924560Y813700D02*
D03*
Y762900D02*
D03*
Y788300D02*
D03*
D76*
X920250Y926100D02*
D03*
X921750Y1041600D02*
D03*
X924560Y636750D02*
D03*
X921710Y340875D02*
D03*
X924560Y737500D02*
D03*
D77*
X1131890Y1213870D02*
D03*
X1526400Y1228000D02*
D03*
X1695750D02*
D03*
D78*
X1134500Y1069500D02*
D03*
D79*
Y1104500D02*
D03*
D80*
X1134750Y413250D02*
D03*
X1148750D02*
D03*
X1120750D02*
D03*
X1148750Y427250D02*
D03*
X1134750D02*
D03*
X1120750D02*
D03*
X1141750Y406250D02*
D03*
X1127750D02*
D03*
X1141750Y420250D02*
D03*
X1127750D02*
D03*
X1141750Y434250D02*
D03*
X1127750D02*
D03*
D81*
X1102680Y831600D02*
D03*
X1128080D02*
D03*
X1153480D02*
D03*
X1178880D02*
D03*
Y907800D02*
D03*
X1153480D02*
D03*
X1128080D02*
D03*
X1102680D02*
D03*
D82*
X1509350Y275751D02*
D03*
X1534750D02*
D03*
X1560150D02*
D03*
X1483950D02*
D03*
D83*
X1754180Y1085041D02*
D03*
X1444180D02*
D03*
Y335041D02*
D03*
X1754180D02*
D03*
D84*
X1748750Y1226250D02*
D03*
X1749000Y284750D02*
D03*
X912750Y1226000D02*
D03*
X912250Y283750D02*
D03*
M02*
