M48
;Layer_Color=9474304
;FILE_FORMAT=4:4
METRIC,LZ
;TYPE=PLATED
T01F00S00C0.2000
T02F00S00C0.3000
T03F00S00C0.5000
T04F00S00C0.5588
T05F00S00C0.7620
T06F00S00C0.8000
T07F00S00C0.9000
T08F00S00C3.1000
T09F00S00C4.0000
%
T01
X0112075Y0041325
X0113475
X0112775Y0040625
X0114175
X0114875Y0041325
Y0042725
X0114175Y0042025
X0113475Y0042725
X0112775Y0042025
X0112075Y0042725
X0112775Y0043425
X0114175
T02
X00898638Y00269431
X0091275Y00264
X00926569Y00270138
X00945Y0027
X00932Y0028425
X00925862Y00298069
X0091175Y003035
X00897931Y00297362
X008925Y0028325
X0099Y0027
X00945Y0036
X01059Y00353609
X01088924
Y0038525
X01059
X01122
Y00353609
X011565
X0118325
Y0038525
X011565
X0124275Y0031
X01256
X012695
X012825
X01299
X013105
X013275Y00315
X01345Y00268
X0135975
X01375353
X01395Y0027
X0144
X0146225Y0030075
Y003125
X014175Y00315
X01395Y0036
X01485
X01575
X015525Y00315
X01575Y0027
X01305
X0126
X0162
X01665
X0171
X01735388Y00269181
X017495Y0026375
X01763319Y00269888
X0176875Y00284
X01762612Y00297819
X017485Y0030325
X01734681Y00297112
X0172925Y00283
X017325Y00315
X016875
X016425
X015975
X0162Y0036
X01665
X0171
X017325Y00405
X016875
X016425
X015975
X0162Y0045
X01665
X0171
X01755
X017325Y00495
X016875
X016425
X015975
X0162Y0054
X01665
X0171
X01755
X017325Y00585
X016875
X016425
X015975
X0162Y0063
X016425Y00675
X01665Y0072
X0171
X01755
X017325Y00765
Y00675
X01755Y0063
X0171
X015975Y00765
X01551Y0075575
X0153675
X015075Y00765
X0152925Y00718
X01529Y00709
X01501Y00697
X014625Y00675
X014175
X013725
X01395Y0070175
X0135
X01317Y0067625
X012785Y0067225
Y00664
X012525
Y0067225
X0125675Y00595742
X01267032
X012625Y005765
Y00565833
Y00552667
Y00542
X0127725Y0050125
X012375Y00495
X0126Y0045
X0125575Y0042425
X012445
X013275Y00405
X013725
X0138525Y00426
Y00435
X01395Y0045
X0144
X014625Y00405
X015075
X015525
X01575Y0045
X015525Y00495
X01503Y0051025
X014945
X01463
X0144975
X0144Y0054
X01409Y0051025
X013965
X0136975Y004875
X0135Y0045
X0133725Y00517917
Y0053025
Y00542583
Y00554917
X013275Y00585
X01301125Y00595742
X0129175
X0137225Y00603
X0141725
X0146225
X0144Y0063
X01395
X0135
X01305Y0072
X0134925Y007765
X0135825
X01401Y007805
Y007905
X014175Y00765
X013925Y007475
X01384383Y00747132
X0144Y0070175
X01575Y0072
Y0063
X01547Y0060725
X015525Y00585
X015075
X015035Y005665
X014945Y0056675
X01575Y0054
X014175Y00405
X0118325Y0042175
Y0046
X011565
Y00492
X0118325
X0117Y0054
X01125
X0108
X01088924Y00492
X01059
Y0046
X01088924
X01122
Y00492
X01088924Y0042175
X01059
X010125Y00495
X0100825Y0053075
X01018
X010575Y00585
X01035Y0063
X0103825Y006735
X010275
X010575Y00675
X0106925Y006785
X0107925
X01142Y006735
X011555
Y0066275
X01035Y0072
X0108Y0081
X00945
X009
X01028Y0096125
X0103775
X0105775Y00958
Y00967
X01170001Y00960001
X01190001Y00920001
X01181Y01166477
Y01189977
X01057Y0119
Y011665
X01027265
Y0119
X00995
Y011665
X00967
Y0119
X01209Y01189977
Y01166477
X01241265
Y01189977
X01271
Y01166477
X0134144Y0118466
X01390001Y01160001
Y01120001
Y01080001
Y01040001
Y01000001
X01370001
X01380001Y00980001
X01360001
X01370001Y00960001
X01390001
X01380001Y00940001
X01360001
X01340001
X01320001
X01300001
X01280001
X01260001
X01240001
X01250001Y00960001
X01270001
X01290001
X01310001
X01330001
X01350001
Y00920001
X01370001
X01390001
X01380001Y00900001
X01360001
X01340001
X01320001
X01300001
X01280001
X01260001
X01240001
X01220001
X01230001Y00920001
X01250001
X01270001
X01290001
X01310001
X01330001
X0144Y009
X01485
X015075Y00945
X015525
X01575Y0099
X015525Y01035
X015075
X014625
X01485Y0108
X015075Y01125
X014625
X0156875Y01128
Y0111575
X01575Y0108
Y009
X015525Y00855
X015075
X014625
X01485Y0081
X0144
X01575
X014625Y00945
X01485Y0099
X0144
X01230001Y00960001
X01200001Y00940001
X015975Y00945
X0162Y0099
X015975Y01035
X0162Y0108
X015975Y01125
X017325
X01755Y0117
X0171Y0108
X017325Y01035
X01755Y0099
X0171
X017325Y00945
X01755Y009
X0171
X017325Y00855
X01755Y0081
X0171
X0162
X015975Y00855
X0162Y009
X015975Y01215
X01735138Y01211931
X0174925Y012065
X01763069Y01212638
X017685Y0122675
X01762362Y01240569
X0174825Y01246
X01734431Y01239862
X01729Y0122575
X015525Y01215
X015075
X0150125Y0119975
X014625Y01215
X01390001Y01200001
X01271Y01210726
Y01233
X01241265
Y01210726
X01209
Y01233
X01181
Y01210726
X01057Y0121075
Y01233024
X01027265
Y0121075
X00995
Y01233024
X00967
Y0121075
X00927069Y01212388
X009325Y012265
X00926362Y01240319
X0091225Y0124575
X00898431Y01239612
X00893Y012255
X00899138Y01211681
X0091325Y0120625
T03
X0133165Y0110465
T04
X0110268Y008316
X0112808
X0115348
X0117888
Y009078
X0115348
X0112808
X0110268
T05
X0148395Y00275751
X0150935
X0153475
X0156015
T06
X0092171Y00340875
Y00366275
Y00391675
Y00417075
X0092456Y0063675
Y0066215
Y007375
Y007629
Y007883
Y008137
X0092025Y009261
Y009515
X0092175Y010416
Y01067
X0161955Y01228
X0164495
X0167035
X0169575
X015264
X01501
X014756
X014502
X0113189Y0121387
X0110649
T07
X011345Y010695
Y011045
T08
X0091225Y0028375
X01749Y0028475
X0174875Y0122625
X0091275Y01226
T09
X0144418Y00335041
X0175418
X0144418Y01085041
X0175418
M30
